M48
METRIC,LZ,000.000
;FILE_FORMAT=3:3
;TYPE=PLATED
;Layer: PTH_Through_Via
;EasyEDA v6.5.50, 2025-06-19 09:08:47
;325562750588475293780cdaac5b2654,9a14cf9cccb343e4808d4fef6e5d14ac,10
;Gerber Generator version 0.2
;Holesize 1 = 0.310 mm
T01C0.310
%
G05
G90
T01
X032766Y-024130
X025273Y-034925
X033909Y-041148
X033274Y-042418
X032639Y-043053
X034544Y-039878
X032893Y-029287
X030988Y-043942
X057404Y-028702
X010668Y-025400
X053467Y-036576
X017780Y-031115
X044577Y-041402
X053467Y-038100
X050292Y-032639
X040132Y-023749
X034925Y-029083
X016129Y-026162
X032766Y-025477
X039116Y-030226
X039116Y-029210
X016891Y-044069
X038862Y-038481
X037846Y-038481
X036830Y-038481
X039878Y-038481
X019685Y-034036
X020701Y-034036
X021717Y-034036
X022733Y-034036
X019685Y-035137
X020701Y-035137
X021717Y-035137
X022733Y-035137
X019685Y-036237
X020701Y-036237
X021717Y-036237
X022733Y-036237
X024765Y-027305
X024765Y-028406
X025781Y-027305
X026797Y-027305
X027813Y-027305
X027813Y-028406
X026797Y-028406
X025781Y-028406
X024765Y-029506
X025781Y-029506
X026797Y-029506
X027813Y-029506
X027813Y-030607
X026797Y-030607
X025781Y-030607
X024765Y-030607
X033782Y-030480
X034798Y-030480
X046228Y-029591
X046228Y-028575
X046228Y-031623
X046228Y-030607
X029210Y-044831
X040918Y-028781
X040922Y-027587
X056261Y-026289
X056134Y-024003
X009398Y-024130
X008001Y-025400
X008636Y-026416
X008763Y-039497
X007366Y-024511
X010287Y-035687
X009652Y-033655
X009779Y-038608
X006604Y-028829
X011557Y-031115
X011684Y-052070
X026393Y-053429
X009271Y-048006
X041148Y-045974
X057785Y-043942
X040259Y-046609
X056896Y-048514
X046990Y-042418
X048260Y-042418
X006604Y-041021
X042672Y-045085
X041656Y-045085
X040640Y-045085
X039624Y-045085
X008636Y-041148
X011176Y-033274
X011557Y-037846
X010287Y-047625
X010287Y-047625
X011771Y-053721
X-007493Y-024504
X-007493Y-025504
X-007493Y-026504
X-007493Y-027504
X-007493Y-027504
X-007493Y-028504
X-007493Y-029504
X-007493Y-030504
X-007493Y-031504
X-009906Y-027432
X050800Y-048260
X042926Y-048895
X042926Y-049911
X044069Y-047879
X044069Y-048895
M30
