G04 Layer: TopSilkscreenLayer*
G04 EasyEDA v6.5.50, 2025-06-19 09:08:47*
G04 325562750588475293780cdaac5b2654,9a14cf9cccb343e4808d4fef6e5d14ac,10*
G04 Gerber Generator version 0.2*
G04 Scale: 100 percent, Rotated: No, Reflected: No *
G04 Dimensions in millimeters *
G04 leading zeros omitted , absolute positions ,4 integer and 5 decimal *
%FSLAX45Y45*%
%MOMM*%

%ADD10C,0.2032*%
%ADD11C,0.2540*%
%ADD12C,0.1500*%
%ADD13C,0.1524*%
%ADD14C,0.1200*%
%ADD15C,0.1000*%
%ADD16C,0.2030*%
%ADD17C,0.2000*%
%ADD18C,0.4318*%
%ADD19C,0.3000*%
%ADD20C,0.0178*%

%LPD*%
G36*
X1343202Y-4483100D02*
G01*
X1340866Y-4483506D01*
X1338122Y-4484573D01*
X1335481Y-4486605D01*
X1334312Y-4488230D01*
X1333601Y-4490008D01*
X1333398Y-4492294D01*
X1333906Y-4494225D01*
X1335074Y-4496104D01*
X1336090Y-4497120D01*
X1372412Y-4525416D01*
X1266494Y-4525518D01*
X1264208Y-4526026D01*
X1261770Y-4527042D01*
X1259789Y-4528464D01*
X1258417Y-4530140D01*
X1257300Y-4532680D01*
X1257300Y-4535119D01*
X1258366Y-4537710D01*
X1259992Y-4539640D01*
X1262176Y-4541012D01*
X1264462Y-4541926D01*
X1266240Y-4542332D01*
X1372311Y-4542485D01*
X1336700Y-4570171D01*
X1335125Y-4571695D01*
X1334109Y-4573219D01*
X1333550Y-4574743D01*
X1333550Y-4577638D01*
X1334312Y-4579569D01*
X1335481Y-4581194D01*
X1338122Y-4583277D01*
X1340916Y-4584344D01*
X1342999Y-4584700D01*
X1345438Y-4584700D01*
X1347724Y-4584344D01*
X1350162Y-4583430D01*
X1352143Y-4582160D01*
X1407515Y-4539030D01*
X1408582Y-4537557D01*
X1409344Y-4535932D01*
X1409700Y-4533900D01*
X1409344Y-4531868D01*
X1408582Y-4530242D01*
X1407515Y-4528769D01*
X1351991Y-4485487D01*
X1350010Y-4484319D01*
X1347724Y-4483455D01*
X1345438Y-4483100D01*
G37*
G36*
X534162Y-4660900D02*
G01*
X531876Y-4661255D01*
X529590Y-4662119D01*
X527608Y-4663287D01*
X472084Y-4706569D01*
X471017Y-4708042D01*
X470255Y-4709668D01*
X469900Y-4711700D01*
X470255Y-4713732D01*
X471017Y-4715357D01*
X472084Y-4716830D01*
X527456Y-4759960D01*
X529437Y-4761230D01*
X531876Y-4762144D01*
X534162Y-4762500D01*
X536600Y-4762500D01*
X538683Y-4762144D01*
X541477Y-4761077D01*
X544118Y-4758994D01*
X545287Y-4757369D01*
X546049Y-4755438D01*
X546049Y-4752543D01*
X545490Y-4751019D01*
X544474Y-4749495D01*
X542899Y-4747971D01*
X507288Y-4720285D01*
X613359Y-4720132D01*
X615137Y-4719726D01*
X617423Y-4718812D01*
X619607Y-4717440D01*
X621233Y-4715510D01*
X622300Y-4712919D01*
X622300Y-4710480D01*
X621741Y-4708855D01*
X620623Y-4707077D01*
X618947Y-4705502D01*
X616661Y-4704232D01*
X614121Y-4703470D01*
X612038Y-4703216D01*
X507187Y-4703216D01*
X543509Y-4674920D01*
X544525Y-4673904D01*
X545693Y-4672025D01*
X546201Y-4670094D01*
X545998Y-4667808D01*
X545287Y-4666030D01*
X544118Y-4664405D01*
X541477Y-4662373D01*
X538734Y-4661306D01*
X536397Y-4660900D01*
G37*
G36*
X2110486Y-4809998D02*
G01*
X2104288Y-4810201D01*
X2098700Y-4810810D01*
X2093620Y-4811877D01*
X2089150Y-4813300D01*
X2077161Y-4823307D01*
X2073148Y-4840732D01*
X2073656Y-4846574D01*
X2074265Y-4849317D01*
X2075180Y-4851908D01*
X2077262Y-4856429D01*
X2080158Y-4860340D01*
X2083866Y-4863693D01*
X2088388Y-4866386D01*
X2091994Y-4867910D01*
X2097379Y-4869535D01*
X2101850Y-4870297D01*
X2107031Y-4870805D01*
X2132584Y-4870958D01*
X2137968Y-4871313D01*
X2142998Y-4872482D01*
X2147316Y-4874717D01*
X2150414Y-4877816D01*
X2152294Y-4881829D01*
X2152904Y-4886706D01*
X2147773Y-4898339D01*
X2132330Y-4902200D01*
X2075180Y-4902200D01*
X2075180Y-4917186D01*
X2132076Y-4917186D01*
X2147112Y-4915408D01*
X2158746Y-4910074D01*
X2166772Y-4900218D01*
X2169414Y-4886452D01*
X2169160Y-4881575D01*
X2168398Y-4877104D01*
X2167128Y-4873091D01*
X2165350Y-4869434D01*
X2160371Y-4863642D01*
X2153208Y-4859528D01*
X2143963Y-4857038D01*
X2132584Y-4856226D01*
X2108250Y-4856124D01*
X2104593Y-4855870D01*
X2101494Y-4855362D01*
X2099056Y-4854702D01*
X2094941Y-4852466D01*
X2091994Y-4849368D01*
X2090267Y-4845354D01*
X2089657Y-4840478D01*
X2090013Y-4836464D01*
X2091182Y-4833112D01*
X2094026Y-4829454D01*
X2098141Y-4826812D01*
X2103678Y-4825238D01*
X2110486Y-4824730D01*
X2165350Y-4824730D01*
X2165350Y-4809998D01*
G37*
G36*
X2226564Y-4810252D02*
G01*
X2213660Y-4812030D01*
X2201418Y-4817364D01*
X2195576Y-4821428D01*
X2190496Y-4826254D01*
X2187143Y-4830064D01*
X2184654Y-4833366D01*
X2177796Y-4847894D01*
X2175510Y-4863592D01*
X2175662Y-4867554D01*
X2176119Y-4871516D01*
X2176932Y-4875530D01*
X2178050Y-4879594D01*
X2180945Y-4886807D01*
X2184654Y-4893310D01*
X2187448Y-4897120D01*
X2191766Y-4901946D01*
X2195271Y-4905248D01*
X2198116Y-4907534D01*
X2211882Y-4914747D01*
X2226310Y-4917186D01*
X2270760Y-4917186D01*
X2270760Y-4900676D01*
X2227326Y-4900676D01*
X2221484Y-4900168D01*
X2216150Y-4898644D01*
X2211171Y-4896358D01*
X2206701Y-4893310D01*
X2202688Y-4889500D01*
X2199132Y-4884928D01*
X2196338Y-4879848D01*
X2194610Y-4876190D01*
X2193036Y-4870704D01*
X2264918Y-4870704D01*
X2264918Y-4854194D01*
X2193544Y-4854194D01*
X2194052Y-4852162D01*
X2195576Y-4848098D01*
X2197608Y-4844034D01*
X2199132Y-4841697D01*
X2202586Y-4837531D01*
X2205736Y-4834636D01*
X2210612Y-4831080D01*
X2215845Y-4828540D01*
X2221382Y-4827016D01*
X2227326Y-4826508D01*
X2270760Y-4826508D01*
X2270760Y-4810252D01*
G37*
G36*
X2277110Y-4810252D02*
G01*
X2277110Y-4825492D01*
X2316734Y-4825492D01*
X2316734Y-4917186D01*
X2333244Y-4917186D01*
X2333244Y-4825492D01*
X2373122Y-4825492D01*
X2373122Y-4810252D01*
G37*
G36*
X6079490Y-2873248D02*
G01*
X6075629Y-2877312D01*
X6072428Y-2882493D01*
X6070142Y-2888945D01*
X6069330Y-2896870D01*
X6069685Y-2901594D01*
X6070752Y-2905963D01*
X6072530Y-2909976D01*
X6074918Y-2913430D01*
X6077915Y-2916275D01*
X6081522Y-2918409D01*
X6085738Y-2919780D01*
X6090412Y-2920238D01*
X6097371Y-2918968D01*
X6102959Y-2915564D01*
X6107074Y-2910484D01*
X6109462Y-2904236D01*
X6109716Y-2904236D01*
X6112560Y-2909773D01*
X6116472Y-2913989D01*
X6121603Y-2916732D01*
X6128004Y-2917698D01*
X6135776Y-2916123D01*
X6141516Y-2911754D01*
X6145072Y-2905048D01*
X6146292Y-2896616D01*
X6145631Y-2890520D01*
X6143802Y-2885084D01*
X6141059Y-2880309D01*
X6137656Y-2876042D01*
X6132068Y-2880614D01*
X6135065Y-2883916D01*
X6137402Y-2887573D01*
X6138976Y-2891688D01*
X6139688Y-2896108D01*
X6138672Y-2901594D01*
X6136132Y-2905760D01*
X6132271Y-2908401D01*
X6127242Y-2909316D01*
X6121400Y-2908198D01*
X6116726Y-2904591D01*
X6113627Y-2898089D01*
X6112510Y-2888234D01*
X6106160Y-2888234D01*
X6105042Y-2899206D01*
X6101842Y-2906522D01*
X6096965Y-2910586D01*
X6090666Y-2911856D01*
X6084671Y-2910687D01*
X6080099Y-2907436D01*
X6077204Y-2902508D01*
X6076188Y-2896362D01*
X6076899Y-2890266D01*
X6078778Y-2885236D01*
X6081522Y-2881071D01*
X6084824Y-2877566D01*
G37*
G36*
X6145022Y-2926080D02*
G01*
X6070600Y-2949956D01*
X6070600Y-2959608D01*
X6145022Y-2983484D01*
X6145022Y-2974848D01*
X6079236Y-2955290D01*
X6079236Y-2954782D01*
X6145022Y-2934970D01*
G37*
G36*
X6107684Y-3057652D02*
G01*
X6099200Y-3058261D01*
X6091631Y-3060090D01*
X6085078Y-3062986D01*
X6079540Y-3066897D01*
X6075172Y-3071723D01*
X6071971Y-3077362D01*
X6069990Y-3083712D01*
X6069330Y-3090672D01*
X6069939Y-3097733D01*
X6071717Y-3103981D01*
X6074359Y-3109315D01*
X6077712Y-3113532D01*
X6108700Y-3113532D01*
X6108700Y-3089402D01*
X6101588Y-3089402D01*
X6101588Y-3105658D01*
X6081268Y-3105658D01*
X6079388Y-3102914D01*
X6077915Y-3099511D01*
X6077000Y-3095599D01*
X6076696Y-3091434D01*
X6077254Y-3085744D01*
X6078880Y-3080766D01*
X6081572Y-3076448D01*
X6085179Y-3072841D01*
X6089700Y-3070047D01*
X6095034Y-3067964D01*
X6101130Y-3066694D01*
X6107938Y-3066288D01*
X6114745Y-3066745D01*
X6120841Y-3068015D01*
X6126124Y-3070148D01*
X6130594Y-3073044D01*
X6134150Y-3076651D01*
X6136741Y-3080969D01*
X6138367Y-3085896D01*
X6138926Y-3091434D01*
X6138367Y-3096818D01*
X6136792Y-3101238D01*
X6134557Y-3104845D01*
X6131814Y-3107944D01*
X6137148Y-3112516D01*
X6140500Y-3108807D01*
X6143447Y-3104134D01*
X6145530Y-3098292D01*
X6146292Y-3091180D01*
X6145987Y-3086404D01*
X6145072Y-3081883D01*
X6143599Y-3077667D01*
X6141567Y-3073806D01*
X6139027Y-3070250D01*
X6135928Y-3067100D01*
X6132372Y-3064306D01*
X6128308Y-3062020D01*
X6123787Y-3060141D01*
X6118809Y-3058769D01*
X6113475Y-3057956D01*
G37*
G36*
X6070600Y-3131312D02*
G01*
X6070600Y-3139440D01*
X6117082Y-3139338D01*
X6134100Y-3138424D01*
X6134100Y-3138932D01*
X6118860Y-3147060D01*
X6070600Y-3175000D01*
X6070600Y-3183636D01*
X6145022Y-3183636D01*
X6145022Y-3175508D01*
X6104636Y-3175508D01*
X6093002Y-3175965D01*
X6081522Y-3176778D01*
X6081522Y-3176270D01*
X6096762Y-3168142D01*
X6145022Y-3139948D01*
X6145022Y-3131312D01*
G37*
G36*
X6070600Y-3204464D02*
G01*
X6070600Y-3212846D01*
X6138164Y-3212846D01*
X6138164Y-3221990D01*
X6137656Y-3228289D01*
X6136132Y-3233775D01*
X6133642Y-3238347D01*
X6130239Y-3242106D01*
X6125921Y-3244951D01*
X6120790Y-3247034D01*
X6114897Y-3248253D01*
X6108192Y-3248660D01*
X6101384Y-3248253D01*
X6095339Y-3247034D01*
X6090107Y-3244951D01*
X6085687Y-3242106D01*
X6082182Y-3238347D01*
X6079591Y-3233775D01*
X6078016Y-3228289D01*
X6077458Y-3221990D01*
X6077458Y-3212846D01*
X6070600Y-3212846D01*
X6070600Y-3223006D01*
X6070904Y-3228441D01*
X6071768Y-3233420D01*
X6073190Y-3237890D01*
X6075172Y-3241954D01*
X6077661Y-3245510D01*
X6080658Y-3248609D01*
X6084112Y-3251250D01*
X6088075Y-3253435D01*
X6092444Y-3255111D01*
X6097270Y-3256330D01*
X6102553Y-3257042D01*
X6108192Y-3257296D01*
X6113830Y-3257042D01*
X6119012Y-3256330D01*
X6123787Y-3255111D01*
X6128105Y-3253435D01*
X6131966Y-3251250D01*
X6135370Y-3248609D01*
X6138265Y-3245459D01*
X6140653Y-3241852D01*
X6142532Y-3237788D01*
X6143904Y-3233267D01*
X6144768Y-3228238D01*
X6145022Y-3222752D01*
X6145022Y-3204464D01*
G37*
G36*
X6080252Y-3336290D02*
G01*
X6075781Y-3341522D01*
X6072327Y-3347618D01*
X6070092Y-3354425D01*
X6069330Y-3361944D01*
X6069736Y-3367481D01*
X6070955Y-3372408D01*
X6072835Y-3376726D01*
X6075375Y-3380333D01*
X6078423Y-3383229D01*
X6081979Y-3385362D01*
X6085890Y-3386632D01*
X6090158Y-3387090D01*
X6097320Y-3385870D01*
X6102756Y-3382568D01*
X6106820Y-3377641D01*
X6109970Y-3371596D01*
X6116574Y-3356508D01*
X6119114Y-3352495D01*
X6122619Y-3349599D01*
X6127496Y-3348482D01*
X6132271Y-3349548D01*
X6135878Y-3352495D01*
X6138164Y-3357067D01*
X6138926Y-3362960D01*
X6138418Y-3367989D01*
X6136995Y-3372408D01*
X6134760Y-3376371D01*
X6131814Y-3379978D01*
X6137148Y-3384550D01*
X6140805Y-3380282D01*
X6143701Y-3375202D01*
X6145631Y-3369360D01*
X6146292Y-3362960D01*
X6144869Y-3353765D01*
X6140805Y-3346450D01*
X6134709Y-3341624D01*
X6126988Y-3339846D01*
X6119825Y-3341268D01*
X6114491Y-3344875D01*
X6110681Y-3349802D01*
X6107938Y-3355086D01*
X6100826Y-3370732D01*
X6098184Y-3374745D01*
X6094526Y-3377488D01*
X6089396Y-3378454D01*
X6084214Y-3377336D01*
X6080201Y-3374136D01*
X6077610Y-3369005D01*
X6076696Y-3362198D01*
X6077356Y-3356356D01*
X6079185Y-3350818D01*
X6082182Y-3345789D01*
X6086094Y-3341370D01*
G37*
G36*
X6107684Y-3397504D02*
G01*
X6099200Y-3398113D01*
X6091631Y-3399942D01*
X6085078Y-3402787D01*
X6079540Y-3406648D01*
X6075172Y-3411321D01*
X6071971Y-3416808D01*
X6069990Y-3422904D01*
X6069330Y-3429508D01*
X6070041Y-3436315D01*
X6072073Y-3442258D01*
X6075426Y-3447491D01*
X6079998Y-3452114D01*
X6085332Y-3447542D01*
X6081623Y-3443782D01*
X6078931Y-3439617D01*
X6077254Y-3435096D01*
X6076696Y-3430015D01*
X6077254Y-3424783D01*
X6078880Y-3420059D01*
X6081572Y-3415995D01*
X6085179Y-3412540D01*
X6089700Y-3409797D01*
X6095034Y-3407816D01*
X6101130Y-3406546D01*
X6107938Y-3406140D01*
X6114745Y-3406597D01*
X6120841Y-3407867D01*
X6126124Y-3409950D01*
X6130594Y-3412794D01*
X6134150Y-3416249D01*
X6136741Y-3420414D01*
X6138367Y-3425088D01*
X6138926Y-3430270D01*
X6138418Y-3434791D01*
X6136995Y-3438855D01*
X6134760Y-3442512D01*
X6131814Y-3445764D01*
X6137148Y-3450336D01*
X6140602Y-3446627D01*
X6143548Y-3442004D01*
X6145530Y-3436416D01*
X6146292Y-3430015D01*
X6145631Y-3423208D01*
X6143599Y-3417011D01*
X6140348Y-3411474D01*
X6135928Y-3406698D01*
X6130391Y-3402837D01*
X6123787Y-3399942D01*
X6116218Y-3398113D01*
G37*
G36*
X6070600Y-3466337D02*
G01*
X6070600Y-3507740D01*
X6077712Y-3507740D01*
X6077712Y-3474720D01*
X6145022Y-3474720D01*
X6145022Y-3466337D01*
G37*
G36*
X6080252Y-3583178D02*
G01*
X6075781Y-3588410D01*
X6072327Y-3594506D01*
X6070092Y-3601415D01*
X6069330Y-3609086D01*
X6069736Y-3614521D01*
X6070955Y-3619398D01*
X6072835Y-3623665D01*
X6075375Y-3627272D01*
X6078423Y-3630117D01*
X6081979Y-3632250D01*
X6085890Y-3633520D01*
X6090158Y-3633978D01*
X6097320Y-3632758D01*
X6102756Y-3629456D01*
X6106820Y-3624529D01*
X6109970Y-3618484D01*
X6116574Y-3603498D01*
X6119114Y-3599484D01*
X6122619Y-3596538D01*
X6127496Y-3595370D01*
X6132271Y-3596436D01*
X6135878Y-3599383D01*
X6138164Y-3603955D01*
X6138926Y-3609848D01*
X6138418Y-3614928D01*
X6136995Y-3619449D01*
X6134760Y-3623513D01*
X6131814Y-3627120D01*
X6137148Y-3631437D01*
X6140805Y-3627170D01*
X6143701Y-3622090D01*
X6145631Y-3616248D01*
X6146292Y-3609848D01*
X6144869Y-3600704D01*
X6140805Y-3593439D01*
X6134709Y-3588715D01*
X6126988Y-3586987D01*
X6119825Y-3588359D01*
X6114491Y-3591915D01*
X6110681Y-3596741D01*
X6107938Y-3601974D01*
X6100826Y-3617874D01*
X6098184Y-3621887D01*
X6094526Y-3624630D01*
X6089396Y-3625596D01*
X6084214Y-3624427D01*
X6080201Y-3621176D01*
X6077610Y-3615944D01*
X6076696Y-3609086D01*
X6077356Y-3603244D01*
X6079185Y-3597706D01*
X6082182Y-3592677D01*
X6086094Y-3588258D01*
G37*
G36*
X6070600Y-3648964D02*
G01*
X6070600Y-3657346D01*
X6138164Y-3657346D01*
X6138164Y-3666490D01*
X6137656Y-3672789D01*
X6136132Y-3678275D01*
X6133642Y-3682847D01*
X6130239Y-3686606D01*
X6125921Y-3689451D01*
X6120790Y-3691534D01*
X6114897Y-3692753D01*
X6108192Y-3693160D01*
X6101384Y-3692753D01*
X6095339Y-3691534D01*
X6090107Y-3689451D01*
X6085687Y-3686606D01*
X6082182Y-3682847D01*
X6079591Y-3678275D01*
X6078016Y-3672789D01*
X6077458Y-3666490D01*
X6077458Y-3657346D01*
X6070600Y-3657346D01*
X6070600Y-3667506D01*
X6070904Y-3672941D01*
X6071768Y-3677920D01*
X6073190Y-3682390D01*
X6075172Y-3686454D01*
X6077661Y-3690010D01*
X6080658Y-3693109D01*
X6084112Y-3695750D01*
X6088075Y-3697935D01*
X6092444Y-3699611D01*
X6097270Y-3700830D01*
X6102553Y-3701542D01*
X6108192Y-3701796D01*
X6113830Y-3701542D01*
X6119012Y-3700830D01*
X6123787Y-3699611D01*
X6128105Y-3697935D01*
X6131966Y-3695750D01*
X6135370Y-3693109D01*
X6138265Y-3689959D01*
X6140653Y-3686352D01*
X6142532Y-3682288D01*
X6143904Y-3677767D01*
X6144768Y-3672738D01*
X6145022Y-3667251D01*
X6145022Y-3648964D01*
G37*
G36*
X6070600Y-3707384D02*
G01*
X6070600Y-3715765D01*
X6093968Y-3723386D01*
X6093968Y-3725418D01*
X6100572Y-3725418D01*
X6131407Y-3735070D01*
X6137910Y-3736848D01*
X6137910Y-3737356D01*
X6112764Y-3744976D01*
X6100572Y-3749040D01*
X6100572Y-3725418D01*
X6093968Y-3725418D01*
X6093968Y-3751072D01*
X6070600Y-3758437D01*
X6070600Y-3767328D01*
X6145022Y-3741928D01*
X6145022Y-3732784D01*
G37*
G36*
X265480Y-4467148D02*
G01*
X253187Y-4468876D01*
X241096Y-4474006D01*
X231140Y-4481576D01*
X223062Y-4491532D01*
X216763Y-4505502D01*
X214680Y-4520488D01*
X216611Y-4534458D01*
X222300Y-4547920D01*
X224536Y-4551273D01*
X229565Y-4557522D01*
X233222Y-4561128D01*
X237286Y-4564430D01*
X251104Y-4571695D01*
X265480Y-4574082D01*
X312978Y-4574082D01*
X312978Y-4557572D01*
X263652Y-4557471D01*
X258165Y-4556556D01*
X255574Y-4555794D01*
X250291Y-4553254D01*
X245567Y-4549952D01*
X241401Y-4545888D01*
X237794Y-4541062D01*
X235153Y-4536033D01*
X233222Y-4530902D01*
X232105Y-4525619D01*
X231698Y-4520234D01*
X233730Y-4508042D01*
X239826Y-4496866D01*
X251815Y-4486757D01*
X266496Y-4483404D01*
X312978Y-4483404D01*
X312978Y-4467148D01*
G37*
G36*
X855776Y-4467148D02*
G01*
X855776Y-4501438D01*
X835202Y-4501438D01*
X824585Y-4502353D01*
X815492Y-4504994D01*
X807923Y-4509465D01*
X801928Y-4515662D01*
X799185Y-4520438D01*
X797204Y-4525721D01*
X795985Y-4531360D01*
X795578Y-4537760D01*
X811834Y-4537760D01*
X812292Y-4532833D01*
X813562Y-4528515D01*
X815695Y-4524705D01*
X818692Y-4521504D01*
X822198Y-4519269D01*
X826160Y-4517694D01*
X830478Y-4516729D01*
X835202Y-4516424D01*
X855776Y-4516424D01*
X855776Y-4559096D01*
X834694Y-4559096D01*
X831545Y-4558944D01*
X828497Y-4558385D01*
X825449Y-4557522D01*
X822502Y-4556302D01*
X817829Y-4553051D01*
X814527Y-4548886D01*
X812495Y-4543806D01*
X811834Y-4537760D01*
X795578Y-4537760D01*
X798220Y-4553813D01*
X805992Y-4565192D01*
X818388Y-4571847D01*
X834694Y-4574082D01*
X872032Y-4574082D01*
X872032Y-4467148D01*
G37*
G36*
X878382Y-4467148D02*
G01*
X878382Y-4535220D01*
X878738Y-4541824D01*
X879754Y-4547920D01*
X881380Y-4553508D01*
X883716Y-4558588D01*
X889203Y-4565396D01*
X896416Y-4570222D01*
X905459Y-4573117D01*
X916228Y-4574082D01*
X960170Y-4574082D01*
X960170Y-4559604D01*
X916228Y-4559604D01*
X912876Y-4559350D01*
X909726Y-4558639D01*
X906678Y-4557471D01*
X902868Y-4555083D01*
X899972Y-4552238D01*
X897636Y-4548733D01*
X895959Y-4544568D01*
X894994Y-4539742D01*
X894638Y-4534204D01*
X894638Y-4467148D01*
G37*
G36*
X966266Y-4467148D02*
G01*
X966266Y-4484420D01*
X982776Y-4484420D01*
X982776Y-4467148D01*
G37*
G36*
X1071676Y-4467148D02*
G01*
X1071676Y-4574082D01*
X1087932Y-4574082D01*
X1087932Y-4517186D01*
X1109522Y-4517186D01*
X1114552Y-4517644D01*
X1119022Y-4518964D01*
X1122832Y-4521200D01*
X1126032Y-4524298D01*
X1128369Y-4527956D01*
X1130046Y-4532122D01*
X1131062Y-4536744D01*
X1131366Y-4541824D01*
X1131366Y-4574082D01*
X1148130Y-4574082D01*
X1148130Y-4541062D01*
X1147927Y-4535982D01*
X1147165Y-4531106D01*
X1145997Y-4526432D01*
X1144320Y-4522012D01*
X1137158Y-4511802D01*
X1126794Y-4504994D01*
X1122883Y-4503674D01*
X1118920Y-4502708D01*
X1115009Y-4502150D01*
X1111046Y-4501946D01*
X1087932Y-4501946D01*
X1087932Y-4467148D01*
G37*
G36*
X509320Y-4481372D02*
G01*
X509320Y-4501438D01*
X484682Y-4501438D01*
X484682Y-4515916D01*
X509320Y-4515916D01*
X509320Y-4545126D01*
X509574Y-4545584D01*
X510184Y-4551476D01*
X510997Y-4556048D01*
X512013Y-4559350D01*
X512622Y-4560620D01*
X521766Y-4570730D01*
X537514Y-4574082D01*
X555802Y-4574082D01*
X555802Y-4559604D01*
X537768Y-4559604D01*
X534263Y-4559249D01*
X531418Y-4558080D01*
X529234Y-4556201D01*
X527608Y-4553508D01*
X526846Y-4551172D01*
X526288Y-4547920D01*
X525932Y-4543806D01*
X525830Y-4515916D01*
X556310Y-4515916D01*
X556310Y-4501438D01*
X525830Y-4501438D01*
X525830Y-4481372D01*
G37*
G36*
X1179118Y-4481372D02*
G01*
X1179118Y-4501438D01*
X1154226Y-4501438D01*
X1154226Y-4515916D01*
X1179118Y-4515916D01*
X1179118Y-4545126D01*
X1179372Y-4545584D01*
X1180134Y-4554016D01*
X1181150Y-4557826D01*
X1182166Y-4560620D01*
X1191361Y-4570730D01*
X1207312Y-4574082D01*
X1225600Y-4574082D01*
X1225600Y-4559604D01*
X1207312Y-4559604D01*
X1203960Y-4559249D01*
X1201166Y-4558080D01*
X1198981Y-4556201D01*
X1197406Y-4553508D01*
X1196644Y-4551172D01*
X1196086Y-4547920D01*
X1195730Y-4543806D01*
X1195628Y-4515916D01*
X1226108Y-4515916D01*
X1226108Y-4501438D01*
X1195628Y-4501438D01*
X1195628Y-4481372D01*
G37*
G36*
X401878Y-4501184D02*
G01*
X401878Y-4515916D01*
X439216Y-4515916D01*
X442366Y-4516120D01*
X445465Y-4516628D01*
X448462Y-4517491D01*
X451408Y-4518710D01*
X456082Y-4522063D01*
X459435Y-4526330D01*
X461416Y-4531461D01*
X462076Y-4537506D01*
X461670Y-4542231D01*
X460451Y-4546396D01*
X458368Y-4550105D01*
X455472Y-4553254D01*
X451967Y-4555693D01*
X448056Y-4557471D01*
X443738Y-4558487D01*
X438962Y-4558842D01*
X418134Y-4558842D01*
X418134Y-4515916D01*
X401878Y-4515916D01*
X401878Y-4608118D01*
X418134Y-4608118D01*
X418134Y-4573574D01*
X438708Y-4573574D01*
X454914Y-4571339D01*
X467410Y-4564684D01*
X475589Y-4553000D01*
X478332Y-4537760D01*
X476656Y-4524044D01*
X471474Y-4513630D01*
X465734Y-4508195D01*
X458470Y-4504283D01*
X449630Y-4501946D01*
X439216Y-4501184D01*
G37*
G36*
X1028242Y-4501184D02*
G01*
X1010462Y-4504131D01*
X997254Y-4512868D01*
X991006Y-4523587D01*
X988872Y-4537506D01*
X1005382Y-4537506D01*
X1005789Y-4532680D01*
X1006957Y-4528413D01*
X1008989Y-4524705D01*
X1011732Y-4521504D01*
X1015339Y-4519066D01*
X1019302Y-4517339D01*
X1023619Y-4516272D01*
X1028242Y-4515916D01*
X1049070Y-4515916D01*
X1049070Y-4558842D01*
X1028496Y-4558842D01*
X1025245Y-4558690D01*
X1022096Y-4558131D01*
X1019048Y-4557268D01*
X1016050Y-4556048D01*
X1011377Y-4552797D01*
X1008075Y-4548632D01*
X1006043Y-4543552D01*
X1005382Y-4537506D01*
X988872Y-4537506D01*
X989279Y-4544212D01*
X990396Y-4550105D01*
X992327Y-4555388D01*
X994968Y-4560112D01*
X1000709Y-4566005D01*
X1008176Y-4570222D01*
X1017473Y-4572762D01*
X1028496Y-4573574D01*
X1049070Y-4573574D01*
X1048816Y-4576267D01*
X1048054Y-4579670D01*
X1046937Y-4582515D01*
X1045514Y-4585004D01*
X1044143Y-4586935D01*
X1041958Y-4589068D01*
X1038961Y-4591050D01*
X1035862Y-4592523D01*
X1032662Y-4593336D01*
X1029258Y-4593640D01*
X991920Y-4593640D01*
X991920Y-4608118D01*
X1029258Y-4608118D01*
X1044905Y-4605528D01*
X1056690Y-4597704D01*
X1063193Y-4586579D01*
X1065326Y-4573066D01*
X1065326Y-4501184D01*
G37*
G36*
X358444Y-4501438D02*
G01*
X340715Y-4504385D01*
X327710Y-4513122D01*
X321259Y-4524044D01*
X319074Y-4537760D01*
X335584Y-4537760D01*
X335991Y-4532934D01*
X337261Y-4528667D01*
X339293Y-4524959D01*
X342188Y-4521758D01*
X345694Y-4519422D01*
X349554Y-4517745D01*
X353822Y-4516780D01*
X358444Y-4516424D01*
X379272Y-4516424D01*
X379272Y-4559096D01*
X358444Y-4559096D01*
X354990Y-4558893D01*
X351586Y-4558284D01*
X348386Y-4557268D01*
X345236Y-4555794D01*
X341020Y-4552492D01*
X338023Y-4548378D01*
X336194Y-4543450D01*
X335584Y-4537760D01*
X319074Y-4537760D01*
X321767Y-4553813D01*
X329742Y-4565192D01*
X342036Y-4571847D01*
X358444Y-4574082D01*
X395782Y-4574082D01*
X395782Y-4501438D01*
G37*
G36*
X746556Y-4501438D02*
G01*
X728878Y-4504385D01*
X715822Y-4513122D01*
X709523Y-4524044D01*
X708501Y-4530648D01*
X724712Y-4530648D01*
X725982Y-4527600D01*
X727354Y-4525111D01*
X729792Y-4522266D01*
X733450Y-4519726D01*
X737412Y-4517898D01*
X741781Y-4516780D01*
X746556Y-4516424D01*
X753821Y-4516678D01*
X757529Y-4517390D01*
X761085Y-4518558D01*
X764336Y-4520234D01*
X766826Y-4522114D01*
X768908Y-4524502D01*
X770636Y-4527346D01*
X771956Y-4530648D01*
X708501Y-4530648D01*
X707440Y-4538014D01*
X708456Y-4548327D01*
X711454Y-4556963D01*
X716432Y-4563821D01*
X723442Y-4569002D01*
X728421Y-4571238D01*
X733907Y-4572812D01*
X740003Y-4573778D01*
X746556Y-4574082D01*
X787704Y-4574082D01*
X787704Y-4559096D01*
X746810Y-4559096D01*
X743254Y-4558893D01*
X739851Y-4558334D01*
X736650Y-4557369D01*
X733602Y-4556048D01*
X730808Y-4554169D01*
X728421Y-4551883D01*
X726490Y-4549089D01*
X724966Y-4545888D01*
X788720Y-4545888D01*
X789127Y-4542078D01*
X789228Y-4537506D01*
X788822Y-4531156D01*
X787603Y-4525314D01*
X785520Y-4519980D01*
X782624Y-4515154D01*
X780338Y-4512614D01*
X777036Y-4509566D01*
X765048Y-4503470D01*
X749858Y-4501438D01*
G37*
G36*
X966266Y-4501438D02*
G01*
X966266Y-4574082D01*
X982776Y-4574082D01*
X982776Y-4501438D01*
G37*
G36*
X562406Y-4502200D02*
G01*
X562406Y-4535220D01*
X564642Y-4550460D01*
X571804Y-4563364D01*
X583946Y-4571796D01*
X599490Y-4574590D01*
X604977Y-4574387D01*
X609396Y-4573727D01*
X613613Y-4572609D01*
X617524Y-4571034D01*
X625195Y-4565650D01*
X630682Y-4557877D01*
X633984Y-4547768D01*
X635050Y-4535220D01*
X635050Y-4502200D01*
X618286Y-4502200D01*
X618185Y-4538421D01*
X617778Y-4542078D01*
X617169Y-4545279D01*
X616254Y-4547920D01*
X613613Y-4552492D01*
X610006Y-4555744D01*
X605383Y-4557674D01*
X599744Y-4558334D01*
X597306Y-4558233D01*
X592734Y-4557318D01*
X590600Y-4556556D01*
X582015Y-4548479D01*
X579170Y-4534458D01*
X579170Y-4502200D01*
G37*
G36*
X641146Y-4502200D02*
G01*
X641146Y-4574590D01*
X657402Y-4574590D01*
X657504Y-4540504D01*
X658114Y-4535932D01*
X658672Y-4533950D01*
X660552Y-4529886D01*
X663143Y-4526330D01*
X666394Y-4523282D01*
X670356Y-4520742D01*
X674776Y-4518761D01*
X679805Y-4517339D01*
X685546Y-4516475D01*
X691946Y-4516170D01*
X701090Y-4516170D01*
X701090Y-4502200D01*
X689914Y-4502200D01*
X671779Y-4504436D01*
X657402Y-4511090D01*
X657402Y-4502200D01*
G37*
G36*
X1098042Y-4644898D02*
G01*
X1095451Y-4645202D01*
X1093063Y-4646117D01*
X1090879Y-4647590D01*
X1088898Y-4649724D01*
X1087374Y-4652518D01*
X1082294Y-4670044D01*
X1068832Y-4718304D01*
X1051560Y-4645152D01*
X1034287Y-4645152D01*
X1056640Y-4740402D01*
X1058672Y-4745482D01*
X1060704Y-4748377D01*
X1062939Y-4750460D01*
X1065377Y-4751679D01*
X1068324Y-4752086D01*
X1070914Y-4751679D01*
X1073353Y-4750511D01*
X1075588Y-4748530D01*
X1077722Y-4745736D01*
X1079296Y-4742434D01*
X1080516Y-4738624D01*
X1097280Y-4678934D01*
X1110284Y-4734407D01*
X1112926Y-4743704D01*
X1114552Y-4747006D01*
X1116533Y-4749241D01*
X1118616Y-4750816D01*
X1120851Y-4751781D01*
X1123442Y-4752086D01*
X1125677Y-4751781D01*
X1127810Y-4750866D01*
X1129893Y-4749393D01*
X1131824Y-4747260D01*
X1133500Y-4744516D01*
X1134872Y-4741418D01*
X1161796Y-4645152D01*
X1144524Y-4645152D01*
X1123950Y-4718304D01*
X1108202Y-4652162D01*
X1106932Y-4649724D01*
X1105154Y-4647590D01*
X1103122Y-4646117D01*
X1100836Y-4645202D01*
G37*
G36*
X701548Y-4645152D02*
G01*
X689254Y-4646879D01*
X677164Y-4652010D01*
X667207Y-4659579D01*
X659130Y-4669536D01*
X652830Y-4683506D01*
X650748Y-4698492D01*
X652627Y-4712462D01*
X658368Y-4725924D01*
X660603Y-4729276D01*
X665581Y-4735525D01*
X669290Y-4739132D01*
X673354Y-4742434D01*
X687120Y-4749647D01*
X701548Y-4752086D01*
X749046Y-4752086D01*
X749046Y-4735576D01*
X699668Y-4735474D01*
X694232Y-4734560D01*
X691642Y-4733798D01*
X686358Y-4731258D01*
X681634Y-4727956D01*
X677468Y-4723892D01*
X673862Y-4719066D01*
X671220Y-4714036D01*
X669290Y-4708906D01*
X668121Y-4703622D01*
X667766Y-4698238D01*
X669798Y-4686046D01*
X675894Y-4674870D01*
X687882Y-4664760D01*
X702564Y-4661408D01*
X749046Y-4661408D01*
X749046Y-4645152D01*
G37*
G36*
X755142Y-4645152D02*
G01*
X755142Y-4752086D01*
X771652Y-4752086D01*
X771652Y-4645152D01*
G37*
G36*
X951484Y-4645152D02*
G01*
X951484Y-4752086D01*
X967994Y-4752086D01*
X967994Y-4723638D01*
X983284Y-4725009D01*
X996187Y-4729226D01*
X1007414Y-4738878D01*
X1011174Y-4752086D01*
X1028192Y-4752086D01*
X1028039Y-4747463D01*
X1027480Y-4743500D01*
X1026617Y-4739741D01*
X1025398Y-4736084D01*
X1018336Y-4724450D01*
X1006856Y-4716018D01*
X1009396Y-4714494D01*
X1017625Y-4708144D01*
X1023518Y-4700270D01*
X1027023Y-4690872D01*
X1028192Y-4679696D01*
X1011174Y-4679696D01*
X1008075Y-4691735D01*
X998728Y-4701032D01*
X984808Y-4706569D01*
X967994Y-4708398D01*
X967994Y-4645152D01*
G37*
G36*
X1168146Y-4645152D02*
G01*
X1168146Y-4662424D01*
X1184402Y-4662424D01*
X1184402Y-4645152D01*
G37*
G36*
X819912Y-4678172D02*
G01*
X814019Y-4678527D01*
X808228Y-4679696D01*
X802589Y-4681626D01*
X797052Y-4684268D01*
X793242Y-4686808D01*
X788924Y-4690364D01*
X785876Y-4693412D01*
X782320Y-4698593D01*
X779780Y-4704029D01*
X778256Y-4709668D01*
X777748Y-4716018D01*
X795782Y-4716018D01*
X796036Y-4712360D01*
X796848Y-4709312D01*
X798220Y-4706264D01*
X800862Y-4702403D01*
X804418Y-4699000D01*
X808126Y-4696460D01*
X811987Y-4694631D01*
X815898Y-4693513D01*
X820419Y-4693158D01*
X823468Y-4693361D01*
X826566Y-4694072D01*
X829716Y-4695139D01*
X833882Y-4697323D01*
X838200Y-4700778D01*
X841095Y-4704283D01*
X843178Y-4707890D01*
X844397Y-4711649D01*
X844803Y-4716018D01*
X844346Y-4720031D01*
X842873Y-4723942D01*
X840536Y-4727803D01*
X837184Y-4731512D01*
X833170Y-4734509D01*
X829005Y-4736642D01*
X824636Y-4737963D01*
X819912Y-4738370D01*
X816051Y-4737963D01*
X812038Y-4736846D01*
X807821Y-4734763D01*
X804164Y-4732121D01*
X800963Y-4728921D01*
X798322Y-4725162D01*
X797204Y-4722774D01*
X795934Y-4718202D01*
X795782Y-4716018D01*
X777748Y-4716018D01*
X780288Y-4729378D01*
X787908Y-4740910D01*
X791464Y-4743704D01*
X804367Y-4750358D01*
X819150Y-4752594D01*
X825449Y-4752441D01*
X829614Y-4751882D01*
X833729Y-4751019D01*
X840028Y-4748885D01*
X844194Y-4746853D01*
X847293Y-4745075D01*
X850087Y-4742942D01*
X851662Y-4741418D01*
X859840Y-4729886D01*
X862584Y-4715510D01*
X862126Y-4709922D01*
X860704Y-4704537D01*
X858316Y-4699355D01*
X854405Y-4693564D01*
X852119Y-4690973D01*
X848766Y-4688027D01*
X844296Y-4684776D01*
X838555Y-4681880D01*
X832662Y-4679797D01*
X826719Y-4678578D01*
G37*
G36*
X908050Y-4679442D02*
G01*
X890320Y-4682337D01*
X877316Y-4691126D01*
X871016Y-4702048D01*
X868934Y-4716018D01*
X871524Y-4731816D01*
X879348Y-4743196D01*
X891590Y-4749850D01*
X908050Y-4752086D01*
X945387Y-4752086D01*
X945387Y-4737100D01*
X908303Y-4737100D01*
X904697Y-4736896D01*
X901242Y-4736287D01*
X897991Y-4735220D01*
X894842Y-4733798D01*
X890625Y-4730496D01*
X887577Y-4726381D01*
X885799Y-4721453D01*
X885190Y-4715764D01*
X885596Y-4710938D01*
X886815Y-4706670D01*
X888898Y-4702962D01*
X891794Y-4699762D01*
X895400Y-4697425D01*
X899312Y-4695748D01*
X903528Y-4694783D01*
X908050Y-4694428D01*
X945387Y-4694428D01*
X945387Y-4679442D01*
G37*
G36*
X1168146Y-4679442D02*
G01*
X1168146Y-4752086D01*
X1184402Y-4752086D01*
X1184402Y-4679442D01*
G37*
G36*
X1222248Y-4679442D02*
G01*
X1216609Y-4679645D01*
X1211427Y-4680305D01*
X1206703Y-4681423D01*
X1202436Y-4682998D01*
X1197203Y-4686198D01*
X1193495Y-4690160D01*
X1191260Y-4694936D01*
X1190498Y-4701032D01*
X1191209Y-4706416D01*
X1193393Y-4711039D01*
X1197051Y-4715052D01*
X1202182Y-4718304D01*
X1205179Y-4719523D01*
X1208532Y-4720590D01*
X1211986Y-4721352D01*
X1216101Y-4721910D01*
X1220774Y-4722266D01*
X1236726Y-4722368D01*
X1240840Y-4722571D01*
X1245108Y-4723130D01*
X1248664Y-4724196D01*
X1251204Y-4725619D01*
X1252728Y-4727346D01*
X1253236Y-4729988D01*
X1252982Y-4731512D01*
X1252220Y-4733036D01*
X1250035Y-4735271D01*
X1246479Y-4736846D01*
X1241653Y-4737811D01*
X1235456Y-4738116D01*
X1192530Y-4738116D01*
X1192530Y-4752086D01*
X1236218Y-4752086D01*
X1240434Y-4751933D01*
X1244549Y-4751527D01*
X1248460Y-4750816D01*
X1252220Y-4749800D01*
X1264412Y-4742180D01*
X1268476Y-4729988D01*
X1268323Y-4727092D01*
X1267917Y-4724857D01*
X1267206Y-4722672D01*
X1266190Y-4720590D01*
X1261516Y-4715357D01*
X1254709Y-4711649D01*
X1245666Y-4709414D01*
X1234440Y-4708652D01*
X1219250Y-4708550D01*
X1214170Y-4707940D01*
X1212088Y-4707382D01*
X1209395Y-4706213D01*
X1207516Y-4704791D01*
X1206347Y-4703064D01*
X1205992Y-4700524D01*
X1206246Y-4699050D01*
X1207008Y-4697730D01*
X1209192Y-4695850D01*
X1212646Y-4694478D01*
X1217422Y-4693666D01*
X1223518Y-4693412D01*
X1266698Y-4693412D01*
X1266698Y-4679442D01*
G37*
G36*
X1314196Y-4679442D02*
G01*
X1296263Y-4682337D01*
X1283208Y-4691126D01*
X1276908Y-4702048D01*
X1275887Y-4708652D01*
X1292098Y-4708652D01*
X1293368Y-4705604D01*
X1294688Y-4703114D01*
X1297178Y-4700270D01*
X1300835Y-4697730D01*
X1304848Y-4695901D01*
X1309319Y-4694783D01*
X1314196Y-4694428D01*
X1321206Y-4694682D01*
X1324914Y-4695393D01*
X1328420Y-4696561D01*
X1331722Y-4698238D01*
X1334211Y-4700117D01*
X1336294Y-4702505D01*
X1338021Y-4705350D01*
X1339342Y-4708652D01*
X1275887Y-4708652D01*
X1274826Y-4716018D01*
X1275842Y-4726330D01*
X1278839Y-4734915D01*
X1283817Y-4741824D01*
X1290828Y-4747006D01*
X1295806Y-4749241D01*
X1301292Y-4750816D01*
X1307338Y-4751781D01*
X1313942Y-4752086D01*
X1355090Y-4752086D01*
X1355090Y-4737100D01*
X1314196Y-4737100D01*
X1310589Y-4736896D01*
X1307185Y-4736338D01*
X1303985Y-4735372D01*
X1300988Y-4734052D01*
X1298295Y-4732172D01*
X1295958Y-4729886D01*
X1294079Y-4727092D01*
X1292606Y-4723892D01*
X1356106Y-4723892D01*
X1356664Y-4720082D01*
X1356868Y-4716272D01*
X1356461Y-4709160D01*
X1355140Y-4703318D01*
X1353007Y-4697984D01*
X1350010Y-4693158D01*
X1347724Y-4690618D01*
X1344422Y-4687570D01*
X1332433Y-4681474D01*
X1317244Y-4679442D01*
G37*
G36*
X-909421Y-2414473D02*
G01*
X-914450Y-2414981D01*
X-919022Y-2416454D01*
X-923036Y-2418842D01*
X-926490Y-2422144D01*
X-929284Y-2426258D01*
X-931367Y-2431186D01*
X-932637Y-2436825D01*
X-933094Y-2443175D01*
X-926744Y-2443175D01*
X-925474Y-2433574D01*
X-921969Y-2426258D01*
X-916533Y-2421686D01*
X-909421Y-2420061D01*
X-902512Y-2421686D01*
X-897128Y-2426309D01*
X-893673Y-2433574D01*
X-892454Y-2443175D01*
X-893673Y-2452979D01*
X-897128Y-2460396D01*
X-902512Y-2465120D01*
X-909421Y-2466797D01*
X-916533Y-2465120D01*
X-921969Y-2460396D01*
X-925474Y-2452979D01*
X-926744Y-2443175D01*
X-933094Y-2443175D01*
X-932637Y-2449525D01*
X-931367Y-2455214D01*
X-929284Y-2460244D01*
X-926490Y-2464460D01*
X-923036Y-2467813D01*
X-919022Y-2470302D01*
X-914450Y-2471877D01*
X-909421Y-2472385D01*
X-904494Y-2471877D01*
X-900023Y-2470302D01*
X-896010Y-2467813D01*
X-892606Y-2464460D01*
X-889863Y-2460244D01*
X-887780Y-2455265D01*
X-886510Y-2449525D01*
X-886104Y-2443175D01*
X-886510Y-2436825D01*
X-887780Y-2431186D01*
X-889863Y-2426258D01*
X-892606Y-2422144D01*
X-896010Y-2418842D01*
X-900023Y-2416454D01*
X-904494Y-2414981D01*
G37*
G36*
X-951636Y-2415489D02*
G01*
X-951636Y-2471369D01*
X-945286Y-2471369D01*
X-945286Y-2415489D01*
G37*
G36*
X-860704Y-2415489D02*
G01*
X-865733Y-2417775D01*
X-868730Y-2418638D01*
X-872134Y-2419299D01*
X-872134Y-2423363D01*
X-862228Y-2423363D01*
X-862228Y-2466289D01*
X-874623Y-2466289D01*
X-874623Y-2471369D01*
X-844702Y-2471369D01*
X-844702Y-2466289D01*
X-856081Y-2466289D01*
X-856081Y-2415489D01*
G37*
G36*
X-831189Y-2415489D02*
G01*
X-833018Y-2441397D01*
X-829665Y-2443683D01*
X-827328Y-2442210D01*
X-825042Y-2441194D01*
X-822706Y-2440584D01*
X-820013Y-2440381D01*
X-815187Y-2441244D01*
X-811377Y-2443835D01*
X-808990Y-2448001D01*
X-808126Y-2453589D01*
X-809091Y-2459278D01*
X-811733Y-2463596D01*
X-815594Y-2466340D01*
X-820318Y-2467305D01*
X-824941Y-2466797D01*
X-828700Y-2465374D01*
X-831748Y-2463342D01*
X-834237Y-2460955D01*
X-837539Y-2465019D01*
X-834440Y-2467660D01*
X-830580Y-2470048D01*
X-825753Y-2471724D01*
X-819810Y-2472385D01*
X-813155Y-2471115D01*
X-807466Y-2467457D01*
X-803503Y-2461463D01*
X-801979Y-2453335D01*
X-803300Y-2445308D01*
X-806805Y-2439771D01*
X-812088Y-2436571D01*
X-818489Y-2435555D01*
X-821029Y-2435707D01*
X-823264Y-2436114D01*
X-825347Y-2436825D01*
X-827379Y-2437841D01*
X-825652Y-2420823D01*
X-804570Y-2420823D01*
X-804570Y-2415489D01*
G37*
G36*
X-909828Y-2514498D02*
G01*
X-914857Y-2515006D01*
X-919429Y-2516479D01*
X-923442Y-2518918D01*
X-926896Y-2522220D01*
X-929640Y-2526334D01*
X-931722Y-2531211D01*
X-932992Y-2536901D01*
X-933450Y-2543200D01*
X-927100Y-2543200D01*
X-925880Y-2533599D01*
X-922375Y-2526334D01*
X-916940Y-2521712D01*
X-909828Y-2520086D01*
X-902868Y-2521712D01*
X-897534Y-2526334D01*
X-894029Y-2533599D01*
X-892810Y-2543200D01*
X-894029Y-2553004D01*
X-897534Y-2560472D01*
X-902868Y-2565196D01*
X-909828Y-2566822D01*
X-916940Y-2565196D01*
X-922375Y-2560472D01*
X-925880Y-2553004D01*
X-927100Y-2543200D01*
X-933450Y-2543200D01*
X-932992Y-2549550D01*
X-931722Y-2555290D01*
X-929640Y-2560269D01*
X-926896Y-2564485D01*
X-923442Y-2567889D01*
X-919429Y-2570378D01*
X-914857Y-2571902D01*
X-909828Y-2572410D01*
X-904900Y-2571902D01*
X-900379Y-2570378D01*
X-896416Y-2567889D01*
X-893013Y-2564485D01*
X-890219Y-2560269D01*
X-888187Y-2555290D01*
X-886917Y-2549550D01*
X-886460Y-2543200D01*
X-886917Y-2536901D01*
X-888187Y-2531211D01*
X-890219Y-2526334D01*
X-893013Y-2522220D01*
X-896416Y-2518918D01*
X-900379Y-2516479D01*
X-904900Y-2515006D01*
G37*
G36*
X-815340Y-2514498D02*
G01*
X-819302Y-2514904D01*
X-823010Y-2516174D01*
X-826465Y-2518308D01*
X-829513Y-2521458D01*
X-832053Y-2525623D01*
X-833983Y-2530906D01*
X-835202Y-2537358D01*
X-835660Y-2544978D01*
X-835446Y-2548788D01*
X-829564Y-2548788D01*
X-826617Y-2545486D01*
X-823620Y-2543200D01*
X-820674Y-2541879D01*
X-817880Y-2541422D01*
X-813257Y-2542387D01*
X-810006Y-2545080D01*
X-808075Y-2549144D01*
X-807466Y-2554376D01*
X-808177Y-2559608D01*
X-810209Y-2563723D01*
X-813257Y-2566416D01*
X-817118Y-2567330D01*
X-822198Y-2566111D01*
X-825906Y-2562555D01*
X-828395Y-2556713D01*
X-829564Y-2548788D01*
X-835446Y-2548788D01*
X-835304Y-2551328D01*
X-834288Y-2556865D01*
X-832662Y-2561590D01*
X-830478Y-2565450D01*
X-827786Y-2568498D01*
X-824636Y-2570683D01*
X-821029Y-2572004D01*
X-817118Y-2572410D01*
X-811174Y-2571089D01*
X-806246Y-2567432D01*
X-802894Y-2561691D01*
X-801624Y-2554376D01*
X-802690Y-2546705D01*
X-805738Y-2541270D01*
X-810514Y-2537968D01*
X-816864Y-2536850D01*
X-820318Y-2537307D01*
X-823721Y-2538679D01*
X-826922Y-2540812D01*
X-829818Y-2543708D01*
X-828497Y-2532481D01*
X-825296Y-2525115D01*
X-820674Y-2521102D01*
X-815086Y-2519832D01*
X-812495Y-2520137D01*
X-810056Y-2520950D01*
X-807821Y-2522321D01*
X-805942Y-2524150D01*
X-802640Y-2520086D01*
X-805078Y-2517952D01*
X-807923Y-2516174D01*
X-811326Y-2514955D01*
G37*
G36*
X-951992Y-2515514D02*
G01*
X-951992Y-2571394D01*
X-945642Y-2571394D01*
X-945642Y-2515514D01*
G37*
G36*
X-861060Y-2515514D02*
G01*
X-863447Y-2516784D01*
X-866089Y-2517800D01*
X-869086Y-2518664D01*
X-872490Y-2519324D01*
X-872490Y-2523388D01*
X-862584Y-2523388D01*
X-862584Y-2566314D01*
X-875030Y-2566314D01*
X-875030Y-2571394D01*
X-845058Y-2571394D01*
X-845058Y-2566314D01*
X-856487Y-2566314D01*
X-856487Y-2515514D01*
G37*
G36*
X-909421Y-2614574D02*
G01*
X-914450Y-2615031D01*
X-919022Y-2616555D01*
X-923036Y-2618943D01*
X-926490Y-2622245D01*
X-929284Y-2626360D01*
X-931367Y-2631287D01*
X-932637Y-2636926D01*
X-933094Y-2643276D01*
X-926744Y-2643276D01*
X-925474Y-2633624D01*
X-921969Y-2626360D01*
X-916533Y-2621737D01*
X-909421Y-2620162D01*
X-902512Y-2621737D01*
X-897128Y-2626360D01*
X-893673Y-2633624D01*
X-892454Y-2643276D01*
X-893673Y-2653030D01*
X-897128Y-2660497D01*
X-902512Y-2665222D01*
X-909421Y-2666898D01*
X-916533Y-2665222D01*
X-921969Y-2660497D01*
X-925474Y-2653030D01*
X-926744Y-2643276D01*
X-933094Y-2643276D01*
X-932637Y-2649626D01*
X-931367Y-2655316D01*
X-929284Y-2660294D01*
X-926490Y-2664510D01*
X-923036Y-2667914D01*
X-919022Y-2670403D01*
X-914450Y-2671927D01*
X-909421Y-2672486D01*
X-904494Y-2671927D01*
X-900023Y-2670403D01*
X-896010Y-2667914D01*
X-892606Y-2664510D01*
X-889863Y-2660294D01*
X-887780Y-2655316D01*
X-886510Y-2649626D01*
X-886104Y-2643276D01*
X-886510Y-2636926D01*
X-887780Y-2631287D01*
X-889863Y-2626360D01*
X-892606Y-2622245D01*
X-896010Y-2618943D01*
X-900023Y-2616555D01*
X-904494Y-2615031D01*
G37*
G36*
X-860399Y-2614574D02*
G01*
X-864209Y-2614980D01*
X-867613Y-2616301D01*
X-870559Y-2618536D01*
X-873048Y-2621686D01*
X-875030Y-2625699D01*
X-876503Y-2630627D01*
X-877417Y-2636469D01*
X-877671Y-2643276D01*
X-871626Y-2643276D01*
X-870762Y-2632710D01*
X-868476Y-2625344D01*
X-864971Y-2621026D01*
X-860399Y-2619654D01*
X-856030Y-2621026D01*
X-852576Y-2625344D01*
X-850341Y-2632710D01*
X-849528Y-2643276D01*
X-850341Y-2654096D01*
X-852576Y-2661615D01*
X-856030Y-2665984D01*
X-860399Y-2667406D01*
X-864971Y-2665984D01*
X-868476Y-2661615D01*
X-870762Y-2654096D01*
X-871626Y-2643276D01*
X-877671Y-2643276D01*
X-877417Y-2650134D01*
X-876503Y-2656078D01*
X-875030Y-2661107D01*
X-873048Y-2665171D01*
X-870559Y-2668371D01*
X-867613Y-2670657D01*
X-864209Y-2672029D01*
X-860399Y-2672486D01*
X-856691Y-2672029D01*
X-853389Y-2670657D01*
X-850442Y-2668371D01*
X-848004Y-2665171D01*
X-846023Y-2661107D01*
X-844600Y-2656078D01*
X-843686Y-2650134D01*
X-843381Y-2643276D01*
X-843686Y-2636469D01*
X-844600Y-2630627D01*
X-846023Y-2625699D01*
X-848004Y-2621686D01*
X-850442Y-2618536D01*
X-853389Y-2616301D01*
X-856691Y-2614980D01*
G37*
G36*
X-951636Y-2615590D02*
G01*
X-951636Y-2671470D01*
X-945286Y-2671470D01*
X-945286Y-2615590D01*
G37*
G36*
X-831189Y-2615590D02*
G01*
X-833018Y-2641498D01*
X-829665Y-2643784D01*
X-827328Y-2642260D01*
X-825042Y-2641244D01*
X-822706Y-2640634D01*
X-820013Y-2640482D01*
X-815187Y-2641346D01*
X-811377Y-2643936D01*
X-808990Y-2648051D01*
X-808126Y-2653690D01*
X-809091Y-2659329D01*
X-811733Y-2663647D01*
X-815594Y-2666441D01*
X-820318Y-2667406D01*
X-824941Y-2666847D01*
X-828700Y-2665425D01*
X-831748Y-2663444D01*
X-834237Y-2661056D01*
X-837539Y-2665120D01*
X-834440Y-2667762D01*
X-830580Y-2670098D01*
X-825753Y-2671826D01*
X-819810Y-2672486D01*
X-813155Y-2671216D01*
X-807466Y-2667508D01*
X-803503Y-2661513D01*
X-801979Y-2653436D01*
X-803300Y-2645410D01*
X-806805Y-2639872D01*
X-812088Y-2636672D01*
X-818489Y-2635656D01*
X-821029Y-2635758D01*
X-823264Y-2636215D01*
X-825347Y-2636926D01*
X-827379Y-2637942D01*
X-825652Y-2620924D01*
X-804570Y-2620924D01*
X-804570Y-2615590D01*
G37*
G36*
X-909319Y-2714599D02*
G01*
X-914349Y-2715107D01*
X-918921Y-2716580D01*
X-922934Y-2718968D01*
X-926388Y-2722270D01*
X-929132Y-2726385D01*
X-931214Y-2731312D01*
X-932484Y-2736951D01*
X-932942Y-2743301D01*
X-926592Y-2743301D01*
X-925372Y-2733700D01*
X-921867Y-2726385D01*
X-916432Y-2721813D01*
X-909319Y-2720187D01*
X-902360Y-2721813D01*
X-897026Y-2726385D01*
X-893521Y-2733700D01*
X-892302Y-2743301D01*
X-893521Y-2753106D01*
X-897026Y-2760522D01*
X-902360Y-2765247D01*
X-909319Y-2766923D01*
X-916432Y-2765247D01*
X-921867Y-2760522D01*
X-925372Y-2753106D01*
X-926592Y-2743301D01*
X-932942Y-2743301D01*
X-932484Y-2749651D01*
X-931214Y-2755341D01*
X-929132Y-2760370D01*
X-926388Y-2764586D01*
X-922934Y-2767939D01*
X-918921Y-2770428D01*
X-914349Y-2771952D01*
X-909319Y-2772511D01*
X-904392Y-2771952D01*
X-899871Y-2770428D01*
X-895908Y-2767939D01*
X-892505Y-2764586D01*
X-889711Y-2760370D01*
X-887679Y-2755341D01*
X-886409Y-2749651D01*
X-885952Y-2743301D01*
X-886409Y-2736951D01*
X-887679Y-2731312D01*
X-889711Y-2726385D01*
X-892505Y-2722270D01*
X-895908Y-2718968D01*
X-899871Y-2716580D01*
X-904392Y-2715107D01*
G37*
G36*
X-862076Y-2714599D02*
G01*
X-866851Y-2715209D01*
X-871067Y-2716885D01*
X-874826Y-2719527D01*
X-878332Y-2722981D01*
X-874521Y-2726283D01*
X-872032Y-2723743D01*
X-869238Y-2721660D01*
X-866190Y-2720187D01*
X-862837Y-2719679D01*
X-858062Y-2720594D01*
X-854760Y-2723032D01*
X-852779Y-2726740D01*
X-852169Y-2731363D01*
X-852525Y-2735072D01*
X-853694Y-2738932D01*
X-855624Y-2742996D01*
X-858316Y-2747314D01*
X-861872Y-2751937D01*
X-866292Y-2756814D01*
X-871626Y-2762046D01*
X-877824Y-2767685D01*
X-877824Y-2771495D01*
X-843280Y-2771495D01*
X-843280Y-2766161D01*
X-861618Y-2766212D01*
X-868426Y-2766669D01*
X-863600Y-2761894D01*
X-859282Y-2757220D01*
X-855421Y-2752648D01*
X-852220Y-2748229D01*
X-849579Y-2743860D01*
X-847699Y-2739542D01*
X-846480Y-2735326D01*
X-846074Y-2731109D01*
X-847191Y-2724353D01*
X-850341Y-2719120D01*
X-855421Y-2715768D01*
G37*
G36*
X-819658Y-2714599D02*
G01*
X-824280Y-2715107D01*
X-828344Y-2716580D01*
X-831951Y-2718663D01*
X-835152Y-2721203D01*
X-831850Y-2725267D01*
X-829259Y-2723134D01*
X-826363Y-2721406D01*
X-823264Y-2720238D01*
X-819912Y-2719679D01*
X-815949Y-2720441D01*
X-812901Y-2722372D01*
X-810971Y-2725267D01*
X-810260Y-2729077D01*
X-811072Y-2733344D01*
X-813765Y-2736799D01*
X-818641Y-2739136D01*
X-826008Y-2739999D01*
X-826008Y-2744825D01*
X-817778Y-2745689D01*
X-812241Y-2748076D01*
X-809193Y-2751785D01*
X-808228Y-2756509D01*
X-809091Y-2760980D01*
X-811479Y-2764434D01*
X-815187Y-2766669D01*
X-819912Y-2767431D01*
X-824433Y-2766872D01*
X-828243Y-2765348D01*
X-831342Y-2763266D01*
X-833882Y-2760827D01*
X-837184Y-2764891D01*
X-834136Y-2767685D01*
X-830275Y-2770124D01*
X-825449Y-2771851D01*
X-819403Y-2772511D01*
X-812647Y-2771394D01*
X-807161Y-2768193D01*
X-803452Y-2763164D01*
X-802132Y-2756509D01*
X-803046Y-2751277D01*
X-805586Y-2747111D01*
X-809294Y-2744063D01*
X-813816Y-2742285D01*
X-813816Y-2742031D01*
X-809802Y-2740050D01*
X-806653Y-2737104D01*
X-804621Y-2733294D01*
X-803910Y-2728569D01*
X-805078Y-2722626D01*
X-808380Y-2718257D01*
X-813358Y-2715514D01*
G37*
G36*
X-951484Y-2715615D02*
G01*
X-951484Y-2771495D01*
X-945134Y-2771495D01*
X-945134Y-2715615D01*
G37*
G36*
X-909319Y-2814624D02*
G01*
X-914349Y-2815132D01*
X-918921Y-2816606D01*
X-922934Y-2819044D01*
X-926388Y-2822295D01*
X-929132Y-2826461D01*
X-931214Y-2831338D01*
X-932484Y-2836976D01*
X-932942Y-2843326D01*
X-926592Y-2843326D01*
X-925372Y-2833725D01*
X-921867Y-2826461D01*
X-916432Y-2821838D01*
X-909319Y-2820212D01*
X-902360Y-2821838D01*
X-897026Y-2826461D01*
X-893521Y-2833725D01*
X-892302Y-2843326D01*
X-893521Y-2853131D01*
X-897026Y-2860548D01*
X-902360Y-2865323D01*
X-909319Y-2866948D01*
X-916432Y-2865323D01*
X-921867Y-2860548D01*
X-925372Y-2853131D01*
X-926592Y-2843326D01*
X-932942Y-2843326D01*
X-932484Y-2849676D01*
X-931214Y-2855417D01*
X-929132Y-2860395D01*
X-926388Y-2864612D01*
X-922934Y-2867964D01*
X-918921Y-2870454D01*
X-914349Y-2872028D01*
X-909319Y-2872536D01*
X-904392Y-2872028D01*
X-899871Y-2870454D01*
X-895908Y-2867964D01*
X-892505Y-2864612D01*
X-889711Y-2860395D01*
X-887679Y-2855417D01*
X-886409Y-2849676D01*
X-885952Y-2843326D01*
X-886409Y-2836976D01*
X-887679Y-2831338D01*
X-889711Y-2826461D01*
X-892505Y-2822295D01*
X-895908Y-2819044D01*
X-899871Y-2816606D01*
X-904392Y-2815132D01*
G37*
G36*
X-819658Y-2814624D02*
G01*
X-824280Y-2815183D01*
X-828344Y-2816606D01*
X-831951Y-2818688D01*
X-835152Y-2821228D01*
X-831850Y-2825292D01*
X-829259Y-2823159D01*
X-826363Y-2821432D01*
X-823264Y-2820263D01*
X-819912Y-2819704D01*
X-815949Y-2820517D01*
X-812901Y-2822397D01*
X-810971Y-2825292D01*
X-810260Y-2829102D01*
X-811072Y-2833370D01*
X-813765Y-2836875D01*
X-818641Y-2839161D01*
X-826008Y-2840024D01*
X-826008Y-2844850D01*
X-817778Y-2845714D01*
X-812241Y-2848102D01*
X-809193Y-2851810D01*
X-808228Y-2856534D01*
X-809091Y-2861056D01*
X-811479Y-2864459D01*
X-815187Y-2866694D01*
X-819912Y-2867456D01*
X-824433Y-2866898D01*
X-828243Y-2865374D01*
X-831342Y-2863291D01*
X-833882Y-2860852D01*
X-837184Y-2864916D01*
X-834136Y-2867710D01*
X-830275Y-2870149D01*
X-825449Y-2871876D01*
X-819403Y-2872536D01*
X-812647Y-2871419D01*
X-807161Y-2868269D01*
X-803452Y-2863240D01*
X-802132Y-2856534D01*
X-803046Y-2851302D01*
X-805586Y-2847136D01*
X-809294Y-2844088D01*
X-813816Y-2842310D01*
X-813816Y-2842056D01*
X-809802Y-2840075D01*
X-806653Y-2837129D01*
X-804621Y-2833319D01*
X-803910Y-2828594D01*
X-805078Y-2822651D01*
X-808380Y-2818282D01*
X-813358Y-2815539D01*
G37*
G36*
X-951484Y-2815640D02*
G01*
X-951484Y-2871520D01*
X-945134Y-2871520D01*
X-945134Y-2815640D01*
G37*
G36*
X-860552Y-2815640D02*
G01*
X-865581Y-2817926D01*
X-868578Y-2818790D01*
X-871982Y-2819450D01*
X-871982Y-2823514D01*
X-862076Y-2823514D01*
X-862076Y-2866440D01*
X-874521Y-2866440D01*
X-874521Y-2871520D01*
X-844550Y-2871520D01*
X-844550Y-2866440D01*
X-855980Y-2866440D01*
X-855980Y-2815640D01*
G37*
G36*
X-910336Y-2914650D02*
G01*
X-915365Y-2915158D01*
X-919937Y-2916631D01*
X-923950Y-2919069D01*
X-927404Y-2922371D01*
X-930148Y-2926486D01*
X-932230Y-2931363D01*
X-933500Y-2937052D01*
X-933958Y-2943352D01*
X-927608Y-2943352D01*
X-926388Y-2933750D01*
X-922883Y-2926486D01*
X-917448Y-2921863D01*
X-910336Y-2920238D01*
X-903376Y-2921863D01*
X-897991Y-2926486D01*
X-894537Y-2933750D01*
X-893318Y-2943352D01*
X-894537Y-2953156D01*
X-897991Y-2960624D01*
X-903376Y-2965348D01*
X-910336Y-2966974D01*
X-917448Y-2965348D01*
X-922883Y-2960624D01*
X-926388Y-2953156D01*
X-927608Y-2943352D01*
X-933958Y-2943352D01*
X-933500Y-2949752D01*
X-932230Y-2955442D01*
X-930148Y-2960420D01*
X-927404Y-2964637D01*
X-923950Y-2968040D01*
X-919937Y-2970530D01*
X-915365Y-2972054D01*
X-910336Y-2972562D01*
X-905408Y-2972054D01*
X-900887Y-2970530D01*
X-896924Y-2968040D01*
X-893521Y-2964637D01*
X-890727Y-2960420D01*
X-888695Y-2955442D01*
X-887425Y-2949752D01*
X-886968Y-2943352D01*
X-887425Y-2937052D01*
X-888695Y-2931363D01*
X-890727Y-2926486D01*
X-893521Y-2922371D01*
X-896924Y-2919069D01*
X-900887Y-2916631D01*
X-905408Y-2915158D01*
G37*
G36*
X-952500Y-2915666D02*
G01*
X-952500Y-2971546D01*
X-946150Y-2971546D01*
X-946150Y-2915666D01*
G37*
G36*
X-861568Y-2915666D02*
G01*
X-863955Y-2916936D01*
X-866597Y-2917952D01*
X-869594Y-2918815D01*
X-872998Y-2919476D01*
X-872998Y-2923540D01*
X-863092Y-2923540D01*
X-863092Y-2966466D01*
X-875537Y-2966466D01*
X-875537Y-2971546D01*
X-845566Y-2971546D01*
X-845566Y-2966466D01*
X-856996Y-2966466D01*
X-856996Y-2915666D01*
G37*
G36*
X-815340Y-2915666D02*
G01*
X-838301Y-2950972D01*
X-832358Y-2950972D01*
X-818896Y-2931160D01*
X-814578Y-2923032D01*
X-814069Y-2923032D01*
X-814578Y-2932938D01*
X-814578Y-2950972D01*
X-838301Y-2950972D01*
X-838962Y-2951988D01*
X-838962Y-2956052D01*
X-814578Y-2956052D01*
X-814578Y-2971546D01*
X-808736Y-2971546D01*
X-808736Y-2956052D01*
X-801116Y-2956052D01*
X-801116Y-2950972D01*
X-808736Y-2950972D01*
X-808736Y-2915666D01*
G37*
G36*
X-909828Y-3014726D02*
G01*
X-914857Y-3015234D01*
X-919429Y-3016707D01*
X-923442Y-3019094D01*
X-926896Y-3022396D01*
X-929640Y-3026511D01*
X-931722Y-3031439D01*
X-932992Y-3037078D01*
X-933450Y-3043428D01*
X-927100Y-3043428D01*
X-925880Y-3033776D01*
X-922375Y-3026511D01*
X-916940Y-3021888D01*
X-909828Y-3020314D01*
X-902868Y-3021888D01*
X-897534Y-3026511D01*
X-894029Y-3033776D01*
X-892810Y-3043428D01*
X-894029Y-3053232D01*
X-897534Y-3060649D01*
X-902868Y-3065373D01*
X-909828Y-3067050D01*
X-916940Y-3065373D01*
X-922375Y-3060649D01*
X-925880Y-3053232D01*
X-927100Y-3043428D01*
X-933450Y-3043428D01*
X-932992Y-3049778D01*
X-931722Y-3055467D01*
X-929640Y-3060446D01*
X-926896Y-3064662D01*
X-923442Y-3068066D01*
X-919429Y-3070555D01*
X-914857Y-3072079D01*
X-909828Y-3072638D01*
X-904900Y-3072079D01*
X-900379Y-3070555D01*
X-896416Y-3068066D01*
X-893013Y-3064662D01*
X-890219Y-3060446D01*
X-888187Y-3055467D01*
X-886917Y-3049778D01*
X-886460Y-3043428D01*
X-886917Y-3037078D01*
X-888187Y-3031439D01*
X-890219Y-3026511D01*
X-893013Y-3022396D01*
X-896416Y-3019094D01*
X-900379Y-3016707D01*
X-904900Y-3015234D01*
G37*
G36*
X-862584Y-3014726D02*
G01*
X-867359Y-3015284D01*
X-871575Y-3017012D01*
X-875334Y-3019653D01*
X-878840Y-3023108D01*
X-875030Y-3026410D01*
X-872540Y-3023870D01*
X-869746Y-3021736D01*
X-866698Y-3020314D01*
X-863346Y-3019806D01*
X-858570Y-3020669D01*
X-855268Y-3023158D01*
X-853287Y-3026867D01*
X-852678Y-3031490D01*
X-853033Y-3035147D01*
X-854202Y-3039059D01*
X-856132Y-3043123D01*
X-858824Y-3047441D01*
X-862380Y-3052013D01*
X-866800Y-3056940D01*
X-872134Y-3062173D01*
X-878332Y-3067812D01*
X-878332Y-3071622D01*
X-843787Y-3071622D01*
X-843787Y-3066288D01*
X-862126Y-3066338D01*
X-868934Y-3066796D01*
X-859790Y-3057347D01*
X-855929Y-3052775D01*
X-852728Y-3048355D01*
X-850087Y-3043986D01*
X-848207Y-3039668D01*
X-846988Y-3035401D01*
X-846582Y-3031236D01*
X-847699Y-3024479D01*
X-850849Y-3019247D01*
X-855929Y-3015894D01*
G37*
G36*
X-951992Y-3015742D02*
G01*
X-951992Y-3071622D01*
X-945642Y-3071622D01*
X-945642Y-3015742D01*
G37*
G36*
X-836168Y-3015742D02*
G01*
X-836168Y-3021076D01*
X-808990Y-3021076D01*
X-812749Y-3026714D01*
X-815898Y-3032353D01*
X-818489Y-3038043D01*
X-820572Y-3043936D01*
X-822198Y-3050133D01*
X-823366Y-3056737D01*
X-824230Y-3063849D01*
X-824737Y-3071622D01*
X-818388Y-3071622D01*
X-817930Y-3063798D01*
X-817219Y-3056636D01*
X-816102Y-3050032D01*
X-814578Y-3043783D01*
X-812444Y-3037738D01*
X-809650Y-3031794D01*
X-806094Y-3025749D01*
X-801624Y-3019552D01*
X-801624Y-3015742D01*
G37*
G36*
X-909421Y-3114751D02*
G01*
X-914450Y-3115259D01*
X-919022Y-3116732D01*
X-923036Y-3119170D01*
X-926490Y-3122422D01*
X-929284Y-3126536D01*
X-931367Y-3131464D01*
X-932637Y-3137103D01*
X-933094Y-3143453D01*
X-926744Y-3143453D01*
X-925474Y-3133852D01*
X-921969Y-3126587D01*
X-916533Y-3121964D01*
X-909421Y-3120339D01*
X-902512Y-3121964D01*
X-897128Y-3126587D01*
X-893673Y-3133852D01*
X-892454Y-3143453D01*
X-893673Y-3153257D01*
X-897128Y-3160674D01*
X-902512Y-3165398D01*
X-909421Y-3167075D01*
X-916533Y-3165398D01*
X-921969Y-3160674D01*
X-925474Y-3153257D01*
X-926744Y-3143453D01*
X-933094Y-3143453D01*
X-932637Y-3149803D01*
X-931367Y-3155543D01*
X-929284Y-3160522D01*
X-926490Y-3164738D01*
X-923036Y-3168091D01*
X-919022Y-3170580D01*
X-914450Y-3172155D01*
X-909421Y-3172663D01*
X-904494Y-3172155D01*
X-900023Y-3170580D01*
X-896010Y-3168091D01*
X-892606Y-3164738D01*
X-889863Y-3160522D01*
X-887780Y-3155543D01*
X-886510Y-3149803D01*
X-886104Y-3143453D01*
X-886510Y-3137103D01*
X-887780Y-3131464D01*
X-889863Y-3126536D01*
X-892606Y-3122422D01*
X-896010Y-3119170D01*
X-900023Y-3116732D01*
X-904494Y-3115259D01*
G37*
G36*
X-862228Y-3114751D02*
G01*
X-867003Y-3115360D01*
X-871169Y-3117037D01*
X-874979Y-3119678D01*
X-878484Y-3123133D01*
X-874623Y-3126435D01*
X-872185Y-3123895D01*
X-869391Y-3121812D01*
X-866292Y-3120390D01*
X-862939Y-3119831D01*
X-858215Y-3120745D01*
X-854862Y-3123184D01*
X-852932Y-3126892D01*
X-852271Y-3131515D01*
X-852678Y-3135223D01*
X-853795Y-3139084D01*
X-855726Y-3143148D01*
X-858469Y-3147466D01*
X-862025Y-3152089D01*
X-866444Y-3156966D01*
X-871728Y-3162249D01*
X-877976Y-3167837D01*
X-877976Y-3171647D01*
X-843381Y-3171647D01*
X-843381Y-3166313D01*
X-861720Y-3166364D01*
X-868578Y-3166821D01*
X-863752Y-3162046D01*
X-859383Y-3157372D01*
X-855573Y-3152851D01*
X-852322Y-3148380D01*
X-849731Y-3144012D01*
X-847801Y-3139694D01*
X-846632Y-3135477D01*
X-846226Y-3131261D01*
X-847293Y-3124504D01*
X-850493Y-3119272D01*
X-855522Y-3115919D01*
G37*
G36*
X-951636Y-3115767D02*
G01*
X-951636Y-3171647D01*
X-945286Y-3171647D01*
X-945286Y-3115767D01*
G37*
G36*
X-831189Y-3115767D02*
G01*
X-833018Y-3141675D01*
X-829665Y-3143961D01*
X-827328Y-3142488D01*
X-825042Y-3141472D01*
X-822706Y-3140862D01*
X-820013Y-3140659D01*
X-815187Y-3141522D01*
X-811377Y-3144113D01*
X-808990Y-3148279D01*
X-808126Y-3153867D01*
X-809091Y-3159556D01*
X-811733Y-3163874D01*
X-815594Y-3166618D01*
X-820318Y-3167583D01*
X-824941Y-3167075D01*
X-828700Y-3165652D01*
X-831748Y-3163620D01*
X-834237Y-3161233D01*
X-837539Y-3165297D01*
X-834440Y-3167938D01*
X-830580Y-3170326D01*
X-825753Y-3172002D01*
X-819810Y-3172663D01*
X-813155Y-3171393D01*
X-807466Y-3167735D01*
X-803503Y-3161741D01*
X-801979Y-3153613D01*
X-803300Y-3145586D01*
X-806805Y-3140049D01*
X-812088Y-3136849D01*
X-818489Y-3135833D01*
X-821029Y-3135985D01*
X-823264Y-3136392D01*
X-825347Y-3137103D01*
X-827379Y-3138119D01*
X-825652Y-3121101D01*
X-804570Y-3121101D01*
X-804570Y-3115767D01*
G37*
G36*
X-926592Y-3214776D02*
G01*
X-931926Y-3215335D01*
X-936752Y-3216808D01*
X-941019Y-3219246D01*
X-944676Y-3222599D01*
X-947674Y-3226765D01*
X-949858Y-3231743D01*
X-951280Y-3237382D01*
X-951737Y-3243732D01*
X-951280Y-3250184D01*
X-949909Y-3255873D01*
X-947775Y-3260852D01*
X-944829Y-3265017D01*
X-941273Y-3268319D01*
X-937056Y-3270707D01*
X-932332Y-3272180D01*
X-927100Y-3272688D01*
X-921664Y-3272231D01*
X-916940Y-3270859D01*
X-912977Y-3268827D01*
X-909828Y-3266338D01*
X-909828Y-3243224D01*
X-927862Y-3243224D01*
X-927862Y-3248304D01*
X-915669Y-3248304D01*
X-915669Y-3263544D01*
X-917752Y-3265068D01*
X-920343Y-3266186D01*
X-923290Y-3266897D01*
X-926337Y-3267100D01*
X-934466Y-3265474D01*
X-940409Y-3260750D01*
X-944118Y-3253384D01*
X-945387Y-3243732D01*
X-944067Y-3233978D01*
X-940257Y-3226663D01*
X-934262Y-3221990D01*
X-926337Y-3220364D01*
X-922375Y-3220821D01*
X-919073Y-3221990D01*
X-916432Y-3223717D01*
X-914146Y-3225698D01*
X-910590Y-3221634D01*
X-913384Y-3219196D01*
X-916889Y-3217011D01*
X-921258Y-3215386D01*
G37*
G36*
X-896366Y-3215792D02*
G01*
X-896366Y-3271672D01*
X-890524Y-3271672D01*
X-890625Y-3236874D01*
X-891286Y-3224174D01*
X-890778Y-3224174D01*
X-884682Y-3235604D01*
X-863853Y-3271672D01*
X-857250Y-3271672D01*
X-857250Y-3215792D01*
X-863346Y-3215792D01*
X-863244Y-3250438D01*
X-862330Y-3263544D01*
X-862837Y-3263544D01*
X-868934Y-3252114D01*
X-890016Y-3215792D01*
G37*
G36*
X-841756Y-3215792D02*
G01*
X-841756Y-3221126D01*
X-828548Y-3221126D01*
X-823772Y-3221532D01*
X-819607Y-3222650D01*
X-816152Y-3224479D01*
X-813358Y-3226968D01*
X-811225Y-3230168D01*
X-809701Y-3234029D01*
X-808786Y-3238449D01*
X-808482Y-3243478D01*
X-808786Y-3248558D01*
X-809701Y-3253130D01*
X-811225Y-3257042D01*
X-813358Y-3260394D01*
X-816152Y-3263036D01*
X-819607Y-3265017D01*
X-823772Y-3266186D01*
X-828548Y-3266592D01*
X-835406Y-3266592D01*
X-835406Y-3221126D01*
X-841756Y-3221126D01*
X-841756Y-3271672D01*
X-827786Y-3271672D01*
X-821791Y-3271215D01*
X-816559Y-3269742D01*
X-812088Y-3267405D01*
X-808431Y-3264153D01*
X-805586Y-3260140D01*
X-803554Y-3255314D01*
X-802284Y-3249726D01*
X-801878Y-3243478D01*
X-802284Y-3237280D01*
X-803554Y-3231794D01*
X-805586Y-3227019D01*
X-808482Y-3223107D01*
X-812190Y-3219958D01*
X-816660Y-3217672D01*
X-821944Y-3216300D01*
X-828040Y-3215792D01*
G37*
G36*
X-909828Y-3314852D02*
G01*
X-914857Y-3315360D01*
X-919429Y-3316833D01*
X-923442Y-3319221D01*
X-926896Y-3322523D01*
X-929640Y-3326637D01*
X-931722Y-3331565D01*
X-932992Y-3337204D01*
X-933450Y-3343554D01*
X-927100Y-3343554D01*
X-925880Y-3333953D01*
X-922375Y-3326637D01*
X-916940Y-3322065D01*
X-909828Y-3320440D01*
X-902868Y-3322065D01*
X-897534Y-3326637D01*
X-894029Y-3333953D01*
X-892810Y-3343554D01*
X-894029Y-3353358D01*
X-897534Y-3360775D01*
X-902868Y-3365500D01*
X-909828Y-3367176D01*
X-916940Y-3365500D01*
X-922375Y-3360775D01*
X-925880Y-3353358D01*
X-927100Y-3343554D01*
X-933450Y-3343554D01*
X-932992Y-3349904D01*
X-931722Y-3355594D01*
X-929640Y-3360623D01*
X-926896Y-3364839D01*
X-923442Y-3368192D01*
X-919429Y-3370681D01*
X-914857Y-3372205D01*
X-909828Y-3372764D01*
X-904900Y-3372205D01*
X-900379Y-3370681D01*
X-896416Y-3368192D01*
X-893013Y-3364839D01*
X-890219Y-3360623D01*
X-888187Y-3355594D01*
X-886917Y-3349904D01*
X-886460Y-3343554D01*
X-886917Y-3337204D01*
X-888187Y-3331565D01*
X-890219Y-3326637D01*
X-893013Y-3322523D01*
X-896416Y-3319221D01*
X-900379Y-3316833D01*
X-904900Y-3315360D01*
G37*
G36*
X-862584Y-3314852D02*
G01*
X-867359Y-3315462D01*
X-871575Y-3317138D01*
X-875334Y-3319779D01*
X-878840Y-3323234D01*
X-875030Y-3326536D01*
X-872540Y-3323996D01*
X-869746Y-3321913D01*
X-866648Y-3320440D01*
X-863346Y-3319932D01*
X-858570Y-3320846D01*
X-855268Y-3323285D01*
X-853287Y-3326993D01*
X-852678Y-3331616D01*
X-853033Y-3335324D01*
X-854202Y-3339185D01*
X-856081Y-3343249D01*
X-858824Y-3347567D01*
X-862380Y-3352190D01*
X-866800Y-3357067D01*
X-872134Y-3362299D01*
X-878332Y-3367938D01*
X-878332Y-3371748D01*
X-843787Y-3371748D01*
X-843787Y-3366414D01*
X-862126Y-3366465D01*
X-868934Y-3366922D01*
X-864108Y-3362147D01*
X-859739Y-3357473D01*
X-855929Y-3352901D01*
X-852728Y-3348482D01*
X-850087Y-3344113D01*
X-848156Y-3339795D01*
X-846988Y-3335578D01*
X-846582Y-3331362D01*
X-847699Y-3324606D01*
X-850849Y-3319373D01*
X-855929Y-3316020D01*
G37*
G36*
X-815340Y-3314852D02*
G01*
X-819251Y-3315258D01*
X-823010Y-3316478D01*
X-826465Y-3318662D01*
X-829513Y-3321812D01*
X-832053Y-3325977D01*
X-833983Y-3331260D01*
X-835202Y-3337661D01*
X-835660Y-3345332D01*
X-835446Y-3349142D01*
X-829564Y-3349142D01*
X-826617Y-3345840D01*
X-823620Y-3343554D01*
X-820674Y-3342182D01*
X-817880Y-3341776D01*
X-813257Y-3342741D01*
X-810006Y-3345383D01*
X-808075Y-3349498D01*
X-807466Y-3354730D01*
X-808177Y-3359962D01*
X-810209Y-3364077D01*
X-813257Y-3366719D01*
X-817118Y-3367684D01*
X-822147Y-3366465D01*
X-825906Y-3362858D01*
X-828344Y-3357067D01*
X-829564Y-3349142D01*
X-835446Y-3349142D01*
X-835304Y-3351682D01*
X-834288Y-3357219D01*
X-832662Y-3361944D01*
X-830478Y-3365804D01*
X-827786Y-3368852D01*
X-824636Y-3370986D01*
X-821029Y-3372307D01*
X-817118Y-3372764D01*
X-811174Y-3371443D01*
X-806246Y-3367735D01*
X-802843Y-3362045D01*
X-801624Y-3354730D01*
X-802690Y-3347059D01*
X-805738Y-3341573D01*
X-810514Y-3338271D01*
X-816864Y-3337204D01*
X-820318Y-3337661D01*
X-823721Y-3338982D01*
X-826922Y-3341166D01*
X-829818Y-3344062D01*
X-828497Y-3332835D01*
X-825296Y-3325469D01*
X-820674Y-3321405D01*
X-815086Y-3320186D01*
X-812495Y-3320440D01*
X-810056Y-3321304D01*
X-807821Y-3322624D01*
X-805942Y-3324504D01*
X-802640Y-3320440D01*
X-805078Y-3318256D01*
X-807923Y-3316478D01*
X-811326Y-3315309D01*
G37*
G36*
X-951992Y-3315868D02*
G01*
X-951992Y-3371748D01*
X-945642Y-3371748D01*
X-945642Y-3315868D01*
G37*
G36*
X-909574Y-3414877D02*
G01*
X-914603Y-3415385D01*
X-919175Y-3416858D01*
X-923188Y-3419297D01*
X-926642Y-3422548D01*
X-929386Y-3426714D01*
X-931468Y-3431590D01*
X-932738Y-3437229D01*
X-933196Y-3443579D01*
X-926846Y-3443579D01*
X-925626Y-3433978D01*
X-922121Y-3426714D01*
X-916686Y-3422091D01*
X-909574Y-3420465D01*
X-902614Y-3422091D01*
X-897229Y-3426714D01*
X-893775Y-3433978D01*
X-892556Y-3443579D01*
X-893775Y-3453384D01*
X-897280Y-3460851D01*
X-902614Y-3465576D01*
X-909574Y-3467201D01*
X-916686Y-3465576D01*
X-922121Y-3460851D01*
X-925626Y-3453384D01*
X-926846Y-3443579D01*
X-933196Y-3443579D01*
X-932738Y-3449929D01*
X-931468Y-3455670D01*
X-929386Y-3460648D01*
X-926642Y-3464864D01*
X-923188Y-3468268D01*
X-919175Y-3470757D01*
X-914603Y-3472281D01*
X-909574Y-3472789D01*
X-904646Y-3472281D01*
X-900125Y-3470757D01*
X-896162Y-3468268D01*
X-892759Y-3464864D01*
X-889965Y-3460648D01*
X-887933Y-3455670D01*
X-886663Y-3449929D01*
X-886206Y-3443579D01*
X-886663Y-3437229D01*
X-887933Y-3431590D01*
X-889965Y-3426714D01*
X-892759Y-3422548D01*
X-896162Y-3419297D01*
X-900125Y-3416858D01*
X-904646Y-3415385D01*
G37*
G36*
X-820419Y-3414877D02*
G01*
X-825296Y-3415487D01*
X-829513Y-3417163D01*
X-833221Y-3419805D01*
X-836676Y-3423259D01*
X-833119Y-3426561D01*
X-830529Y-3424021D01*
X-827633Y-3421938D01*
X-824534Y-3420516D01*
X-821182Y-3419957D01*
X-816406Y-3420872D01*
X-813104Y-3423310D01*
X-811123Y-3427018D01*
X-810514Y-3431641D01*
X-810869Y-3435350D01*
X-812038Y-3439210D01*
X-813968Y-3443325D01*
X-816711Y-3447643D01*
X-820318Y-3452215D01*
X-824788Y-3457143D01*
X-830122Y-3462375D01*
X-836421Y-3467963D01*
X-836421Y-3471773D01*
X-801878Y-3471773D01*
X-801878Y-3466439D01*
X-820064Y-3466490D01*
X-827024Y-3466947D01*
X-822096Y-3462172D01*
X-817727Y-3457498D01*
X-813866Y-3452977D01*
X-810564Y-3448507D01*
X-807974Y-3444138D01*
X-806043Y-3439871D01*
X-804824Y-3435604D01*
X-804418Y-3431387D01*
X-805535Y-3424631D01*
X-808685Y-3419449D01*
X-813765Y-3416096D01*
G37*
G36*
X-951737Y-3415893D02*
G01*
X-951737Y-3471773D01*
X-945387Y-3471773D01*
X-945387Y-3415893D01*
G37*
G36*
X-860806Y-3415893D02*
G01*
X-863193Y-3417163D01*
X-865835Y-3418179D01*
X-868832Y-3419043D01*
X-872236Y-3419703D01*
X-872236Y-3423767D01*
X-862330Y-3423767D01*
X-862330Y-3466693D01*
X-874776Y-3466693D01*
X-874776Y-3471773D01*
X-844803Y-3471773D01*
X-844803Y-3466693D01*
X-856234Y-3466693D01*
X-856234Y-3415893D01*
G37*
G36*
X-955192Y-3514953D02*
G01*
X-955192Y-3520287D01*
X-940663Y-3520287D01*
X-934008Y-3520795D01*
X-929284Y-3522573D01*
X-926388Y-3525926D01*
X-925423Y-3531209D01*
X-926337Y-3536594D01*
X-929132Y-3540302D01*
X-933805Y-3542436D01*
X-940460Y-3543147D01*
X-948842Y-3543147D01*
X-948842Y-3520287D01*
X-955192Y-3520287D01*
X-955192Y-3570833D01*
X-948842Y-3570833D01*
X-948842Y-3548227D01*
X-939444Y-3548227D01*
X-931113Y-3547211D01*
X-924712Y-3544062D01*
X-920546Y-3538778D01*
X-919073Y-3531209D01*
X-920546Y-3523640D01*
X-924763Y-3518611D01*
X-931316Y-3515817D01*
X-939952Y-3514953D01*
G37*
G36*
X-907694Y-3514953D02*
G01*
X-907694Y-3570833D01*
X-901344Y-3570833D01*
X-901344Y-3514953D01*
G37*
G36*
X-885799Y-3514953D02*
G01*
X-885799Y-3570833D01*
X-879754Y-3570833D01*
X-879805Y-3535984D01*
X-880465Y-3523335D01*
X-880262Y-3523335D01*
X-874115Y-3534765D01*
X-853084Y-3570833D01*
X-846429Y-3570833D01*
X-846429Y-3514953D01*
X-852576Y-3514953D01*
X-852474Y-3549599D01*
X-851763Y-3562705D01*
X-852068Y-3562705D01*
X-858113Y-3551275D01*
X-879195Y-3514953D01*
G37*
G36*
X-830986Y-3514953D02*
G01*
X-830986Y-3570833D01*
X-798423Y-3570833D01*
X-798423Y-3565499D01*
X-824636Y-3565499D01*
X-824636Y-3544163D01*
X-803249Y-3544163D01*
X-803249Y-3538829D01*
X-824636Y-3538829D01*
X-824636Y-3520287D01*
X-799236Y-3520287D01*
X-799236Y-3514953D01*
G37*
G36*
X-909421Y-3612946D02*
G01*
X-914450Y-3613454D01*
X-919022Y-3614928D01*
X-923036Y-3617315D01*
X-926490Y-3620617D01*
X-929284Y-3624732D01*
X-931367Y-3629660D01*
X-932637Y-3635298D01*
X-933094Y-3641648D01*
X-926744Y-3641648D01*
X-925474Y-3632047D01*
X-921969Y-3624732D01*
X-916533Y-3620160D01*
X-909421Y-3618534D01*
X-902512Y-3620160D01*
X-897128Y-3624732D01*
X-893673Y-3632047D01*
X-892454Y-3641648D01*
X-893673Y-3651453D01*
X-897128Y-3658870D01*
X-902512Y-3663594D01*
X-909421Y-3665270D01*
X-916533Y-3663594D01*
X-921969Y-3658870D01*
X-925474Y-3651453D01*
X-926744Y-3641648D01*
X-933094Y-3641648D01*
X-932637Y-3647998D01*
X-931367Y-3653688D01*
X-929284Y-3658717D01*
X-926490Y-3662934D01*
X-923036Y-3666286D01*
X-919022Y-3668776D01*
X-914450Y-3670350D01*
X-909421Y-3670858D01*
X-904494Y-3670350D01*
X-900023Y-3668776D01*
X-896010Y-3666286D01*
X-892606Y-3662934D01*
X-889863Y-3658717D01*
X-887780Y-3653688D01*
X-886510Y-3647998D01*
X-886104Y-3641648D01*
X-886510Y-3635298D01*
X-887780Y-3629660D01*
X-889863Y-3624732D01*
X-892606Y-3620617D01*
X-896010Y-3617315D01*
X-900023Y-3614928D01*
X-904494Y-3613454D01*
G37*
G36*
X-820521Y-3612946D02*
G01*
X-826566Y-3614267D01*
X-831545Y-3617976D01*
X-834999Y-3623665D01*
X-836320Y-3630980D01*
X-830173Y-3630980D01*
X-829462Y-3625748D01*
X-827481Y-3621633D01*
X-824433Y-3618992D01*
X-820521Y-3618026D01*
X-815441Y-3619246D01*
X-811631Y-3622801D01*
X-809091Y-3628542D01*
X-807821Y-3636314D01*
X-810768Y-3639769D01*
X-813866Y-3642106D01*
X-816965Y-3643477D01*
X-820013Y-3643934D01*
X-824534Y-3643020D01*
X-827684Y-3640429D01*
X-829564Y-3636314D01*
X-830173Y-3630980D01*
X-836320Y-3630980D01*
X-835202Y-3638651D01*
X-832103Y-3644137D01*
X-827278Y-3647389D01*
X-821029Y-3648506D01*
X-817372Y-3647998D01*
X-813866Y-3646576D01*
X-810717Y-3644341D01*
X-807821Y-3641394D01*
X-809294Y-3652824D01*
X-812495Y-3660343D01*
X-816914Y-3664508D01*
X-822045Y-3665778D01*
X-824839Y-3665474D01*
X-827379Y-3664559D01*
X-829665Y-3663086D01*
X-831697Y-3661206D01*
X-834999Y-3665270D01*
X-832561Y-3667556D01*
X-829614Y-3669284D01*
X-826109Y-3670452D01*
X-822045Y-3670858D01*
X-818235Y-3670452D01*
X-814527Y-3669131D01*
X-811123Y-3666896D01*
X-808126Y-3663696D01*
X-805586Y-3659378D01*
X-803656Y-3653942D01*
X-802436Y-3647287D01*
X-801979Y-3639362D01*
X-802335Y-3633215D01*
X-803351Y-3627831D01*
X-804976Y-3623310D01*
X-807161Y-3619601D01*
X-809904Y-3616706D01*
X-813053Y-3614623D01*
X-816610Y-3613353D01*
G37*
G36*
X-951636Y-3613962D02*
G01*
X-951636Y-3669842D01*
X-945286Y-3669842D01*
X-945286Y-3613962D01*
G37*
G36*
X-860704Y-3613962D02*
G01*
X-865733Y-3616248D01*
X-868730Y-3617112D01*
X-872134Y-3617772D01*
X-872134Y-3621836D01*
X-862228Y-3621836D01*
X-862228Y-3664762D01*
X-874623Y-3664762D01*
X-874623Y-3669842D01*
X-844702Y-3669842D01*
X-844702Y-3664762D01*
X-856081Y-3664762D01*
X-856081Y-3613962D01*
G37*
G36*
X-909828Y-3712972D02*
G01*
X-914857Y-3713479D01*
X-919429Y-3715004D01*
X-923442Y-3717391D01*
X-926896Y-3720693D01*
X-929640Y-3724808D01*
X-931722Y-3729736D01*
X-932992Y-3735374D01*
X-933450Y-3741674D01*
X-927100Y-3741674D01*
X-925880Y-3732072D01*
X-922375Y-3724808D01*
X-916940Y-3720185D01*
X-909828Y-3718560D01*
X-902868Y-3720185D01*
X-897534Y-3724808D01*
X-894029Y-3732072D01*
X-892810Y-3741674D01*
X-894029Y-3751478D01*
X-897534Y-3758946D01*
X-902868Y-3763670D01*
X-909828Y-3765296D01*
X-916940Y-3763670D01*
X-922375Y-3758946D01*
X-925880Y-3751478D01*
X-927100Y-3741674D01*
X-933450Y-3741674D01*
X-932992Y-3748074D01*
X-931722Y-3753764D01*
X-929640Y-3758742D01*
X-926896Y-3762959D01*
X-923442Y-3766362D01*
X-919429Y-3768851D01*
X-914857Y-3770376D01*
X-909828Y-3770884D01*
X-904900Y-3770376D01*
X-900379Y-3768851D01*
X-896416Y-3766362D01*
X-893013Y-3762959D01*
X-890219Y-3758742D01*
X-888187Y-3753764D01*
X-886917Y-3748074D01*
X-886460Y-3741674D01*
X-886917Y-3735374D01*
X-888187Y-3729736D01*
X-890219Y-3724808D01*
X-893013Y-3720693D01*
X-896416Y-3717391D01*
X-900379Y-3715004D01*
X-904900Y-3713479D01*
G37*
G36*
X-951992Y-3713987D02*
G01*
X-951992Y-3769868D01*
X-945642Y-3769868D01*
X-945642Y-3713987D01*
G37*
G36*
X-861060Y-3713987D02*
G01*
X-863447Y-3715258D01*
X-866089Y-3716274D01*
X-869086Y-3717137D01*
X-872490Y-3717798D01*
X-872490Y-3721862D01*
X-862584Y-3721862D01*
X-862584Y-3764787D01*
X-875030Y-3764787D01*
X-875030Y-3769868D01*
X-845058Y-3769868D01*
X-845058Y-3764787D01*
X-856487Y-3764787D01*
X-856487Y-3713987D01*
G37*
G36*
X-836168Y-3713987D02*
G01*
X-836168Y-3719322D01*
X-808990Y-3719322D01*
X-812749Y-3725011D01*
X-815898Y-3730650D01*
X-818489Y-3736340D01*
X-820572Y-3742232D01*
X-822198Y-3748430D01*
X-823366Y-3755034D01*
X-824230Y-3762146D01*
X-824737Y-3769868D01*
X-818388Y-3769868D01*
X-817930Y-3762095D01*
X-817219Y-3754932D01*
X-816102Y-3748278D01*
X-814578Y-3742029D01*
X-812444Y-3736035D01*
X-809650Y-3730040D01*
X-806094Y-3724046D01*
X-801624Y-3717798D01*
X-801624Y-3713987D01*
G37*
G36*
X-910336Y-3813048D02*
G01*
X-915365Y-3813556D01*
X-919937Y-3815029D01*
X-923950Y-3817416D01*
X-927404Y-3820718D01*
X-930148Y-3824833D01*
X-932230Y-3829761D01*
X-933500Y-3835400D01*
X-933958Y-3841750D01*
X-927608Y-3841750D01*
X-926388Y-3832098D01*
X-922883Y-3824833D01*
X-917448Y-3820210D01*
X-910336Y-3818636D01*
X-903376Y-3820210D01*
X-897991Y-3824833D01*
X-894537Y-3832098D01*
X-893318Y-3841750D01*
X-894537Y-3851554D01*
X-897991Y-3858971D01*
X-903376Y-3863695D01*
X-910336Y-3865372D01*
X-917448Y-3863695D01*
X-922883Y-3858971D01*
X-926388Y-3851554D01*
X-927608Y-3841750D01*
X-933958Y-3841750D01*
X-933500Y-3848100D01*
X-932230Y-3853789D01*
X-930148Y-3858768D01*
X-927404Y-3862984D01*
X-923950Y-3866387D01*
X-919937Y-3868877D01*
X-915365Y-3870401D01*
X-910336Y-3870960D01*
X-905408Y-3870401D01*
X-900887Y-3868877D01*
X-896924Y-3866387D01*
X-893521Y-3862984D01*
X-890727Y-3858768D01*
X-888695Y-3853789D01*
X-887425Y-3848100D01*
X-886968Y-3841750D01*
X-887425Y-3835400D01*
X-888695Y-3829761D01*
X-890727Y-3824833D01*
X-893521Y-3820718D01*
X-896924Y-3817416D01*
X-900887Y-3815029D01*
X-905408Y-3813556D01*
G37*
G36*
X-861314Y-3813048D02*
G01*
X-865124Y-3813454D01*
X-868527Y-3814826D01*
X-871474Y-3817010D01*
X-873963Y-3820160D01*
X-875944Y-3824173D01*
X-877366Y-3829100D01*
X-878281Y-3834942D01*
X-878586Y-3841750D01*
X-872490Y-3841750D01*
X-871677Y-3831183D01*
X-869391Y-3823817D01*
X-865835Y-3819499D01*
X-861314Y-3818128D01*
X-856945Y-3819499D01*
X-853490Y-3823817D01*
X-851204Y-3831183D01*
X-850392Y-3841750D01*
X-851204Y-3852570D01*
X-853490Y-3860088D01*
X-856945Y-3864457D01*
X-861314Y-3865879D01*
X-865835Y-3864457D01*
X-869391Y-3860088D01*
X-871677Y-3852570D01*
X-872490Y-3841750D01*
X-878586Y-3841750D01*
X-878281Y-3848608D01*
X-877366Y-3854551D01*
X-875944Y-3859580D01*
X-873963Y-3863695D01*
X-871474Y-3866845D01*
X-868527Y-3869131D01*
X-865124Y-3870502D01*
X-861314Y-3870960D01*
X-857605Y-3870502D01*
X-854252Y-3869131D01*
X-851357Y-3866845D01*
X-848918Y-3863695D01*
X-846937Y-3859580D01*
X-845464Y-3854551D01*
X-844600Y-3848608D01*
X-844296Y-3841750D01*
X-844600Y-3834942D01*
X-845464Y-3829100D01*
X-846937Y-3824173D01*
X-848918Y-3820160D01*
X-851357Y-3817010D01*
X-854252Y-3814826D01*
X-857605Y-3813454D01*
G37*
G36*
X-952500Y-3814064D02*
G01*
X-952500Y-3869944D01*
X-946150Y-3869944D01*
X-946150Y-3814064D01*
G37*
G36*
X-815340Y-3814064D02*
G01*
X-838301Y-3849370D01*
X-832358Y-3849370D01*
X-818896Y-3829558D01*
X-814578Y-3821429D01*
X-814069Y-3821429D01*
X-814578Y-3831336D01*
X-814578Y-3849370D01*
X-838301Y-3849370D01*
X-838962Y-3850386D01*
X-838962Y-3854450D01*
X-814578Y-3854450D01*
X-814578Y-3869944D01*
X-808736Y-3869944D01*
X-808736Y-3854450D01*
X-801116Y-3854450D01*
X-801116Y-3849370D01*
X-808736Y-3849370D01*
X-808736Y-3814064D01*
G37*
G36*
X-926592Y-3913073D02*
G01*
X-931926Y-3913581D01*
X-936752Y-3915105D01*
X-941019Y-3917543D01*
X-944676Y-3920896D01*
X-947674Y-3925062D01*
X-949858Y-3929989D01*
X-951280Y-3935679D01*
X-951737Y-3942029D01*
X-951280Y-3948429D01*
X-949909Y-3954170D01*
X-947775Y-3959098D01*
X-944829Y-3963263D01*
X-941273Y-3966565D01*
X-937056Y-3969004D01*
X-932332Y-3970477D01*
X-927100Y-3970985D01*
X-921664Y-3970477D01*
X-916940Y-3969156D01*
X-912977Y-3967124D01*
X-909828Y-3964635D01*
X-909828Y-3941521D01*
X-927862Y-3941521D01*
X-927862Y-3946601D01*
X-915669Y-3946601D01*
X-915669Y-3961841D01*
X-917752Y-3963365D01*
X-920343Y-3964482D01*
X-923290Y-3965143D01*
X-926337Y-3965397D01*
X-934466Y-3963771D01*
X-940409Y-3959047D01*
X-944118Y-3951681D01*
X-945387Y-3942029D01*
X-944067Y-3932275D01*
X-940257Y-3924909D01*
X-934262Y-3920286D01*
X-926337Y-3918661D01*
X-922375Y-3919118D01*
X-919073Y-3920286D01*
X-916432Y-3921963D01*
X-914146Y-3923995D01*
X-910590Y-3919931D01*
X-913384Y-3917442D01*
X-916889Y-3915257D01*
X-921258Y-3913682D01*
G37*
G36*
X-896366Y-3914089D02*
G01*
X-896366Y-3969969D01*
X-890524Y-3969969D01*
X-890625Y-3935171D01*
X-891286Y-3922471D01*
X-890778Y-3922471D01*
X-884682Y-3933901D01*
X-863853Y-3969969D01*
X-857250Y-3969969D01*
X-857250Y-3914089D01*
X-863346Y-3914089D01*
X-863244Y-3948734D01*
X-862330Y-3961841D01*
X-862837Y-3961841D01*
X-868934Y-3950411D01*
X-890016Y-3914089D01*
G37*
G36*
X-841756Y-3914089D02*
G01*
X-841756Y-3919423D01*
X-828548Y-3919423D01*
X-823772Y-3919778D01*
X-819607Y-3920896D01*
X-816152Y-3922725D01*
X-813358Y-3925265D01*
X-811225Y-3928465D01*
X-809701Y-3932275D01*
X-808786Y-3936746D01*
X-808482Y-3941775D01*
X-808786Y-3946855D01*
X-809701Y-3951376D01*
X-811225Y-3955338D01*
X-813358Y-3958691D01*
X-816152Y-3961333D01*
X-819607Y-3963263D01*
X-823772Y-3964482D01*
X-828548Y-3964889D01*
X-835406Y-3964889D01*
X-835406Y-3919423D01*
X-841756Y-3919423D01*
X-841756Y-3969969D01*
X-827786Y-3969969D01*
X-821791Y-3969461D01*
X-816559Y-3968038D01*
X-812088Y-3965651D01*
X-808431Y-3962450D01*
X-805586Y-3958386D01*
X-803554Y-3953560D01*
X-802284Y-3948023D01*
X-801878Y-3941775D01*
X-802284Y-3935577D01*
X-803554Y-3930040D01*
X-805586Y-3925315D01*
X-808482Y-3921353D01*
X-812190Y-3918204D01*
X-816660Y-3915968D01*
X-821944Y-3914546D01*
X-828040Y-3914089D01*
G37*
G36*
X722020Y-3913073D02*
G01*
X716686Y-3913581D01*
X711860Y-3915105D01*
X707542Y-3917543D01*
X703884Y-3920896D01*
X700938Y-3925062D01*
X698703Y-3929989D01*
X697331Y-3935679D01*
X696823Y-3942029D01*
X697331Y-3948429D01*
X698652Y-3954170D01*
X700836Y-3959098D01*
X703732Y-3963263D01*
X707339Y-3966565D01*
X711504Y-3969004D01*
X716280Y-3970477D01*
X721512Y-3970985D01*
X726897Y-3970477D01*
X731672Y-3969156D01*
X735634Y-3967124D01*
X738784Y-3964635D01*
X738784Y-3941521D01*
X720750Y-3941521D01*
X720750Y-3946601D01*
X732942Y-3946601D01*
X732942Y-3961841D01*
X730859Y-3963365D01*
X728268Y-3964482D01*
X725322Y-3965143D01*
X722223Y-3965397D01*
X714146Y-3963771D01*
X708152Y-3959047D01*
X704443Y-3951681D01*
X703173Y-3942029D01*
X704545Y-3932275D01*
X708355Y-3924909D01*
X714349Y-3920286D01*
X722223Y-3918661D01*
X726236Y-3919118D01*
X729488Y-3920286D01*
X732180Y-3921963D01*
X734415Y-3923995D01*
X737971Y-3919931D01*
X735228Y-3917442D01*
X731723Y-3915257D01*
X727354Y-3913682D01*
G37*
G36*
X752195Y-3914089D02*
G01*
X752195Y-3969969D01*
X758037Y-3969969D01*
X757986Y-3935171D01*
X757326Y-3922471D01*
X757834Y-3922471D01*
X763879Y-3933901D01*
X784707Y-3969969D01*
X791362Y-3969969D01*
X791362Y-3914089D01*
X785215Y-3914089D01*
X785317Y-3948734D01*
X786231Y-3961841D01*
X785723Y-3961841D01*
X779678Y-3950411D01*
X758545Y-3914089D01*
G37*
G36*
X806805Y-3914089D02*
G01*
X806805Y-3919423D01*
X820013Y-3919423D01*
X824839Y-3919778D01*
X828954Y-3920896D01*
X832408Y-3922725D01*
X835202Y-3925265D01*
X837387Y-3928465D01*
X838911Y-3932275D01*
X839825Y-3936746D01*
X840079Y-3941775D01*
X839825Y-3946855D01*
X838911Y-3951376D01*
X837387Y-3955338D01*
X835202Y-3958691D01*
X832408Y-3961333D01*
X828954Y-3963263D01*
X824839Y-3964482D01*
X820013Y-3964889D01*
X813155Y-3964889D01*
X813155Y-3919423D01*
X806805Y-3919423D01*
X806805Y-3969969D01*
X820826Y-3969969D01*
X826820Y-3969461D01*
X832053Y-3968038D01*
X836472Y-3965651D01*
X840130Y-3962450D01*
X842975Y-3958386D01*
X845058Y-3953560D01*
X846277Y-3948023D01*
X846734Y-3941775D01*
X846277Y-3935577D01*
X845058Y-3930040D01*
X842975Y-3925315D01*
X840079Y-3921353D01*
X836421Y-3918204D01*
X831900Y-3915968D01*
X826617Y-3914546D01*
X820521Y-3914089D01*
G37*
G36*
X738276Y-3813048D02*
G01*
X733247Y-3813556D01*
X728675Y-3815029D01*
X724662Y-3817416D01*
X721207Y-3820718D01*
X718413Y-3824833D01*
X716381Y-3829761D01*
X715060Y-3835400D01*
X714654Y-3841750D01*
X721004Y-3841750D01*
X722223Y-3832098D01*
X725728Y-3824833D01*
X731164Y-3820210D01*
X738276Y-3818636D01*
X745185Y-3820210D01*
X750570Y-3824833D01*
X754024Y-3832098D01*
X755294Y-3841750D01*
X754024Y-3851554D01*
X750570Y-3858971D01*
X745185Y-3863695D01*
X738276Y-3865372D01*
X731164Y-3863695D01*
X725728Y-3858971D01*
X722223Y-3851554D01*
X721004Y-3841750D01*
X714654Y-3841750D01*
X715060Y-3848100D01*
X716381Y-3853789D01*
X718413Y-3858768D01*
X721207Y-3862984D01*
X724662Y-3866387D01*
X728675Y-3868877D01*
X733247Y-3870401D01*
X738276Y-3870960D01*
X743204Y-3870401D01*
X747674Y-3868877D01*
X751687Y-3866387D01*
X755091Y-3862984D01*
X757834Y-3858768D01*
X759917Y-3853789D01*
X761187Y-3848100D01*
X761644Y-3841750D01*
X761187Y-3835400D01*
X759917Y-3829761D01*
X757834Y-3824833D01*
X755091Y-3820718D01*
X751687Y-3817416D01*
X747674Y-3815029D01*
X743204Y-3813556D01*
G37*
G36*
X787298Y-3813048D02*
G01*
X783488Y-3813454D01*
X780084Y-3814826D01*
X777138Y-3817010D01*
X774649Y-3820160D01*
X772668Y-3824173D01*
X771194Y-3829100D01*
X770331Y-3834942D01*
X770026Y-3841750D01*
X776122Y-3841750D01*
X776935Y-3831183D01*
X779221Y-3823817D01*
X782726Y-3819499D01*
X787298Y-3818128D01*
X791667Y-3819499D01*
X795121Y-3823817D01*
X797407Y-3831183D01*
X798220Y-3841750D01*
X797407Y-3852570D01*
X795121Y-3860088D01*
X791667Y-3864457D01*
X787298Y-3865879D01*
X782726Y-3864457D01*
X779221Y-3860088D01*
X776935Y-3852570D01*
X776122Y-3841750D01*
X770026Y-3841750D01*
X770331Y-3848608D01*
X771194Y-3854551D01*
X772668Y-3859580D01*
X774649Y-3863695D01*
X777138Y-3866845D01*
X780084Y-3869131D01*
X783488Y-3870502D01*
X787298Y-3870960D01*
X791006Y-3870502D01*
X794308Y-3869131D01*
X797255Y-3866845D01*
X799693Y-3863695D01*
X801674Y-3859580D01*
X803097Y-3854551D01*
X804011Y-3848608D01*
X804316Y-3841750D01*
X804011Y-3834942D01*
X803097Y-3829100D01*
X801674Y-3824173D01*
X799693Y-3820160D01*
X797255Y-3817010D01*
X794308Y-3814826D01*
X791006Y-3813454D01*
G37*
G36*
X696112Y-3814064D02*
G01*
X696112Y-3869944D01*
X702462Y-3869944D01*
X702462Y-3814064D01*
G37*
G36*
X833272Y-3814064D02*
G01*
X810311Y-3849370D01*
X816254Y-3849370D01*
X829716Y-3829558D01*
X834034Y-3821429D01*
X834542Y-3821429D01*
X834034Y-3828999D01*
X834034Y-3849370D01*
X810311Y-3849370D01*
X809650Y-3850386D01*
X809650Y-3854450D01*
X834034Y-3854450D01*
X834034Y-3869944D01*
X839876Y-3869944D01*
X839876Y-3854450D01*
X847496Y-3854450D01*
X847496Y-3849370D01*
X839876Y-3849370D01*
X839876Y-3814064D01*
G37*
G36*
X738784Y-3712972D02*
G01*
X733755Y-3713479D01*
X729183Y-3715004D01*
X725170Y-3717391D01*
X721715Y-3720693D01*
X718921Y-3724808D01*
X716838Y-3729736D01*
X715568Y-3735374D01*
X715162Y-3741674D01*
X721512Y-3741674D01*
X722731Y-3732072D01*
X726236Y-3724808D01*
X731672Y-3720185D01*
X738784Y-3718560D01*
X745693Y-3720185D01*
X751078Y-3724808D01*
X754532Y-3732072D01*
X755802Y-3741674D01*
X754532Y-3751478D01*
X751078Y-3758946D01*
X745693Y-3763670D01*
X738784Y-3765296D01*
X731672Y-3763670D01*
X726236Y-3758946D01*
X722731Y-3751478D01*
X721512Y-3741674D01*
X715162Y-3741674D01*
X715568Y-3748074D01*
X716838Y-3753764D01*
X718921Y-3758742D01*
X721715Y-3762959D01*
X725170Y-3766362D01*
X729183Y-3768851D01*
X733755Y-3770376D01*
X738784Y-3770884D01*
X743712Y-3770376D01*
X748182Y-3768851D01*
X752195Y-3766362D01*
X755599Y-3762959D01*
X758342Y-3758742D01*
X760425Y-3753764D01*
X761695Y-3748074D01*
X762152Y-3741674D01*
X761695Y-3735374D01*
X760425Y-3729736D01*
X758342Y-3724808D01*
X755599Y-3720693D01*
X752195Y-3717391D01*
X748182Y-3715004D01*
X743712Y-3713479D01*
G37*
G36*
X696620Y-3713987D02*
G01*
X696620Y-3769868D01*
X702970Y-3769868D01*
X702970Y-3713987D01*
G37*
G36*
X787552Y-3713987D02*
G01*
X785114Y-3715258D01*
X782472Y-3716274D01*
X779475Y-3717137D01*
X776071Y-3717798D01*
X776071Y-3721862D01*
X786028Y-3721862D01*
X786028Y-3764787D01*
X773531Y-3764787D01*
X773531Y-3769868D01*
X803554Y-3769868D01*
X803554Y-3764787D01*
X792073Y-3764787D01*
X792073Y-3713987D01*
G37*
G36*
X812444Y-3713987D02*
G01*
X812444Y-3719322D01*
X839571Y-3719322D01*
X835812Y-3725011D01*
X832662Y-3730650D01*
X830071Y-3736340D01*
X827989Y-3742232D01*
X826414Y-3748430D01*
X825195Y-3755034D01*
X824382Y-3762146D01*
X823823Y-3769868D01*
X830173Y-3769868D01*
X831392Y-3754932D01*
X832459Y-3748278D01*
X834034Y-3742029D01*
X836117Y-3736035D01*
X838911Y-3730040D01*
X842467Y-3724046D01*
X846937Y-3717798D01*
X846937Y-3713987D01*
G37*
G36*
X739140Y-3612946D02*
G01*
X734110Y-3613454D01*
X729538Y-3614928D01*
X725525Y-3617315D01*
X722071Y-3620617D01*
X719328Y-3624732D01*
X717245Y-3629660D01*
X715975Y-3635298D01*
X715518Y-3641648D01*
X721868Y-3641648D01*
X723087Y-3632047D01*
X726592Y-3624732D01*
X732028Y-3620160D01*
X739140Y-3618534D01*
X746099Y-3620160D01*
X751484Y-3624732D01*
X754938Y-3632047D01*
X756158Y-3641648D01*
X754938Y-3651453D01*
X751484Y-3658870D01*
X746099Y-3663594D01*
X739140Y-3665270D01*
X732028Y-3663594D01*
X726592Y-3658870D01*
X723087Y-3651453D01*
X721868Y-3641648D01*
X715518Y-3641648D01*
X715975Y-3647998D01*
X717245Y-3653688D01*
X719328Y-3658717D01*
X722071Y-3662934D01*
X725525Y-3666286D01*
X729538Y-3668776D01*
X734110Y-3670350D01*
X739140Y-3670858D01*
X744067Y-3670350D01*
X748588Y-3668776D01*
X752551Y-3666286D01*
X755954Y-3662934D01*
X758748Y-3658717D01*
X760780Y-3653688D01*
X762050Y-3647998D01*
X762508Y-3641648D01*
X762050Y-3635298D01*
X760780Y-3629660D01*
X758748Y-3624732D01*
X755954Y-3620617D01*
X752551Y-3617315D01*
X748588Y-3614928D01*
X744067Y-3613454D01*
G37*
G36*
X828040Y-3612946D02*
G01*
X822045Y-3614267D01*
X817016Y-3617976D01*
X813562Y-3623665D01*
X812292Y-3630980D01*
X818388Y-3630980D01*
X819099Y-3625748D01*
X821131Y-3621633D01*
X824179Y-3618992D01*
X828040Y-3618026D01*
X833119Y-3619246D01*
X836980Y-3622801D01*
X839520Y-3628542D01*
X840740Y-3636314D01*
X837793Y-3639769D01*
X834745Y-3642106D01*
X831646Y-3643477D01*
X828548Y-3643934D01*
X824077Y-3643020D01*
X820877Y-3640429D01*
X818997Y-3636314D01*
X818388Y-3630980D01*
X812292Y-3630980D01*
X813409Y-3638651D01*
X816508Y-3644137D01*
X821283Y-3647389D01*
X827532Y-3648506D01*
X831240Y-3647998D01*
X834694Y-3646576D01*
X837895Y-3644341D01*
X840740Y-3641394D01*
X839317Y-3652824D01*
X836117Y-3660343D01*
X831646Y-3664508D01*
X826516Y-3665778D01*
X823772Y-3665474D01*
X821232Y-3664559D01*
X818896Y-3663086D01*
X816864Y-3661206D01*
X813562Y-3665270D01*
X816051Y-3667556D01*
X818997Y-3669284D01*
X822452Y-3670452D01*
X826516Y-3670858D01*
X830376Y-3670452D01*
X834034Y-3669131D01*
X837437Y-3666896D01*
X840435Y-3663696D01*
X842975Y-3659378D01*
X844905Y-3653942D01*
X846124Y-3647287D01*
X846582Y-3639362D01*
X846226Y-3633215D01*
X845210Y-3627831D01*
X843584Y-3623310D01*
X841400Y-3619601D01*
X838708Y-3616706D01*
X835558Y-3614623D01*
X831951Y-3613353D01*
G37*
G36*
X696976Y-3613962D02*
G01*
X696976Y-3669842D01*
X703326Y-3669842D01*
X703326Y-3613962D01*
G37*
G36*
X787908Y-3613962D02*
G01*
X782878Y-3616248D01*
X779881Y-3617112D01*
X776478Y-3617772D01*
X776478Y-3621836D01*
X786384Y-3621836D01*
X786384Y-3664762D01*
X773938Y-3664762D01*
X773938Y-3669842D01*
X803910Y-3669842D01*
X803910Y-3664762D01*
X792480Y-3664762D01*
X792480Y-3613962D01*
G37*
G36*
X693420Y-3514953D02*
G01*
X693420Y-3520287D01*
X707898Y-3520287D01*
X714552Y-3520795D01*
X719328Y-3522573D01*
X722172Y-3525926D01*
X723138Y-3531209D01*
X722223Y-3536594D01*
X719480Y-3540302D01*
X714756Y-3542436D01*
X708152Y-3543147D01*
X699770Y-3543147D01*
X699770Y-3520287D01*
X693420Y-3520287D01*
X693420Y-3570833D01*
X699770Y-3570833D01*
X699770Y-3548227D01*
X709168Y-3548227D01*
X717499Y-3547211D01*
X723900Y-3544062D01*
X728014Y-3538778D01*
X729488Y-3531209D01*
X728014Y-3523640D01*
X723849Y-3518611D01*
X717296Y-3515817D01*
X708660Y-3514953D01*
G37*
G36*
X740918Y-3514953D02*
G01*
X740918Y-3570833D01*
X747268Y-3570833D01*
X747268Y-3514953D01*
G37*
G36*
X762762Y-3514953D02*
G01*
X762762Y-3570833D01*
X768858Y-3570833D01*
X768756Y-3535984D01*
X768096Y-3523335D01*
X768350Y-3523335D01*
X774446Y-3534765D01*
X795528Y-3570833D01*
X802132Y-3570833D01*
X802132Y-3514953D01*
X796036Y-3514953D01*
X796137Y-3549599D01*
X796798Y-3562705D01*
X796544Y-3562705D01*
X790448Y-3551275D01*
X769366Y-3514953D01*
G37*
G36*
X817625Y-3514953D02*
G01*
X817625Y-3570833D01*
X850137Y-3570833D01*
X850137Y-3565499D01*
X823976Y-3565499D01*
X823976Y-3544163D01*
X845312Y-3544163D01*
X845312Y-3538829D01*
X823976Y-3538829D01*
X823976Y-3520287D01*
X849376Y-3520287D01*
X849376Y-3514953D01*
G37*
G36*
X738987Y-3414877D02*
G01*
X734009Y-3415385D01*
X729437Y-3416858D01*
X725424Y-3419297D01*
X721969Y-3422548D01*
X719175Y-3426714D01*
X717092Y-3431590D01*
X715822Y-3437229D01*
X715365Y-3443579D01*
X721715Y-3443579D01*
X722985Y-3433978D01*
X726490Y-3426714D01*
X731926Y-3422091D01*
X738987Y-3420465D01*
X745947Y-3422091D01*
X751332Y-3426714D01*
X754786Y-3433978D01*
X756005Y-3443579D01*
X754786Y-3453384D01*
X751332Y-3460851D01*
X745947Y-3465576D01*
X738987Y-3467201D01*
X731926Y-3465576D01*
X726490Y-3460851D01*
X722985Y-3453384D01*
X721715Y-3443579D01*
X715365Y-3443579D01*
X715822Y-3449929D01*
X717092Y-3455670D01*
X719175Y-3460648D01*
X721969Y-3464864D01*
X725424Y-3468268D01*
X729437Y-3470757D01*
X734009Y-3472281D01*
X738987Y-3472789D01*
X743966Y-3472281D01*
X748436Y-3470757D01*
X752449Y-3468268D01*
X755853Y-3464864D01*
X758596Y-3460648D01*
X760679Y-3455670D01*
X761949Y-3449929D01*
X762355Y-3443579D01*
X761949Y-3437229D01*
X760679Y-3431590D01*
X758596Y-3426714D01*
X755853Y-3422548D01*
X752449Y-3419297D01*
X748436Y-3416858D01*
X743966Y-3415385D01*
G37*
G36*
X828192Y-3414877D02*
G01*
X823264Y-3415487D01*
X819099Y-3417163D01*
X815390Y-3419805D01*
X811936Y-3423259D01*
X815492Y-3426561D01*
X818083Y-3424021D01*
X820978Y-3421938D01*
X824077Y-3420516D01*
X827379Y-3419957D01*
X832154Y-3420872D01*
X835507Y-3423310D01*
X837437Y-3427018D01*
X838047Y-3431641D01*
X837692Y-3435350D01*
X836574Y-3439210D01*
X834644Y-3443325D01*
X831900Y-3447643D01*
X828294Y-3452215D01*
X823823Y-3457143D01*
X818438Y-3462375D01*
X812139Y-3467963D01*
X812139Y-3471773D01*
X846734Y-3471773D01*
X846734Y-3466439D01*
X828548Y-3466490D01*
X821537Y-3466947D01*
X826465Y-3462172D01*
X830884Y-3457498D01*
X834745Y-3452977D01*
X837996Y-3448507D01*
X840638Y-3444138D01*
X842568Y-3439871D01*
X843737Y-3435604D01*
X844194Y-3431387D01*
X843076Y-3424631D01*
X839876Y-3419449D01*
X834847Y-3416096D01*
G37*
G36*
X696823Y-3415893D02*
G01*
X696823Y-3471773D01*
X703173Y-3471773D01*
X703173Y-3415893D01*
G37*
G36*
X787755Y-3415893D02*
G01*
X785368Y-3417163D01*
X782726Y-3418179D01*
X779729Y-3419043D01*
X776376Y-3419703D01*
X776376Y-3423767D01*
X786231Y-3423767D01*
X786231Y-3466693D01*
X773836Y-3466693D01*
X773836Y-3471773D01*
X803757Y-3471773D01*
X803757Y-3466693D01*
X792378Y-3466693D01*
X792378Y-3415893D01*
G37*
G36*
X738784Y-3314852D02*
G01*
X733755Y-3315360D01*
X729183Y-3316833D01*
X725170Y-3319221D01*
X721715Y-3322523D01*
X718921Y-3326637D01*
X716838Y-3331565D01*
X715568Y-3337204D01*
X715162Y-3343554D01*
X721512Y-3343554D01*
X722731Y-3333953D01*
X726236Y-3326637D01*
X731672Y-3322065D01*
X738784Y-3320440D01*
X745693Y-3322065D01*
X751078Y-3326637D01*
X754532Y-3333953D01*
X755802Y-3343554D01*
X754532Y-3353358D01*
X751078Y-3360775D01*
X745693Y-3365500D01*
X738784Y-3367176D01*
X731672Y-3365500D01*
X726236Y-3360775D01*
X722731Y-3353358D01*
X721512Y-3343554D01*
X715162Y-3343554D01*
X715568Y-3349904D01*
X716838Y-3355594D01*
X718921Y-3360623D01*
X721715Y-3364839D01*
X725170Y-3368192D01*
X729183Y-3370681D01*
X733755Y-3372205D01*
X738784Y-3372764D01*
X743712Y-3372205D01*
X748182Y-3370681D01*
X752195Y-3368192D01*
X755599Y-3364839D01*
X758342Y-3360623D01*
X760425Y-3355594D01*
X761695Y-3349904D01*
X762152Y-3343554D01*
X761695Y-3337204D01*
X760425Y-3331565D01*
X758342Y-3326637D01*
X755599Y-3322523D01*
X752195Y-3319221D01*
X748182Y-3316833D01*
X743712Y-3315360D01*
G37*
G36*
X786028Y-3314852D02*
G01*
X781202Y-3315462D01*
X777036Y-3317138D01*
X773226Y-3319779D01*
X769721Y-3323234D01*
X773531Y-3326536D01*
X776020Y-3323996D01*
X778814Y-3321913D01*
X781913Y-3320440D01*
X785215Y-3319932D01*
X789990Y-3320846D01*
X793343Y-3323285D01*
X795274Y-3326993D01*
X795934Y-3331616D01*
X795528Y-3335324D01*
X794410Y-3339185D01*
X792480Y-3343249D01*
X789736Y-3347567D01*
X786180Y-3352190D01*
X781761Y-3357067D01*
X776478Y-3362299D01*
X770229Y-3367938D01*
X770229Y-3371748D01*
X804773Y-3371748D01*
X804773Y-3366414D01*
X786485Y-3366465D01*
X779678Y-3366922D01*
X788822Y-3357473D01*
X792632Y-3352901D01*
X795883Y-3348482D01*
X798474Y-3344113D01*
X800404Y-3339795D01*
X801573Y-3335578D01*
X801979Y-3331362D01*
X800912Y-3324606D01*
X797712Y-3319373D01*
X792683Y-3316020D01*
G37*
G36*
X833221Y-3314852D02*
G01*
X829310Y-3315258D01*
X825550Y-3316478D01*
X822147Y-3318662D01*
X819099Y-3321812D01*
X816559Y-3325977D01*
X814578Y-3331260D01*
X813358Y-3337661D01*
X812952Y-3345332D01*
X813135Y-3349142D01*
X818997Y-3349142D01*
X821944Y-3345840D01*
X824941Y-3343554D01*
X827938Y-3342182D01*
X830681Y-3341776D01*
X835355Y-3342741D01*
X838555Y-3345383D01*
X840486Y-3349498D01*
X841095Y-3354730D01*
X840384Y-3359962D01*
X838403Y-3364077D01*
X835355Y-3366719D01*
X831494Y-3367684D01*
X826414Y-3366465D01*
X822655Y-3362858D01*
X820216Y-3357067D01*
X818997Y-3349142D01*
X813135Y-3349142D01*
X813257Y-3351682D01*
X814273Y-3357219D01*
X815898Y-3361944D01*
X818083Y-3365804D01*
X820826Y-3368852D01*
X823976Y-3370986D01*
X827532Y-3372307D01*
X831494Y-3372764D01*
X837437Y-3371443D01*
X842365Y-3367735D01*
X845718Y-3362045D01*
X846937Y-3354730D01*
X845921Y-3347059D01*
X842873Y-3341573D01*
X838047Y-3338271D01*
X831697Y-3337204D01*
X828294Y-3337661D01*
X824839Y-3338982D01*
X821639Y-3341166D01*
X818794Y-3344062D01*
X820064Y-3332835D01*
X823264Y-3325469D01*
X827938Y-3321405D01*
X833526Y-3320186D01*
X836117Y-3320440D01*
X838555Y-3321304D01*
X840740Y-3322624D01*
X842670Y-3324504D01*
X845921Y-3320440D01*
X843483Y-3318256D01*
X840638Y-3316478D01*
X837285Y-3315309D01*
G37*
G36*
X696620Y-3315868D02*
G01*
X696620Y-3371748D01*
X702970Y-3371748D01*
X702970Y-3315868D01*
G37*
G36*
X722020Y-3214776D02*
G01*
X716686Y-3215335D01*
X711860Y-3216808D01*
X707542Y-3219246D01*
X703884Y-3222599D01*
X700938Y-3226765D01*
X698703Y-3231743D01*
X697331Y-3237382D01*
X696823Y-3243732D01*
X697331Y-3250184D01*
X698652Y-3255873D01*
X700836Y-3260852D01*
X703732Y-3265017D01*
X707339Y-3268319D01*
X711504Y-3270707D01*
X716280Y-3272180D01*
X721512Y-3272688D01*
X726897Y-3272231D01*
X731672Y-3270859D01*
X735634Y-3268827D01*
X738784Y-3266338D01*
X738784Y-3243224D01*
X720750Y-3243224D01*
X720750Y-3248304D01*
X732942Y-3248304D01*
X732942Y-3263544D01*
X730859Y-3265068D01*
X728268Y-3266186D01*
X725322Y-3266897D01*
X722223Y-3267100D01*
X714146Y-3265474D01*
X708152Y-3260750D01*
X704443Y-3253384D01*
X703173Y-3243732D01*
X704545Y-3233978D01*
X708355Y-3226663D01*
X714349Y-3221990D01*
X722223Y-3220364D01*
X726236Y-3220821D01*
X729488Y-3221990D01*
X732180Y-3223717D01*
X734415Y-3225698D01*
X737971Y-3221634D01*
X735228Y-3219196D01*
X731723Y-3217011D01*
X727354Y-3215386D01*
G37*
G36*
X752195Y-3215792D02*
G01*
X752195Y-3271672D01*
X758037Y-3271672D01*
X757986Y-3236874D01*
X757326Y-3224174D01*
X757834Y-3224174D01*
X763879Y-3235604D01*
X784707Y-3271672D01*
X791362Y-3271672D01*
X791362Y-3215792D01*
X785215Y-3215792D01*
X785317Y-3250438D01*
X786231Y-3263544D01*
X785723Y-3263544D01*
X779678Y-3252114D01*
X758545Y-3215792D01*
G37*
G36*
X806805Y-3215792D02*
G01*
X806805Y-3221126D01*
X820013Y-3221126D01*
X824839Y-3221532D01*
X828954Y-3222650D01*
X832408Y-3224479D01*
X835202Y-3226968D01*
X837387Y-3230168D01*
X838911Y-3234029D01*
X839825Y-3238449D01*
X840079Y-3243478D01*
X839825Y-3248558D01*
X838911Y-3253130D01*
X837387Y-3257042D01*
X835202Y-3260394D01*
X832408Y-3263036D01*
X828954Y-3265017D01*
X824839Y-3266186D01*
X820013Y-3266592D01*
X813155Y-3266592D01*
X813155Y-3221126D01*
X806805Y-3221126D01*
X806805Y-3271672D01*
X820826Y-3271672D01*
X826820Y-3271215D01*
X832053Y-3269742D01*
X836472Y-3267405D01*
X840130Y-3264153D01*
X842975Y-3260140D01*
X845058Y-3255314D01*
X846277Y-3249726D01*
X846734Y-3243478D01*
X846277Y-3237280D01*
X845058Y-3231794D01*
X842975Y-3227019D01*
X840079Y-3223107D01*
X836421Y-3219958D01*
X831900Y-3217672D01*
X826617Y-3216300D01*
X820521Y-3215792D01*
G37*
G36*
X739140Y-3114751D02*
G01*
X734110Y-3115259D01*
X729538Y-3116732D01*
X725525Y-3119170D01*
X722071Y-3122422D01*
X719328Y-3126536D01*
X717245Y-3131464D01*
X715975Y-3137103D01*
X715518Y-3143453D01*
X721868Y-3143453D01*
X723087Y-3133852D01*
X726592Y-3126587D01*
X732028Y-3121964D01*
X739140Y-3120339D01*
X746099Y-3121964D01*
X751484Y-3126587D01*
X754938Y-3133852D01*
X756158Y-3143453D01*
X754938Y-3153257D01*
X751484Y-3160674D01*
X746099Y-3165398D01*
X739140Y-3167075D01*
X732028Y-3165398D01*
X726592Y-3160674D01*
X723087Y-3153257D01*
X721868Y-3143453D01*
X715518Y-3143453D01*
X715975Y-3149803D01*
X717245Y-3155543D01*
X719328Y-3160522D01*
X722071Y-3164738D01*
X725525Y-3168091D01*
X729538Y-3170580D01*
X734110Y-3172155D01*
X739140Y-3172663D01*
X744067Y-3172155D01*
X748588Y-3170580D01*
X752551Y-3168091D01*
X755954Y-3164738D01*
X758748Y-3160522D01*
X760780Y-3155543D01*
X762050Y-3149803D01*
X762508Y-3143453D01*
X762050Y-3137103D01*
X760780Y-3131464D01*
X758748Y-3126536D01*
X755954Y-3122422D01*
X752551Y-3119170D01*
X748588Y-3116732D01*
X744067Y-3115259D01*
G37*
G36*
X786384Y-3114751D02*
G01*
X781608Y-3115360D01*
X777392Y-3117037D01*
X773633Y-3119678D01*
X770128Y-3123133D01*
X773938Y-3126435D01*
X776427Y-3123895D01*
X779221Y-3121812D01*
X782320Y-3120390D01*
X785622Y-3119831D01*
X790397Y-3120745D01*
X793699Y-3123184D01*
X795680Y-3126892D01*
X796290Y-3131515D01*
X795934Y-3135223D01*
X794766Y-3139084D01*
X792835Y-3143148D01*
X790143Y-3147466D01*
X786587Y-3152089D01*
X782167Y-3156966D01*
X776833Y-3162249D01*
X770636Y-3167837D01*
X770636Y-3171647D01*
X805180Y-3171647D01*
X805180Y-3166313D01*
X786841Y-3166364D01*
X780034Y-3166821D01*
X784860Y-3162046D01*
X789228Y-3157372D01*
X793038Y-3152851D01*
X796239Y-3148380D01*
X798880Y-3144012D01*
X800811Y-3139694D01*
X801979Y-3135477D01*
X802386Y-3131261D01*
X801268Y-3124504D01*
X798118Y-3119272D01*
X793038Y-3115919D01*
G37*
G36*
X696976Y-3115767D02*
G01*
X696976Y-3171647D01*
X703326Y-3171647D01*
X703326Y-3115767D01*
G37*
G36*
X817372Y-3115767D02*
G01*
X815594Y-3141675D01*
X818896Y-3143961D01*
X821283Y-3142488D01*
X823518Y-3141472D01*
X825906Y-3140862D01*
X828548Y-3140659D01*
X833424Y-3141522D01*
X837184Y-3144113D01*
X839622Y-3148279D01*
X840486Y-3153867D01*
X839520Y-3159556D01*
X836879Y-3163874D01*
X832967Y-3166618D01*
X828294Y-3167583D01*
X823671Y-3167075D01*
X819861Y-3165652D01*
X816813Y-3163620D01*
X814324Y-3161233D01*
X811022Y-3165297D01*
X814171Y-3167938D01*
X818032Y-3170326D01*
X822807Y-3172002D01*
X828802Y-3172663D01*
X835456Y-3171393D01*
X841095Y-3167735D01*
X845108Y-3161741D01*
X846582Y-3153613D01*
X845312Y-3145586D01*
X841756Y-3140049D01*
X836523Y-3136849D01*
X830071Y-3135833D01*
X827582Y-3135985D01*
X825347Y-3136392D01*
X823264Y-3137103D01*
X821182Y-3138119D01*
X822960Y-3121101D01*
X844042Y-3121101D01*
X844042Y-3115767D01*
G37*
G36*
X738733Y-3014726D02*
G01*
X733755Y-3015234D01*
X729183Y-3016707D01*
X725119Y-3019094D01*
X721715Y-3022396D01*
X718921Y-3026511D01*
X716838Y-3031439D01*
X715568Y-3037078D01*
X715111Y-3043428D01*
X721461Y-3043428D01*
X722731Y-3033776D01*
X726236Y-3026511D01*
X731672Y-3021888D01*
X738733Y-3020314D01*
X745693Y-3021888D01*
X751078Y-3026511D01*
X754532Y-3033776D01*
X755751Y-3043428D01*
X754532Y-3053232D01*
X751078Y-3060649D01*
X745693Y-3065373D01*
X738733Y-3067050D01*
X731672Y-3065373D01*
X726236Y-3060649D01*
X722731Y-3053232D01*
X721461Y-3043428D01*
X715111Y-3043428D01*
X715568Y-3049778D01*
X716838Y-3055467D01*
X718921Y-3060446D01*
X721715Y-3064662D01*
X725119Y-3068066D01*
X729183Y-3070555D01*
X733755Y-3072079D01*
X738733Y-3072638D01*
X743712Y-3072079D01*
X748182Y-3070555D01*
X752195Y-3068066D01*
X755599Y-3064662D01*
X758342Y-3060446D01*
X760425Y-3055467D01*
X761695Y-3049778D01*
X762101Y-3043428D01*
X761695Y-3037078D01*
X760425Y-3031439D01*
X758342Y-3026511D01*
X755599Y-3022396D01*
X752195Y-3019094D01*
X748182Y-3016707D01*
X743712Y-3015234D01*
G37*
G36*
X785977Y-3014726D02*
G01*
X781202Y-3015284D01*
X777036Y-3017012D01*
X773226Y-3019653D01*
X769721Y-3023108D01*
X773531Y-3026410D01*
X776020Y-3023870D01*
X778814Y-3021736D01*
X781913Y-3020314D01*
X785215Y-3019806D01*
X789990Y-3020669D01*
X793343Y-3023158D01*
X795274Y-3026867D01*
X795883Y-3031490D01*
X795528Y-3035147D01*
X794410Y-3039059D01*
X792480Y-3043123D01*
X789736Y-3047441D01*
X786180Y-3052013D01*
X781761Y-3056940D01*
X776478Y-3062173D01*
X770229Y-3067812D01*
X770229Y-3071622D01*
X804773Y-3071622D01*
X804773Y-3066288D01*
X786485Y-3066338D01*
X779627Y-3066796D01*
X788822Y-3057347D01*
X792632Y-3052775D01*
X795883Y-3048355D01*
X798474Y-3043986D01*
X800404Y-3039668D01*
X801573Y-3035401D01*
X801979Y-3031236D01*
X800912Y-3024479D01*
X797712Y-3019247D01*
X792683Y-3015894D01*
G37*
G36*
X696569Y-3015742D02*
G01*
X696569Y-3071622D01*
X702919Y-3071622D01*
X702919Y-3015742D01*
G37*
G36*
X812393Y-3015742D02*
G01*
X812393Y-3021076D01*
X839571Y-3021076D01*
X835812Y-3026714D01*
X832662Y-3032353D01*
X830071Y-3038043D01*
X827989Y-3043936D01*
X826414Y-3050133D01*
X825195Y-3056737D01*
X824382Y-3063849D01*
X823823Y-3071622D01*
X830173Y-3071622D01*
X830681Y-3063798D01*
X831392Y-3056636D01*
X832459Y-3050032D01*
X833983Y-3043783D01*
X836117Y-3037738D01*
X838911Y-3031794D01*
X842467Y-3025749D01*
X846937Y-3019552D01*
X846937Y-3015742D01*
G37*
G36*
X738276Y-2914650D02*
G01*
X733247Y-2915158D01*
X728675Y-2916631D01*
X724662Y-2919069D01*
X721207Y-2922371D01*
X718413Y-2926486D01*
X716381Y-2931363D01*
X715060Y-2937052D01*
X714654Y-2943352D01*
X721004Y-2943352D01*
X722223Y-2933750D01*
X725728Y-2926486D01*
X731164Y-2921863D01*
X738276Y-2920238D01*
X745185Y-2921863D01*
X750570Y-2926486D01*
X754024Y-2933750D01*
X755294Y-2943352D01*
X754024Y-2953156D01*
X750570Y-2960624D01*
X745185Y-2965348D01*
X738276Y-2966974D01*
X731164Y-2965348D01*
X725728Y-2960624D01*
X722223Y-2953156D01*
X721004Y-2943352D01*
X714654Y-2943352D01*
X715060Y-2949752D01*
X716381Y-2955442D01*
X718413Y-2960420D01*
X721207Y-2964637D01*
X724662Y-2968040D01*
X728675Y-2970530D01*
X733247Y-2972054D01*
X738276Y-2972562D01*
X743204Y-2972054D01*
X747674Y-2970530D01*
X751687Y-2968040D01*
X755091Y-2964637D01*
X757834Y-2960420D01*
X759917Y-2955442D01*
X761187Y-2949752D01*
X761644Y-2943352D01*
X761187Y-2937052D01*
X759917Y-2931363D01*
X757834Y-2926486D01*
X755091Y-2922371D01*
X751687Y-2919069D01*
X747674Y-2916631D01*
X743204Y-2915158D01*
G37*
G36*
X696112Y-2915666D02*
G01*
X696112Y-2971546D01*
X702462Y-2971546D01*
X702462Y-2915666D01*
G37*
G36*
X787044Y-2915666D02*
G01*
X784606Y-2916936D01*
X781964Y-2917952D01*
X778967Y-2918815D01*
X775614Y-2919476D01*
X775614Y-2923540D01*
X785520Y-2923540D01*
X785520Y-2966466D01*
X773074Y-2966466D01*
X773074Y-2971546D01*
X803046Y-2971546D01*
X803046Y-2966466D01*
X791616Y-2966466D01*
X791616Y-2915666D01*
G37*
G36*
X833272Y-2915666D02*
G01*
X810311Y-2950972D01*
X816254Y-2950972D01*
X829716Y-2931160D01*
X834034Y-2923032D01*
X834542Y-2923032D01*
X834034Y-2930601D01*
X834034Y-2950972D01*
X810311Y-2950972D01*
X809650Y-2951988D01*
X809650Y-2956052D01*
X834034Y-2956052D01*
X834034Y-2971546D01*
X839876Y-2971546D01*
X839876Y-2956052D01*
X847496Y-2956052D01*
X847496Y-2950972D01*
X839876Y-2950972D01*
X839876Y-2915666D01*
G37*
G36*
X739241Y-2814624D02*
G01*
X734263Y-2815132D01*
X729691Y-2816606D01*
X725627Y-2819044D01*
X722223Y-2822295D01*
X719429Y-2826461D01*
X717346Y-2831338D01*
X716076Y-2836976D01*
X715619Y-2843326D01*
X721969Y-2843326D01*
X723239Y-2833725D01*
X726744Y-2826461D01*
X732180Y-2821838D01*
X739241Y-2820212D01*
X746201Y-2821838D01*
X751586Y-2826461D01*
X755040Y-2833725D01*
X756259Y-2843326D01*
X755040Y-2853131D01*
X751586Y-2860548D01*
X746201Y-2865323D01*
X739241Y-2866948D01*
X732180Y-2865323D01*
X726744Y-2860548D01*
X723239Y-2853131D01*
X721969Y-2843326D01*
X715619Y-2843326D01*
X716076Y-2849676D01*
X717346Y-2855417D01*
X719429Y-2860395D01*
X722223Y-2864612D01*
X725627Y-2867964D01*
X729691Y-2870454D01*
X734263Y-2872028D01*
X739241Y-2872536D01*
X744220Y-2872028D01*
X748690Y-2870454D01*
X752703Y-2867964D01*
X756107Y-2864612D01*
X758850Y-2860395D01*
X760933Y-2855417D01*
X762203Y-2849676D01*
X762609Y-2843326D01*
X762203Y-2836976D01*
X760933Y-2831338D01*
X758850Y-2826461D01*
X756107Y-2822295D01*
X752703Y-2819044D01*
X748690Y-2816606D01*
X744220Y-2815132D01*
G37*
G36*
X828903Y-2814624D02*
G01*
X824280Y-2815183D01*
X820216Y-2816606D01*
X816660Y-2818688D01*
X813409Y-2821228D01*
X816711Y-2825292D01*
X819353Y-2823159D01*
X822248Y-2821432D01*
X825347Y-2820263D01*
X828649Y-2819704D01*
X832662Y-2820517D01*
X835710Y-2822397D01*
X837641Y-2825292D01*
X838301Y-2829102D01*
X837488Y-2833370D01*
X834847Y-2836875D01*
X829970Y-2839161D01*
X822553Y-2840024D01*
X822553Y-2844850D01*
X830834Y-2845714D01*
X836320Y-2848102D01*
X839419Y-2851810D01*
X840333Y-2856534D01*
X839469Y-2861056D01*
X837082Y-2864459D01*
X833374Y-2866694D01*
X828649Y-2867456D01*
X824128Y-2866898D01*
X820369Y-2865374D01*
X817219Y-2863291D01*
X814679Y-2860852D01*
X811377Y-2864916D01*
X814425Y-2867710D01*
X818286Y-2870149D01*
X823163Y-2871876D01*
X829157Y-2872536D01*
X835964Y-2871419D01*
X841451Y-2868269D01*
X845108Y-2863240D01*
X846429Y-2856534D01*
X845515Y-2851302D01*
X842975Y-2847136D01*
X839266Y-2844088D01*
X834745Y-2842310D01*
X834745Y-2842056D01*
X838758Y-2840075D01*
X841908Y-2837129D01*
X843940Y-2833319D01*
X844651Y-2828594D01*
X843483Y-2822651D01*
X840232Y-2818282D01*
X835253Y-2815539D01*
G37*
G36*
X697077Y-2815640D02*
G01*
X697077Y-2871520D01*
X703427Y-2871520D01*
X703427Y-2815640D01*
G37*
G36*
X788009Y-2815640D02*
G01*
X782980Y-2817926D01*
X779983Y-2818790D01*
X776579Y-2819450D01*
X776579Y-2823514D01*
X786485Y-2823514D01*
X786485Y-2866440D01*
X774039Y-2866440D01*
X774039Y-2871520D01*
X804011Y-2871520D01*
X804011Y-2866440D01*
X792581Y-2866440D01*
X792581Y-2815640D01*
G37*
G36*
X739241Y-2714599D02*
G01*
X734263Y-2715107D01*
X729691Y-2716580D01*
X725627Y-2718968D01*
X722223Y-2722270D01*
X719429Y-2726385D01*
X717346Y-2731312D01*
X716076Y-2736951D01*
X715619Y-2743301D01*
X721969Y-2743301D01*
X723239Y-2733700D01*
X726744Y-2726385D01*
X732180Y-2721813D01*
X739241Y-2720187D01*
X746201Y-2721813D01*
X751586Y-2726385D01*
X755040Y-2733700D01*
X756259Y-2743301D01*
X755040Y-2753106D01*
X751586Y-2760522D01*
X746201Y-2765247D01*
X739241Y-2766923D01*
X732180Y-2765247D01*
X726744Y-2760522D01*
X723239Y-2753106D01*
X721969Y-2743301D01*
X715619Y-2743301D01*
X716076Y-2749651D01*
X717346Y-2755341D01*
X719429Y-2760370D01*
X722223Y-2764586D01*
X725627Y-2767939D01*
X729691Y-2770428D01*
X734263Y-2771952D01*
X739241Y-2772511D01*
X744220Y-2771952D01*
X748690Y-2770428D01*
X752703Y-2767939D01*
X756107Y-2764586D01*
X758850Y-2760370D01*
X760933Y-2755341D01*
X762203Y-2749651D01*
X762609Y-2743301D01*
X762203Y-2736951D01*
X760933Y-2731312D01*
X758850Y-2726385D01*
X756107Y-2722270D01*
X752703Y-2718968D01*
X748690Y-2716580D01*
X744220Y-2715107D01*
G37*
G36*
X786485Y-2714599D02*
G01*
X781710Y-2715209D01*
X777544Y-2716885D01*
X773734Y-2719527D01*
X770229Y-2722981D01*
X774039Y-2726283D01*
X776528Y-2723743D01*
X779322Y-2721660D01*
X782421Y-2720187D01*
X785723Y-2719679D01*
X790498Y-2720594D01*
X793851Y-2723032D01*
X795782Y-2726740D01*
X796391Y-2731363D01*
X796036Y-2735072D01*
X794918Y-2738932D01*
X792988Y-2742996D01*
X790244Y-2747314D01*
X786688Y-2751937D01*
X782269Y-2756814D01*
X776986Y-2762046D01*
X770737Y-2767685D01*
X770737Y-2771495D01*
X805281Y-2771495D01*
X805281Y-2766161D01*
X786993Y-2766212D01*
X780135Y-2766669D01*
X784961Y-2761894D01*
X789330Y-2757220D01*
X793140Y-2752648D01*
X796391Y-2748229D01*
X798982Y-2743860D01*
X800912Y-2739542D01*
X802081Y-2735326D01*
X802487Y-2731109D01*
X801420Y-2724353D01*
X798220Y-2719120D01*
X793191Y-2715768D01*
G37*
G36*
X828903Y-2714599D02*
G01*
X824280Y-2715107D01*
X820216Y-2716580D01*
X816660Y-2718663D01*
X813409Y-2721203D01*
X816711Y-2725267D01*
X819353Y-2723134D01*
X822248Y-2721406D01*
X825347Y-2720238D01*
X828649Y-2719679D01*
X832662Y-2720441D01*
X835710Y-2722372D01*
X837641Y-2725267D01*
X838301Y-2729077D01*
X837488Y-2733344D01*
X834847Y-2736799D01*
X829970Y-2739136D01*
X822553Y-2739999D01*
X822553Y-2744825D01*
X830834Y-2745689D01*
X836320Y-2748076D01*
X839419Y-2751785D01*
X840333Y-2756509D01*
X839469Y-2760980D01*
X837082Y-2764434D01*
X833374Y-2766669D01*
X828649Y-2767431D01*
X824128Y-2766872D01*
X820369Y-2765348D01*
X817219Y-2763266D01*
X814679Y-2760827D01*
X811377Y-2764891D01*
X814425Y-2767685D01*
X818286Y-2770124D01*
X823163Y-2771851D01*
X829157Y-2772511D01*
X835964Y-2771394D01*
X841451Y-2768193D01*
X845108Y-2763164D01*
X846429Y-2756509D01*
X845515Y-2751277D01*
X842975Y-2747111D01*
X839266Y-2744063D01*
X834745Y-2742285D01*
X834745Y-2742031D01*
X838758Y-2740050D01*
X841908Y-2737104D01*
X843940Y-2733294D01*
X844651Y-2728569D01*
X843483Y-2722626D01*
X840232Y-2718257D01*
X835253Y-2715514D01*
G37*
G36*
X697077Y-2715615D02*
G01*
X697077Y-2771495D01*
X703427Y-2771495D01*
X703427Y-2715615D01*
G37*
G36*
X739140Y-2614574D02*
G01*
X734110Y-2615031D01*
X729538Y-2616555D01*
X725525Y-2618943D01*
X722071Y-2622245D01*
X719328Y-2626360D01*
X717245Y-2631287D01*
X715975Y-2636926D01*
X715518Y-2643276D01*
X721868Y-2643276D01*
X723087Y-2633624D01*
X726592Y-2626360D01*
X732028Y-2621737D01*
X739140Y-2620162D01*
X746099Y-2621737D01*
X751484Y-2626360D01*
X754938Y-2633624D01*
X756158Y-2643276D01*
X754938Y-2653030D01*
X751484Y-2660497D01*
X746099Y-2665222D01*
X739140Y-2666898D01*
X732028Y-2665222D01*
X726592Y-2660497D01*
X723087Y-2653030D01*
X721868Y-2643276D01*
X715518Y-2643276D01*
X715975Y-2649626D01*
X717245Y-2655316D01*
X719328Y-2660294D01*
X722071Y-2664510D01*
X725525Y-2667914D01*
X729538Y-2670403D01*
X734110Y-2671927D01*
X739140Y-2672486D01*
X744067Y-2671927D01*
X748588Y-2670403D01*
X752551Y-2667914D01*
X755954Y-2664510D01*
X758748Y-2660294D01*
X760780Y-2655316D01*
X762050Y-2649626D01*
X762508Y-2643276D01*
X762050Y-2636926D01*
X760780Y-2631287D01*
X758748Y-2626360D01*
X755954Y-2622245D01*
X752551Y-2618943D01*
X748588Y-2616555D01*
X744067Y-2615031D01*
G37*
G36*
X788162Y-2614574D02*
G01*
X784352Y-2614980D01*
X780948Y-2616301D01*
X778002Y-2618536D01*
X775512Y-2621686D01*
X773531Y-2625699D01*
X772109Y-2630627D01*
X771194Y-2636469D01*
X770890Y-2643276D01*
X776986Y-2643276D01*
X777798Y-2632710D01*
X780084Y-2625344D01*
X783640Y-2621026D01*
X788162Y-2619654D01*
X792530Y-2621026D01*
X795985Y-2625344D01*
X798271Y-2632710D01*
X799084Y-2643276D01*
X798271Y-2654096D01*
X795985Y-2661615D01*
X792530Y-2665984D01*
X788162Y-2667406D01*
X783640Y-2665984D01*
X780084Y-2661615D01*
X777798Y-2654096D01*
X776986Y-2643276D01*
X770890Y-2643276D01*
X771194Y-2650134D01*
X772109Y-2656078D01*
X773531Y-2661107D01*
X775512Y-2665171D01*
X778002Y-2668371D01*
X780948Y-2670657D01*
X784352Y-2672029D01*
X788162Y-2672486D01*
X791870Y-2672029D01*
X795223Y-2670657D01*
X798118Y-2668371D01*
X800557Y-2665171D01*
X802538Y-2661107D01*
X803960Y-2656078D01*
X804875Y-2650134D01*
X805180Y-2643276D01*
X804875Y-2636469D01*
X803960Y-2630627D01*
X802538Y-2625699D01*
X800557Y-2621686D01*
X798118Y-2618536D01*
X795223Y-2616301D01*
X791870Y-2614980D01*
G37*
G36*
X696976Y-2615590D02*
G01*
X696976Y-2671470D01*
X703326Y-2671470D01*
X703326Y-2615590D01*
G37*
G36*
X817372Y-2615590D02*
G01*
X815594Y-2641498D01*
X818896Y-2643784D01*
X821283Y-2642260D01*
X823518Y-2641244D01*
X825906Y-2640634D01*
X828548Y-2640482D01*
X833424Y-2641346D01*
X837184Y-2643936D01*
X839622Y-2648051D01*
X840486Y-2653690D01*
X839520Y-2659329D01*
X836879Y-2663647D01*
X832967Y-2666441D01*
X828294Y-2667406D01*
X823671Y-2666847D01*
X819861Y-2665425D01*
X816813Y-2663444D01*
X814324Y-2661056D01*
X811022Y-2665120D01*
X814171Y-2667762D01*
X818032Y-2670098D01*
X822807Y-2671826D01*
X828802Y-2672486D01*
X835456Y-2671216D01*
X841095Y-2667508D01*
X845108Y-2661513D01*
X846582Y-2653436D01*
X845312Y-2645410D01*
X841756Y-2639872D01*
X836523Y-2636672D01*
X830071Y-2635656D01*
X827582Y-2635758D01*
X825347Y-2636215D01*
X823264Y-2636926D01*
X821182Y-2637942D01*
X822960Y-2620924D01*
X844042Y-2620924D01*
X844042Y-2615590D01*
G37*
G36*
X738733Y-2514498D02*
G01*
X733755Y-2515006D01*
X729183Y-2516479D01*
X725119Y-2518918D01*
X721715Y-2522220D01*
X718921Y-2526334D01*
X716838Y-2531211D01*
X715568Y-2536901D01*
X715111Y-2543200D01*
X721461Y-2543200D01*
X722731Y-2533599D01*
X726236Y-2526334D01*
X731672Y-2521712D01*
X738733Y-2520086D01*
X745693Y-2521712D01*
X751078Y-2526334D01*
X754532Y-2533599D01*
X755751Y-2543200D01*
X754532Y-2553004D01*
X751078Y-2560472D01*
X745693Y-2565196D01*
X738733Y-2566822D01*
X731672Y-2565196D01*
X726236Y-2560472D01*
X722731Y-2553004D01*
X721461Y-2543200D01*
X715111Y-2543200D01*
X715568Y-2549550D01*
X716838Y-2555290D01*
X718921Y-2560269D01*
X721715Y-2564485D01*
X725119Y-2567889D01*
X729183Y-2570378D01*
X733755Y-2571902D01*
X738733Y-2572410D01*
X743712Y-2571902D01*
X748182Y-2570378D01*
X752195Y-2567889D01*
X755599Y-2564485D01*
X758342Y-2560269D01*
X760425Y-2555290D01*
X761695Y-2549550D01*
X762101Y-2543200D01*
X761695Y-2536901D01*
X760425Y-2531211D01*
X758342Y-2526334D01*
X755599Y-2522220D01*
X752195Y-2518918D01*
X748182Y-2516479D01*
X743712Y-2515006D01*
G37*
G36*
X833221Y-2514498D02*
G01*
X829310Y-2514904D01*
X825550Y-2516174D01*
X822147Y-2518308D01*
X819099Y-2521458D01*
X816559Y-2525623D01*
X814578Y-2530906D01*
X813358Y-2537358D01*
X812901Y-2544978D01*
X813114Y-2548788D01*
X818997Y-2548788D01*
X821944Y-2545486D01*
X824941Y-2543200D01*
X827938Y-2541879D01*
X830681Y-2541422D01*
X835355Y-2542387D01*
X838555Y-2545080D01*
X840486Y-2549144D01*
X841095Y-2554376D01*
X840384Y-2559608D01*
X838403Y-2563723D01*
X835355Y-2566416D01*
X831443Y-2567330D01*
X826414Y-2566111D01*
X822655Y-2562555D01*
X820216Y-2556713D01*
X818997Y-2548788D01*
X813114Y-2548788D01*
X813257Y-2551328D01*
X814273Y-2556865D01*
X815898Y-2561590D01*
X818083Y-2565450D01*
X820775Y-2568498D01*
X823976Y-2570683D01*
X827532Y-2572004D01*
X831443Y-2572410D01*
X837437Y-2571089D01*
X842365Y-2567432D01*
X845718Y-2561691D01*
X846937Y-2554376D01*
X845921Y-2546705D01*
X842873Y-2541270D01*
X838047Y-2537968D01*
X831697Y-2536850D01*
X828243Y-2537307D01*
X824839Y-2538679D01*
X821639Y-2540812D01*
X818743Y-2543708D01*
X820064Y-2532481D01*
X823264Y-2525115D01*
X827887Y-2521102D01*
X833475Y-2519832D01*
X836117Y-2520137D01*
X838555Y-2520950D01*
X840740Y-2522321D01*
X842619Y-2524150D01*
X845921Y-2520086D01*
X843483Y-2517952D01*
X840638Y-2516174D01*
X837285Y-2514955D01*
G37*
G36*
X696569Y-2515514D02*
G01*
X696569Y-2571394D01*
X702919Y-2571394D01*
X702919Y-2515514D01*
G37*
G36*
X787501Y-2515514D02*
G01*
X785114Y-2516784D01*
X782472Y-2517800D01*
X779475Y-2518664D01*
X776071Y-2519324D01*
X776071Y-2523388D01*
X785977Y-2523388D01*
X785977Y-2566314D01*
X773531Y-2566314D01*
X773531Y-2571394D01*
X803503Y-2571394D01*
X803503Y-2566314D01*
X792073Y-2566314D01*
X792073Y-2515514D01*
G37*
G36*
X739140Y-2414473D02*
G01*
X734110Y-2414981D01*
X729538Y-2416454D01*
X725525Y-2418842D01*
X722071Y-2422144D01*
X719328Y-2426258D01*
X717245Y-2431186D01*
X715975Y-2436825D01*
X715518Y-2443175D01*
X721868Y-2443175D01*
X723087Y-2433574D01*
X726592Y-2426258D01*
X732028Y-2421686D01*
X739140Y-2420061D01*
X746099Y-2421686D01*
X751484Y-2426309D01*
X754938Y-2433574D01*
X756158Y-2443175D01*
X754938Y-2452979D01*
X751484Y-2460396D01*
X746099Y-2465120D01*
X739140Y-2466797D01*
X732028Y-2465120D01*
X726592Y-2460396D01*
X723087Y-2452979D01*
X721868Y-2443175D01*
X715518Y-2443175D01*
X715975Y-2449525D01*
X717245Y-2455214D01*
X719328Y-2460244D01*
X722071Y-2464460D01*
X725525Y-2467813D01*
X729538Y-2470302D01*
X734110Y-2471877D01*
X739140Y-2472385D01*
X744067Y-2471877D01*
X748588Y-2470302D01*
X752551Y-2467813D01*
X755954Y-2464460D01*
X758748Y-2460244D01*
X760780Y-2455265D01*
X762050Y-2449525D01*
X762508Y-2443175D01*
X762050Y-2436825D01*
X760780Y-2431186D01*
X758748Y-2426258D01*
X755954Y-2422144D01*
X752551Y-2418842D01*
X748588Y-2416454D01*
X744067Y-2414981D01*
G37*
G36*
X696976Y-2415489D02*
G01*
X696976Y-2471369D01*
X703326Y-2471369D01*
X703326Y-2415489D01*
G37*
G36*
X787908Y-2415489D02*
G01*
X782878Y-2417775D01*
X779881Y-2418638D01*
X776478Y-2419299D01*
X776478Y-2423363D01*
X786384Y-2423363D01*
X786384Y-2466289D01*
X773938Y-2466289D01*
X773938Y-2471369D01*
X803910Y-2471369D01*
X803910Y-2466289D01*
X792480Y-2466289D01*
X792480Y-2415489D01*
G37*
G36*
X817372Y-2415489D02*
G01*
X815594Y-2441397D01*
X818896Y-2443683D01*
X821283Y-2442210D01*
X823518Y-2441194D01*
X825906Y-2440584D01*
X828548Y-2440381D01*
X833424Y-2441244D01*
X837184Y-2443835D01*
X839622Y-2448001D01*
X840486Y-2453589D01*
X839520Y-2459278D01*
X836879Y-2463596D01*
X832967Y-2466340D01*
X828294Y-2467305D01*
X823671Y-2466797D01*
X819861Y-2465374D01*
X816813Y-2463342D01*
X814324Y-2460955D01*
X811022Y-2465019D01*
X814171Y-2467660D01*
X818032Y-2470048D01*
X822807Y-2471724D01*
X828802Y-2472385D01*
X835456Y-2471115D01*
X841095Y-2467457D01*
X845108Y-2461463D01*
X846582Y-2453335D01*
X845312Y-2445308D01*
X841756Y-2439771D01*
X836523Y-2436571D01*
X830071Y-2435555D01*
X827582Y-2435707D01*
X825347Y-2436114D01*
X823264Y-2436825D01*
X821182Y-2437841D01*
X822960Y-2420823D01*
X844042Y-2420823D01*
X844042Y-2415489D01*
G37*
G36*
X6187490Y-2198878D02*
G01*
X6187490Y-2205736D01*
X6208826Y-2205736D01*
X6216751Y-2206447D01*
X6222593Y-2208784D01*
X6226149Y-2213000D01*
X6227368Y-2219452D01*
X6226149Y-2226056D01*
X6222593Y-2230628D01*
X6216751Y-2233320D01*
X6208826Y-2234184D01*
X6195872Y-2234184D01*
X6195872Y-2205736D01*
X6187490Y-2205736D01*
X6187490Y-2273300D01*
X6195872Y-2273300D01*
X6195872Y-2241296D01*
X6209842Y-2241296D01*
X6228384Y-2273300D01*
X6237782Y-2273300D01*
X6218732Y-2240280D01*
X6225844Y-2237689D01*
X6231280Y-2233371D01*
X6234785Y-2227326D01*
X6236004Y-2219452D01*
X6235547Y-2214168D01*
X6234125Y-2209800D01*
X6231839Y-2206244D01*
X6228791Y-2203450D01*
X6225032Y-2201367D01*
X6220612Y-2199944D01*
X6215583Y-2199132D01*
X6210096Y-2198878D01*
G37*
G36*
X6268516Y-2198878D02*
G01*
X6265367Y-2200503D01*
X6261862Y-2201875D01*
X6257899Y-2203043D01*
X6253276Y-2203958D01*
X6253276Y-2209292D01*
X6266484Y-2209292D01*
X6266484Y-2266442D01*
X6249720Y-2266442D01*
X6249720Y-2273300D01*
X6289852Y-2273300D01*
X6289852Y-2266442D01*
X6274612Y-2266442D01*
X6274612Y-2198878D01*
G37*
G36*
X6307632Y-2198878D02*
G01*
X6305346Y-2233422D01*
X6309918Y-2236216D01*
X6313017Y-2234387D01*
X6316014Y-2233015D01*
X6319113Y-2232202D01*
X6322618Y-2231898D01*
X6329222Y-2233117D01*
X6334252Y-2236571D01*
X6337503Y-2242058D01*
X6338620Y-2249424D01*
X6337300Y-2256993D01*
X6333693Y-2262784D01*
X6328460Y-2266442D01*
X6322110Y-2267712D01*
X6316065Y-2267000D01*
X6311138Y-2265121D01*
X6307074Y-2262479D01*
X6303568Y-2259330D01*
X6299504Y-2264664D01*
X6303568Y-2268372D01*
X6308648Y-2271522D01*
X6314998Y-2273757D01*
X6322872Y-2274570D01*
X6327394Y-2274163D01*
X6331762Y-2272893D01*
X6335776Y-2270810D01*
X6339382Y-2267966D01*
X6342430Y-2264359D01*
X6344767Y-2259990D01*
X6346240Y-2254910D01*
X6346748Y-2249170D01*
X6346291Y-2243429D01*
X6345021Y-2238502D01*
X6342989Y-2234438D01*
X6340297Y-2231186D01*
X6336995Y-2228646D01*
X6333286Y-2226919D01*
X6329121Y-2225903D01*
X6324650Y-2225548D01*
X6321298Y-2225751D01*
X6318351Y-2226310D01*
X6315608Y-2227275D01*
X6312966Y-2228596D01*
X6314998Y-2205990D01*
X6343192Y-2205990D01*
X6343192Y-2198878D01*
G37*
G36*
X6314541Y-2718308D02*
G01*
X6310325Y-2718765D01*
X6306413Y-2720035D01*
X6302857Y-2722118D01*
X6299708Y-2724912D01*
X6297117Y-2728366D01*
X6295136Y-2732430D01*
X6293866Y-2737053D01*
X6293459Y-2742184D01*
X6301587Y-2742184D01*
X6302552Y-2735173D01*
X6305296Y-2729738D01*
X6309410Y-2726182D01*
X6314541Y-2724912D01*
X6321196Y-2726486D01*
X6326225Y-2731211D01*
X6329629Y-2738831D01*
X6331305Y-2749296D01*
X6327343Y-2753868D01*
X6323279Y-2757068D01*
X6319215Y-2758846D01*
X6315303Y-2759456D01*
X6309156Y-2758236D01*
X6304889Y-2754731D01*
X6302400Y-2749296D01*
X6301587Y-2742184D01*
X6293459Y-2742184D01*
X6293815Y-2747619D01*
X6294882Y-2752394D01*
X6296660Y-2756408D01*
X6299047Y-2759659D01*
X6301994Y-2762250D01*
X6305448Y-2764078D01*
X6309410Y-2765196D01*
X6313779Y-2765552D01*
X6318656Y-2764891D01*
X6323279Y-2763062D01*
X6327546Y-2760065D01*
X6331305Y-2756154D01*
X6330645Y-2764485D01*
X6329324Y-2771394D01*
X6327495Y-2776982D01*
X6325108Y-2781350D01*
X6322314Y-2784551D01*
X6319164Y-2786786D01*
X6315811Y-2788005D01*
X6312255Y-2788412D01*
X6308699Y-2788056D01*
X6305296Y-2786938D01*
X6302248Y-2785110D01*
X6299555Y-2782570D01*
X6294983Y-2787904D01*
X6298336Y-2790901D01*
X6302298Y-2793187D01*
X6307023Y-2794711D01*
X6312509Y-2795270D01*
X6317589Y-2794711D01*
X6322466Y-2792984D01*
X6326936Y-2790037D01*
X6330950Y-2785770D01*
X6334353Y-2780030D01*
X6336944Y-2772765D01*
X6338570Y-2763926D01*
X6339179Y-2753360D01*
X6338671Y-2745130D01*
X6337300Y-2738018D01*
X6335115Y-2732024D01*
X6332169Y-2727096D01*
X6328562Y-2723235D01*
X6324396Y-2720492D01*
X6319672Y-2718866D01*
G37*
G36*
X6179921Y-2719578D02*
G01*
X6179921Y-2726436D01*
X6201257Y-2726436D01*
X6209182Y-2727147D01*
X6214973Y-2729484D01*
X6218580Y-2733700D01*
X6219799Y-2740152D01*
X6218580Y-2746756D01*
X6214973Y-2751328D01*
X6209182Y-2754020D01*
X6201257Y-2754884D01*
X6188303Y-2754884D01*
X6188303Y-2726436D01*
X6179921Y-2726436D01*
X6179921Y-2794000D01*
X6188303Y-2794000D01*
X6188303Y-2761996D01*
X6202273Y-2761996D01*
X6220815Y-2794000D01*
X6230213Y-2794000D01*
X6211163Y-2760980D01*
X6218224Y-2758389D01*
X6223711Y-2754071D01*
X6227165Y-2748026D01*
X6228435Y-2740152D01*
X6227927Y-2734868D01*
X6226505Y-2730500D01*
X6224219Y-2726944D01*
X6221171Y-2724150D01*
X6217412Y-2722067D01*
X6212992Y-2720644D01*
X6208014Y-2719832D01*
X6202527Y-2719578D01*
G37*
G36*
X6260947Y-2719578D02*
G01*
X6257747Y-2721203D01*
X6254242Y-2722575D01*
X6250279Y-2723743D01*
X6245707Y-2724658D01*
X6245707Y-2729992D01*
X6258915Y-2729992D01*
X6258915Y-2787142D01*
X6242151Y-2787142D01*
X6242151Y-2794000D01*
X6282283Y-2794000D01*
X6282283Y-2787142D01*
X6267043Y-2787142D01*
X6267043Y-2719578D01*
G37*
G36*
X5472938Y-2832608D02*
G01*
X5466334Y-2833268D01*
X5460339Y-2835249D01*
X5455005Y-2838450D01*
X5450484Y-2842818D01*
X5446776Y-2848254D01*
X5443982Y-2854807D01*
X5442305Y-2862275D01*
X5441696Y-2870708D01*
X5450332Y-2870708D01*
X5450738Y-2864002D01*
X5451957Y-2857957D01*
X5453888Y-2852724D01*
X5456478Y-2848305D01*
X5459780Y-2844749D01*
X5463641Y-2842107D01*
X5468010Y-2840532D01*
X5472938Y-2839974D01*
X5477916Y-2840532D01*
X5482386Y-2842107D01*
X5486298Y-2844749D01*
X5489600Y-2848305D01*
X5492242Y-2852724D01*
X5494172Y-2857957D01*
X5495391Y-2864002D01*
X5495798Y-2870708D01*
X5495391Y-2877718D01*
X5494172Y-2883966D01*
X5492242Y-2889453D01*
X5489600Y-2894025D01*
X5486298Y-2897733D01*
X5482386Y-2900476D01*
X5477916Y-2902153D01*
X5472938Y-2902712D01*
X5468010Y-2902153D01*
X5463641Y-2900476D01*
X5459780Y-2897733D01*
X5456478Y-2894025D01*
X5453888Y-2889453D01*
X5451957Y-2883966D01*
X5450738Y-2877718D01*
X5450332Y-2870708D01*
X5441696Y-2870708D01*
X5442204Y-2878632D01*
X5443677Y-2885795D01*
X5446014Y-2892094D01*
X5449163Y-2897530D01*
X5453126Y-2902051D01*
X5457748Y-2905556D01*
X5463032Y-2907995D01*
X5468874Y-2909316D01*
X5472887Y-2916326D01*
X5478678Y-2921762D01*
X5486247Y-2925318D01*
X5495544Y-2926588D01*
X5501487Y-2926181D01*
X5503875Y-2925724D01*
X5505704Y-2925064D01*
X5504180Y-2918460D01*
X5500827Y-2919171D01*
X5496560Y-2919476D01*
X5490565Y-2918866D01*
X5485333Y-2916986D01*
X5481015Y-2913786D01*
X5477764Y-2909316D01*
X5483504Y-2907842D01*
X5488686Y-2905302D01*
X5493258Y-2901746D01*
X5497118Y-2897276D01*
X5500217Y-2891840D01*
X5502503Y-2885592D01*
X5503926Y-2878531D01*
X5504434Y-2870708D01*
X5503824Y-2862275D01*
X5502097Y-2854807D01*
X5499354Y-2848254D01*
X5495645Y-2842818D01*
X5491073Y-2838450D01*
X5485688Y-2835249D01*
X5479592Y-2833268D01*
G37*
G36*
X5521706Y-2833878D02*
G01*
X5519420Y-2868422D01*
X5523992Y-2871216D01*
X5526938Y-2869387D01*
X5529834Y-2868015D01*
X5532932Y-2867202D01*
X5536438Y-2866898D01*
X5542991Y-2868117D01*
X5548071Y-2871571D01*
X5551322Y-2877058D01*
X5552440Y-2884424D01*
X5551170Y-2891993D01*
X5547664Y-2897784D01*
X5542483Y-2901442D01*
X5536184Y-2902712D01*
X5530088Y-2902000D01*
X5525058Y-2900121D01*
X5520893Y-2897479D01*
X5517388Y-2894330D01*
X5513324Y-2899664D01*
X5517489Y-2903372D01*
X5522620Y-2906522D01*
X5528919Y-2908757D01*
X5536692Y-2909570D01*
X5541314Y-2909163D01*
X5545734Y-2907893D01*
X5549798Y-2905810D01*
X5553405Y-2902966D01*
X5556453Y-2899359D01*
X5558790Y-2894990D01*
X5560314Y-2889910D01*
X5560822Y-2884170D01*
X5560364Y-2878429D01*
X5559094Y-2873502D01*
X5557012Y-2869438D01*
X5554319Y-2866186D01*
X5551017Y-2863646D01*
X5547207Y-2861919D01*
X5542991Y-2860903D01*
X5538470Y-2860548D01*
X5535218Y-2860751D01*
X5532272Y-2861310D01*
X5529580Y-2862275D01*
X5527040Y-2863596D01*
X5529072Y-2840990D01*
X5557266Y-2840990D01*
X5557266Y-2833878D01*
G37*
G36*
X5472938Y-3264408D02*
G01*
X5466334Y-3265068D01*
X5460339Y-3267049D01*
X5455005Y-3270250D01*
X5450484Y-3274618D01*
X5446776Y-3280054D01*
X5443982Y-3286607D01*
X5442305Y-3294075D01*
X5441696Y-3302508D01*
X5450332Y-3302508D01*
X5450738Y-3295802D01*
X5451957Y-3289757D01*
X5453888Y-3284524D01*
X5456478Y-3280105D01*
X5459780Y-3276549D01*
X5463641Y-3273907D01*
X5468010Y-3272332D01*
X5472938Y-3271774D01*
X5477916Y-3272332D01*
X5482386Y-3273907D01*
X5486298Y-3276549D01*
X5489600Y-3280105D01*
X5492242Y-3284524D01*
X5494172Y-3289757D01*
X5495391Y-3295802D01*
X5495798Y-3302508D01*
X5495391Y-3309518D01*
X5494172Y-3315766D01*
X5492242Y-3321253D01*
X5489600Y-3325825D01*
X5486298Y-3329533D01*
X5482386Y-3332276D01*
X5477916Y-3333953D01*
X5472938Y-3334512D01*
X5468010Y-3333953D01*
X5463641Y-3332276D01*
X5459780Y-3329533D01*
X5456478Y-3325825D01*
X5453888Y-3321253D01*
X5451957Y-3315766D01*
X5450738Y-3309518D01*
X5450332Y-3302508D01*
X5441696Y-3302508D01*
X5442204Y-3310432D01*
X5443677Y-3317595D01*
X5446014Y-3323894D01*
X5449163Y-3329330D01*
X5453126Y-3333851D01*
X5457748Y-3337356D01*
X5463032Y-3339795D01*
X5468874Y-3341115D01*
X5472887Y-3348126D01*
X5478678Y-3353562D01*
X5486247Y-3357118D01*
X5495544Y-3358387D01*
X5501487Y-3357981D01*
X5503875Y-3357524D01*
X5505704Y-3356864D01*
X5504180Y-3350260D01*
X5500827Y-3350971D01*
X5496560Y-3351276D01*
X5490565Y-3350666D01*
X5485333Y-3348786D01*
X5481015Y-3345586D01*
X5477764Y-3341115D01*
X5483504Y-3339642D01*
X5488686Y-3337102D01*
X5493258Y-3333546D01*
X5497118Y-3329076D01*
X5500217Y-3323640D01*
X5502503Y-3317392D01*
X5503926Y-3310331D01*
X5504434Y-3302508D01*
X5503824Y-3294075D01*
X5502097Y-3286607D01*
X5499354Y-3280054D01*
X5495645Y-3274618D01*
X5491073Y-3270250D01*
X5485688Y-3267049D01*
X5479592Y-3265068D01*
G37*
G36*
X5543550Y-3264408D02*
G01*
X5538317Y-3264915D01*
X5533288Y-3266592D01*
X5528716Y-3269437D01*
X5524652Y-3273552D01*
X5521198Y-3279089D01*
X5518607Y-3286048D01*
X5516981Y-3294583D01*
X5516372Y-3304794D01*
X5516659Y-3310128D01*
X5524246Y-3310128D01*
X5528157Y-3305556D01*
X5532221Y-3302508D01*
X5536234Y-3300780D01*
X5539994Y-3300222D01*
X5546140Y-3301441D01*
X5550509Y-3304895D01*
X5553100Y-3310280D01*
X5553964Y-3317240D01*
X5552948Y-3324351D01*
X5550204Y-3329889D01*
X5546039Y-3333496D01*
X5540756Y-3334765D01*
X5534253Y-3333140D01*
X5529275Y-3328365D01*
X5525922Y-3320643D01*
X5524246Y-3310128D01*
X5516659Y-3310128D01*
X5516829Y-3313277D01*
X5518200Y-3320694D01*
X5520334Y-3326993D01*
X5523230Y-3332124D01*
X5526786Y-3336137D01*
X5530951Y-3339033D01*
X5535625Y-3340811D01*
X5540756Y-3341370D01*
X5544921Y-3340912D01*
X5548884Y-3339642D01*
X5552440Y-3337560D01*
X5555589Y-3334715D01*
X5558180Y-3331260D01*
X5560161Y-3327095D01*
X5561380Y-3322421D01*
X5561838Y-3317240D01*
X5561482Y-3311855D01*
X5560415Y-3307181D01*
X5558688Y-3303219D01*
X5556300Y-3299968D01*
X5553354Y-3297428D01*
X5549849Y-3295599D01*
X5545785Y-3294481D01*
X5541264Y-3294126D01*
X5536692Y-3294735D01*
X5532170Y-3296462D01*
X5527852Y-3299256D01*
X5523992Y-3303015D01*
X5524550Y-3294887D01*
X5525820Y-3288080D01*
X5527751Y-3282594D01*
X5530189Y-3278276D01*
X5533085Y-3275076D01*
X5536387Y-3272891D01*
X5539994Y-3271672D01*
X5543804Y-3271265D01*
X5547156Y-3271672D01*
X5550357Y-3272840D01*
X5553252Y-3274720D01*
X5555742Y-3277108D01*
X5560568Y-3271774D01*
X5557215Y-3268776D01*
X5553303Y-3266490D01*
X5548731Y-3264966D01*
G37*
G36*
X940053Y-2151481D02*
G01*
X935888Y-2151938D01*
X931976Y-2153259D01*
X928420Y-2155291D01*
X925372Y-2158136D01*
X922782Y-2161590D01*
X920851Y-2165654D01*
X919632Y-2170277D01*
X919226Y-2175357D01*
X927100Y-2175357D01*
X928065Y-2168398D01*
X930808Y-2162962D01*
X934923Y-2159406D01*
X940053Y-2158136D01*
X946861Y-2159711D01*
X951941Y-2164384D01*
X955294Y-2172055D01*
X956818Y-2182520D01*
X953008Y-2187092D01*
X948893Y-2190242D01*
X944778Y-2192070D01*
X940816Y-2192629D01*
X934821Y-2191410D01*
X930503Y-2187905D01*
X927963Y-2182469D01*
X927100Y-2175357D01*
X919226Y-2175357D01*
X919581Y-2180844D01*
X920648Y-2185568D01*
X922375Y-2189581D01*
X924712Y-2192883D01*
X927658Y-2195423D01*
X931113Y-2197303D01*
X935075Y-2198370D01*
X939546Y-2198776D01*
X944270Y-2198116D01*
X948893Y-2196236D01*
X953211Y-2193290D01*
X957071Y-2189378D01*
X956411Y-2197658D01*
X955141Y-2204567D01*
X953262Y-2210155D01*
X950874Y-2214524D01*
X948029Y-2217775D01*
X944880Y-2219960D01*
X941425Y-2221230D01*
X937768Y-2221636D01*
X934212Y-2221230D01*
X930859Y-2220112D01*
X927862Y-2218283D01*
X925321Y-2215794D01*
X920496Y-2221128D01*
X923848Y-2224074D01*
X927811Y-2226411D01*
X932535Y-2227935D01*
X938021Y-2228494D01*
X943203Y-2227935D01*
X948080Y-2226208D01*
X952601Y-2223262D01*
X956614Y-2218944D01*
X959916Y-2213203D01*
X962507Y-2205990D01*
X964133Y-2197100D01*
X964692Y-2186584D01*
X964234Y-2178354D01*
X962863Y-2171242D01*
X960729Y-2165197D01*
X957783Y-2160270D01*
X954227Y-2156460D01*
X950010Y-2153716D01*
X945286Y-2152040D01*
G37*
G36*
X861314Y-2152802D02*
G01*
X861314Y-2159660D01*
X882650Y-2159660D01*
X890574Y-2160371D01*
X896416Y-2162657D01*
X899972Y-2166924D01*
X901192Y-2173376D01*
X899972Y-2179929D01*
X896416Y-2184552D01*
X890574Y-2187194D01*
X882650Y-2188057D01*
X869696Y-2188057D01*
X869696Y-2159660D01*
X861314Y-2159660D01*
X861314Y-2227173D01*
X869696Y-2227173D01*
X869696Y-2195220D01*
X883666Y-2195220D01*
X902208Y-2227173D01*
X911606Y-2227173D01*
X892556Y-2194204D01*
X899668Y-2191613D01*
X905103Y-2187295D01*
X908608Y-2181199D01*
X909828Y-2173376D01*
X909319Y-2168093D01*
X907897Y-2163724D01*
X905662Y-2160168D01*
X902614Y-2157323D01*
X898804Y-2155291D01*
X894384Y-2153869D01*
X889406Y-2153056D01*
X883919Y-2152802D01*
G37*
G36*
X6210808Y-4026408D02*
G01*
X6204000Y-4027068D01*
X6197803Y-4029100D01*
X6192266Y-4032351D01*
X6187490Y-4036771D01*
X6183630Y-4042308D01*
X6180734Y-4048912D01*
X6178905Y-4056481D01*
X6178296Y-4065015D01*
X6178905Y-4073499D01*
X6180683Y-4081068D01*
X6183528Y-4087622D01*
X6187338Y-4093159D01*
X6192012Y-4097528D01*
X6197498Y-4100728D01*
X6203594Y-4102709D01*
X6210300Y-4103370D01*
X6217107Y-4102658D01*
X6223050Y-4100626D01*
X6228283Y-4097274D01*
X6232906Y-4092701D01*
X6228080Y-4087368D01*
X6224320Y-4091076D01*
X6220256Y-4093768D01*
X6215735Y-4095445D01*
X6210554Y-4096004D01*
X6205372Y-4095445D01*
X6200749Y-4093819D01*
X6196736Y-4091127D01*
X6193332Y-4087520D01*
X6190589Y-4082999D01*
X6188608Y-4077665D01*
X6187338Y-4071569D01*
X6186932Y-4064762D01*
X6187389Y-4057954D01*
X6188608Y-4051858D01*
X6190691Y-4046575D01*
X6193434Y-4042105D01*
X6196888Y-4038549D01*
X6200952Y-4035958D01*
X6205626Y-4034332D01*
X6210808Y-4033774D01*
X6215481Y-4034282D01*
X6219596Y-4035704D01*
X6223203Y-4037939D01*
X6226302Y-4040886D01*
X6231128Y-4035551D01*
X6227419Y-4032097D01*
X6222796Y-4029151D01*
X6217208Y-4027170D01*
G37*
G36*
X6262878Y-4026408D02*
G01*
X6256934Y-4027068D01*
X6251549Y-4028897D01*
X6246672Y-4031640D01*
X6242304Y-4035044D01*
X6246876Y-4040632D01*
X6250279Y-4037634D01*
X6254089Y-4035298D01*
X6258204Y-4033723D01*
X6262624Y-4033012D01*
X6268059Y-4034028D01*
X6272123Y-4036568D01*
X6274714Y-4040428D01*
X6275578Y-4045458D01*
X6274511Y-4051300D01*
X6270955Y-4055973D01*
X6264554Y-4059072D01*
X6254750Y-4060190D01*
X6254750Y-4066540D01*
X6265722Y-4067657D01*
X6273038Y-4070858D01*
X6277102Y-4075734D01*
X6278372Y-4082034D01*
X6277203Y-4088028D01*
X6273952Y-4092600D01*
X6268923Y-4095496D01*
X6262624Y-4096512D01*
X6256680Y-4095800D01*
X6251702Y-4093921D01*
X6247485Y-4091178D01*
X6243828Y-4087876D01*
X6239764Y-4093210D01*
X6243726Y-4097070D01*
X6248857Y-4100271D01*
X6255308Y-4102557D01*
X6263132Y-4103370D01*
X6267907Y-4103014D01*
X6272377Y-4101947D01*
X6276340Y-4100169D01*
X6279794Y-4097782D01*
X6282588Y-4094784D01*
X6284722Y-4091178D01*
X6286042Y-4086961D01*
X6286500Y-4082287D01*
X6285230Y-4075328D01*
X6281877Y-4069740D01*
X6276848Y-4065625D01*
X6270752Y-4063237D01*
X6270752Y-4062984D01*
X6276136Y-4060139D01*
X6280302Y-4056227D01*
X6282994Y-4051096D01*
X6283960Y-4044696D01*
X6282385Y-4036923D01*
X6277965Y-4031183D01*
X6271310Y-4027627D01*
G37*
G36*
X5550408Y-4026408D02*
G01*
X5543600Y-4027068D01*
X5537403Y-4029100D01*
X5531866Y-4032351D01*
X5527090Y-4036771D01*
X5523230Y-4042308D01*
X5520334Y-4048912D01*
X5518505Y-4056481D01*
X5517896Y-4065015D01*
X5518505Y-4073499D01*
X5520283Y-4081068D01*
X5523128Y-4087622D01*
X5526938Y-4093159D01*
X5531612Y-4097528D01*
X5537098Y-4100728D01*
X5543194Y-4102709D01*
X5549900Y-4103370D01*
X5556707Y-4102658D01*
X5562650Y-4100626D01*
X5567883Y-4097274D01*
X5572506Y-4092701D01*
X5567680Y-4087368D01*
X5563920Y-4091076D01*
X5559856Y-4093768D01*
X5555335Y-4095445D01*
X5550154Y-4096004D01*
X5544972Y-4095445D01*
X5540349Y-4093819D01*
X5536336Y-4091127D01*
X5532932Y-4087520D01*
X5530189Y-4082999D01*
X5528208Y-4077665D01*
X5526938Y-4071569D01*
X5526532Y-4064762D01*
X5526989Y-4057954D01*
X5528208Y-4051858D01*
X5530291Y-4046575D01*
X5533034Y-4042105D01*
X5536488Y-4038549D01*
X5540552Y-4035958D01*
X5545226Y-4034332D01*
X5550408Y-4033774D01*
X5555081Y-4034282D01*
X5559196Y-4035704D01*
X5562803Y-4037939D01*
X5565902Y-4040886D01*
X5570728Y-4035551D01*
X5567019Y-4032097D01*
X5562396Y-4029151D01*
X5556808Y-4027170D01*
G37*
G36*
X5609844Y-4027678D02*
G01*
X5578929Y-4074668D01*
X5586984Y-4074668D01*
X5605018Y-4048251D01*
X5610860Y-4037329D01*
X5611368Y-4037329D01*
X5610860Y-4050537D01*
X5610860Y-4074668D01*
X5578929Y-4074668D01*
X5578094Y-4075937D01*
X5578094Y-4081272D01*
X5610860Y-4081272D01*
X5610860Y-4102100D01*
X5618480Y-4102100D01*
X5618480Y-4081272D01*
X5628640Y-4081272D01*
X5628640Y-4074668D01*
X5618480Y-4074668D01*
X5618480Y-4027678D01*
G37*
G36*
X5242814Y-4383278D02*
G01*
X5242814Y-4390136D01*
X5264150Y-4390136D01*
X5272074Y-4390847D01*
X5277916Y-4393184D01*
X5281472Y-4397400D01*
X5282692Y-4403852D01*
X5281472Y-4410456D01*
X5277916Y-4415028D01*
X5272074Y-4417720D01*
X5264150Y-4418584D01*
X5251196Y-4418584D01*
X5251196Y-4390136D01*
X5242814Y-4390136D01*
X5242814Y-4457700D01*
X5251196Y-4457700D01*
X5251196Y-4425696D01*
X5265166Y-4425696D01*
X5283708Y-4457700D01*
X5293106Y-4457700D01*
X5274056Y-4424680D01*
X5281168Y-4422089D01*
X5286603Y-4417771D01*
X5290108Y-4411726D01*
X5291328Y-4403852D01*
X5290820Y-4398568D01*
X5289397Y-4394200D01*
X5287162Y-4390644D01*
X5284063Y-4387850D01*
X5280304Y-4385767D01*
X5275884Y-4384344D01*
X5270906Y-4383532D01*
X5265420Y-4383278D01*
G37*
G36*
X5323840Y-4383278D02*
G01*
X5320690Y-4384903D01*
X5317185Y-4386275D01*
X5313172Y-4387443D01*
X5308600Y-4388358D01*
X5308600Y-4393692D01*
X5321808Y-4393692D01*
X5321808Y-4450842D01*
X5305044Y-4450842D01*
X5305044Y-4457700D01*
X5345176Y-4457700D01*
X5345176Y-4450842D01*
X5329936Y-4450842D01*
X5329936Y-4383278D01*
G37*
G36*
X5964174Y-4356608D02*
G01*
X5958941Y-4357116D01*
X5953912Y-4358792D01*
X5949340Y-4361637D01*
X5945225Y-4365752D01*
X5941822Y-4371289D01*
X5939231Y-4378248D01*
X5937605Y-4386783D01*
X5936996Y-4396994D01*
X5937283Y-4402328D01*
X5944870Y-4402328D01*
X5948781Y-4397756D01*
X5952845Y-4394708D01*
X5956858Y-4392980D01*
X5960618Y-4392422D01*
X5966764Y-4393641D01*
X5971133Y-4397095D01*
X5973724Y-4402480D01*
X5974588Y-4409440D01*
X5973572Y-4416552D01*
X5970828Y-4422089D01*
X5966663Y-4425696D01*
X5961380Y-4426966D01*
X5954877Y-4425340D01*
X5949899Y-4420565D01*
X5946495Y-4412843D01*
X5944870Y-4402328D01*
X5937283Y-4402328D01*
X5937453Y-4405477D01*
X5938824Y-4412894D01*
X5940958Y-4419193D01*
X5943854Y-4424324D01*
X5947410Y-4428337D01*
X5951575Y-4431233D01*
X5956249Y-4433011D01*
X5961380Y-4433570D01*
X5965545Y-4433112D01*
X5969508Y-4431842D01*
X5973064Y-4429760D01*
X5976213Y-4426915D01*
X5978804Y-4423460D01*
X5980785Y-4419295D01*
X5982004Y-4414621D01*
X5982462Y-4409440D01*
X5982106Y-4404055D01*
X5981039Y-4399381D01*
X5979312Y-4395419D01*
X5976924Y-4392168D01*
X5973978Y-4389628D01*
X5970473Y-4387799D01*
X5966409Y-4386681D01*
X5961888Y-4386326D01*
X5957316Y-4386935D01*
X5952794Y-4388662D01*
X5948476Y-4391456D01*
X5944616Y-4395216D01*
X5945174Y-4387088D01*
X5946444Y-4380280D01*
X5948375Y-4374794D01*
X5950813Y-4370476D01*
X5953709Y-4367276D01*
X5957011Y-4365091D01*
X5960618Y-4363872D01*
X5964428Y-4363466D01*
X5967780Y-4363872D01*
X5970981Y-4365040D01*
X5973876Y-4366920D01*
X5976366Y-4369308D01*
X5981192Y-4363974D01*
X5977839Y-4360976D01*
X5973927Y-4358690D01*
X5969355Y-4357166D01*
G37*
G36*
X5877814Y-4357878D02*
G01*
X5877814Y-4364736D01*
X5899150Y-4364736D01*
X5907074Y-4365447D01*
X5912916Y-4367784D01*
X5916472Y-4372000D01*
X5917692Y-4378452D01*
X5916472Y-4385056D01*
X5912916Y-4389628D01*
X5907074Y-4392320D01*
X5899150Y-4393184D01*
X5886196Y-4393184D01*
X5886196Y-4364736D01*
X5877814Y-4364736D01*
X5877814Y-4432300D01*
X5886196Y-4432300D01*
X5886196Y-4400296D01*
X5900166Y-4400296D01*
X5918708Y-4432300D01*
X5928106Y-4432300D01*
X5909056Y-4399280D01*
X5916168Y-4396689D01*
X5921603Y-4392371D01*
X5925108Y-4386326D01*
X5926328Y-4378452D01*
X5925820Y-4373168D01*
X5924397Y-4368800D01*
X5922162Y-4365244D01*
X5919063Y-4362450D01*
X5915304Y-4360367D01*
X5910884Y-4358944D01*
X5905906Y-4358132D01*
X5900420Y-4357878D01*
G37*
G36*
X3764584Y-3811778D02*
G01*
X3764584Y-3818636D01*
X3786174Y-3818636D01*
X3794099Y-3819347D01*
X3799941Y-3821684D01*
X3803497Y-3825900D01*
X3804716Y-3832351D01*
X3803497Y-3838956D01*
X3799941Y-3843528D01*
X3794099Y-3846220D01*
X3786174Y-3847084D01*
X3772966Y-3847084D01*
X3772966Y-3818636D01*
X3764584Y-3818636D01*
X3764584Y-3886200D01*
X3772966Y-3886200D01*
X3772966Y-3854196D01*
X3786936Y-3854196D01*
X3805478Y-3886200D01*
X3815130Y-3886200D01*
X3795826Y-3853179D01*
X3802938Y-3850589D01*
X3808374Y-3846271D01*
X3811879Y-3840226D01*
X3813098Y-3832351D01*
X3812641Y-3827068D01*
X3811219Y-3822700D01*
X3808933Y-3819144D01*
X3805885Y-3816350D01*
X3802176Y-3814267D01*
X3797808Y-3812844D01*
X3792880Y-3812032D01*
X3787444Y-3811778D01*
G37*
G36*
X3845610Y-3811778D02*
G01*
X3842562Y-3813403D01*
X3839108Y-3814775D01*
X3835146Y-3815943D01*
X3830624Y-3816858D01*
X3830624Y-3822192D01*
X3843578Y-3822192D01*
X3843578Y-3879342D01*
X3827068Y-3879342D01*
X3827068Y-3886200D01*
X3866946Y-3886200D01*
X3866946Y-3879342D01*
X3851960Y-3879342D01*
X3851960Y-3811778D01*
G37*
G36*
X3901490Y-3811778D02*
G01*
X3898341Y-3813403D01*
X3894836Y-3814775D01*
X3890873Y-3815943D01*
X3886250Y-3816858D01*
X3886250Y-3822192D01*
X3899458Y-3822192D01*
X3899458Y-3879342D01*
X3882694Y-3879342D01*
X3882694Y-3886200D01*
X3922826Y-3886200D01*
X3922826Y-3879342D01*
X3907586Y-3879342D01*
X3907586Y-3811778D01*
G37*
G36*
X4126382Y-3829354D02*
G01*
X4126382Y-3903827D01*
X4167784Y-3903827D01*
X4167784Y-3896664D01*
X4134764Y-3896664D01*
X4134764Y-3829354D01*
G37*
G36*
X4180738Y-3829354D02*
G01*
X4180738Y-3903827D01*
X4224172Y-3903827D01*
X4224172Y-3896664D01*
X4189120Y-3896664D01*
X4189120Y-3868267D01*
X4217822Y-3868267D01*
X4217822Y-3861104D01*
X4189120Y-3861104D01*
X4189120Y-3836517D01*
X4223156Y-3836517D01*
X4223156Y-3829354D01*
G37*
G36*
X4240174Y-3829354D02*
G01*
X4240174Y-3836212D01*
X4257700Y-3836212D01*
X4264050Y-3836771D01*
X4269536Y-3838295D01*
X4274159Y-3840784D01*
X4277918Y-3844188D01*
X4280865Y-3848455D01*
X4282948Y-3853586D01*
X4284218Y-3859529D01*
X4284624Y-3866235D01*
X4284218Y-3872992D01*
X4282948Y-3879037D01*
X4280865Y-3884320D01*
X4277918Y-3888740D01*
X4274159Y-3892245D01*
X4269536Y-3894836D01*
X4264050Y-3896410D01*
X4257700Y-3896918D01*
X4248556Y-3896918D01*
X4248556Y-3836212D01*
X4240174Y-3836212D01*
X4240174Y-3903827D01*
X4258716Y-3903827D01*
X4264152Y-3903522D01*
X4269130Y-3902659D01*
X4273651Y-3901236D01*
X4277715Y-3899255D01*
X4281322Y-3896766D01*
X4284472Y-3893769D01*
X4287164Y-3890314D01*
X4289348Y-3886352D01*
X4291025Y-3881932D01*
X4292295Y-3877106D01*
X4293006Y-3871874D01*
X4293260Y-3866235D01*
X4293006Y-3860596D01*
X4292295Y-3855364D01*
X4291025Y-3850589D01*
X4289348Y-3846271D01*
X4287113Y-3842410D01*
X4284421Y-3839057D01*
X4281271Y-3836111D01*
X4277664Y-3833723D01*
X4273550Y-3831844D01*
X4268978Y-3830472D01*
X4263948Y-3829659D01*
X4258462Y-3829354D01*
G37*
G36*
X4326788Y-3829354D02*
G01*
X4323740Y-3830980D01*
X4320235Y-3832402D01*
X4316272Y-3833571D01*
X4311802Y-3834485D01*
X4311802Y-3839768D01*
X4324756Y-3839768D01*
X4324756Y-3896918D01*
X4308246Y-3896918D01*
X4308246Y-3903827D01*
X4348124Y-3903827D01*
X4348124Y-3896918D01*
X4333138Y-3896918D01*
X4333138Y-3829354D01*
G37*
G36*
X4325416Y-4120235D02*
G01*
X4319320Y-4120896D01*
X4313986Y-4122724D01*
X4309211Y-4125468D01*
X4304842Y-4128820D01*
X4309414Y-4134459D01*
X4312716Y-4131462D01*
X4316526Y-4129125D01*
X4320692Y-4127500D01*
X4325162Y-4126788D01*
X4330496Y-4127804D01*
X4334611Y-4130344D01*
X4337202Y-4134256D01*
X4338116Y-4139285D01*
X4337050Y-4145076D01*
X4333494Y-4149750D01*
X4326991Y-4152849D01*
X4317034Y-4154017D01*
X4317034Y-4160367D01*
X4328007Y-4161485D01*
X4335322Y-4164634D01*
X4339386Y-4169562D01*
X4340656Y-4175810D01*
X4339539Y-4181856D01*
X4336338Y-4186428D01*
X4331462Y-4189323D01*
X4325162Y-4190288D01*
X4319066Y-4189628D01*
X4314037Y-4187698D01*
X4309872Y-4184954D01*
X4306366Y-4181652D01*
X4302048Y-4186986D01*
X4306112Y-4190847D01*
X4311294Y-4194098D01*
X4317746Y-4196334D01*
X4325670Y-4197146D01*
X4330395Y-4196791D01*
X4334764Y-4195724D01*
X4338777Y-4193997D01*
X4342231Y-4191609D01*
X4345076Y-4188561D01*
X4347210Y-4184954D01*
X4348581Y-4180789D01*
X4349038Y-4176064D01*
X4347768Y-4169105D01*
X4344416Y-4163517D01*
X4339386Y-4159453D01*
X4333290Y-4157014D01*
X4333290Y-4156760D01*
X4338675Y-4153966D01*
X4342841Y-4150004D01*
X4345533Y-4144873D01*
X4346498Y-4138472D01*
X4344924Y-4130700D01*
X4340504Y-4124960D01*
X4333849Y-4121404D01*
G37*
G36*
X4126280Y-4121454D02*
G01*
X4126280Y-4195927D01*
X4167682Y-4195927D01*
X4167682Y-4188764D01*
X4134662Y-4188764D01*
X4134662Y-4121454D01*
G37*
G36*
X4180636Y-4121454D02*
G01*
X4180636Y-4195927D01*
X4224070Y-4195927D01*
X4224070Y-4188764D01*
X4189018Y-4188764D01*
X4189018Y-4160367D01*
X4217720Y-4160367D01*
X4217720Y-4153204D01*
X4189018Y-4153204D01*
X4189018Y-4128617D01*
X4223054Y-4128617D01*
X4223054Y-4121454D01*
G37*
G36*
X4240072Y-4121454D02*
G01*
X4240072Y-4128312D01*
X4257598Y-4128312D01*
X4263948Y-4128871D01*
X4269435Y-4130395D01*
X4274058Y-4132884D01*
X4277817Y-4136288D01*
X4280763Y-4140555D01*
X4282846Y-4145686D01*
X4284116Y-4151629D01*
X4284522Y-4158335D01*
X4284116Y-4165092D01*
X4282846Y-4171137D01*
X4280763Y-4176420D01*
X4277817Y-4180840D01*
X4274058Y-4184345D01*
X4269435Y-4186936D01*
X4263948Y-4188510D01*
X4257598Y-4189018D01*
X4248454Y-4189018D01*
X4248454Y-4128312D01*
X4240072Y-4128312D01*
X4240072Y-4195927D01*
X4258614Y-4195927D01*
X4264050Y-4195622D01*
X4269028Y-4194759D01*
X4273550Y-4193336D01*
X4277614Y-4191355D01*
X4281220Y-4188866D01*
X4284370Y-4185869D01*
X4287012Y-4182414D01*
X4289247Y-4178452D01*
X4290923Y-4174032D01*
X4292142Y-4169206D01*
X4292904Y-4163974D01*
X4293158Y-4158335D01*
X4292904Y-4152696D01*
X4292142Y-4147464D01*
X4290923Y-4142689D01*
X4289196Y-4138371D01*
X4287012Y-4134510D01*
X4284319Y-4131157D01*
X4281170Y-4128211D01*
X4277563Y-4125823D01*
X4273448Y-4123944D01*
X4268876Y-4122572D01*
X4263847Y-4121759D01*
X4258360Y-4121454D01*
G37*
G36*
X3777284Y-4116578D02*
G01*
X3777284Y-4123436D01*
X3798874Y-4123436D01*
X3806799Y-4124147D01*
X3812641Y-4126484D01*
X3816197Y-4130700D01*
X3817416Y-4137151D01*
X3816197Y-4143756D01*
X3812641Y-4148328D01*
X3806799Y-4151020D01*
X3798874Y-4151884D01*
X3785666Y-4151884D01*
X3785666Y-4123436D01*
X3777284Y-4123436D01*
X3777284Y-4191000D01*
X3785666Y-4191000D01*
X3785666Y-4158996D01*
X3799636Y-4158996D01*
X3818178Y-4191000D01*
X3827830Y-4191000D01*
X3808526Y-4157979D01*
X3815638Y-4155389D01*
X3821074Y-4151071D01*
X3824579Y-4145026D01*
X3825798Y-4137151D01*
X3825341Y-4131868D01*
X3823919Y-4127500D01*
X3821633Y-4123944D01*
X3818585Y-4121150D01*
X3814876Y-4119067D01*
X3810457Y-4117644D01*
X3805529Y-4116832D01*
X3800144Y-4116578D01*
G37*
G36*
X3864152Y-4116578D02*
G01*
X3833485Y-4163568D01*
X3841546Y-4163568D01*
X3859326Y-4137151D01*
X3865422Y-4126229D01*
X3865930Y-4126229D01*
X3865372Y-4132935D01*
X3865168Y-4139437D01*
X3865168Y-4163568D01*
X3833485Y-4163568D01*
X3832656Y-4164837D01*
X3832656Y-4170172D01*
X3865168Y-4170172D01*
X3865168Y-4191000D01*
X3873042Y-4191000D01*
X3873042Y-4170172D01*
X3883202Y-4170172D01*
X3883202Y-4163568D01*
X3873042Y-4163568D01*
X3873042Y-4116578D01*
G37*
G36*
X4242308Y-2503170D02*
G01*
X4235500Y-2503830D01*
X4229303Y-2505862D01*
X4223766Y-2509113D01*
X4218990Y-2513533D01*
X4215130Y-2519070D01*
X4212234Y-2525674D01*
X4210405Y-2533294D01*
X4209796Y-2541778D01*
X4210405Y-2550261D01*
X4212183Y-2557830D01*
X4215028Y-2564434D01*
X4218838Y-2569921D01*
X4223512Y-2574290D01*
X4228998Y-2577490D01*
X4235094Y-2579471D01*
X4241800Y-2580132D01*
X4248607Y-2579420D01*
X4254550Y-2577388D01*
X4259783Y-2574036D01*
X4264406Y-2569464D01*
X4259580Y-2564130D01*
X4255820Y-2567838D01*
X4251756Y-2570530D01*
X4247235Y-2572207D01*
X4242054Y-2572766D01*
X4236872Y-2572207D01*
X4232249Y-2570581D01*
X4228236Y-2567889D01*
X4224832Y-2564282D01*
X4222089Y-2559761D01*
X4220108Y-2554427D01*
X4218838Y-2548331D01*
X4218432Y-2541524D01*
X4218889Y-2534716D01*
X4220108Y-2528671D01*
X4222191Y-2523337D01*
X4224934Y-2518867D01*
X4228388Y-2515311D01*
X4232452Y-2512720D01*
X4237126Y-2511094D01*
X4242308Y-2510536D01*
X4246981Y-2511044D01*
X4251096Y-2512466D01*
X4254703Y-2514701D01*
X4257802Y-2517648D01*
X4262628Y-2512314D01*
X4258919Y-2508859D01*
X4254296Y-2505913D01*
X4248708Y-2503932D01*
G37*
G36*
X4295648Y-2504440D02*
G01*
X4292600Y-2506065D01*
X4289094Y-2507437D01*
X4285132Y-2508605D01*
X4280662Y-2509520D01*
X4280662Y-2514854D01*
X4293870Y-2514854D01*
X4293870Y-2572004D01*
X4277106Y-2572004D01*
X4277106Y-2578862D01*
X4317238Y-2578862D01*
X4317238Y-2572004D01*
X4301998Y-2572004D01*
X4301998Y-2504440D01*
G37*
G36*
X4351528Y-2504440D02*
G01*
X4348480Y-2506065D01*
X4344974Y-2507437D01*
X4341012Y-2508605D01*
X4336542Y-2509520D01*
X4336542Y-2514854D01*
X4349496Y-2514854D01*
X4349496Y-2572004D01*
X4332986Y-2572004D01*
X4332986Y-2578862D01*
X4372864Y-2578862D01*
X4372864Y-2572004D01*
X4357878Y-2572004D01*
X4357878Y-2504440D01*
G37*
G36*
X3691788Y-2744216D02*
G01*
X3684981Y-2744876D01*
X3678732Y-2746806D01*
X3673144Y-2750007D01*
X3668318Y-2754426D01*
X3664407Y-2759913D01*
X3661460Y-2766466D01*
X3659632Y-2774035D01*
X3659022Y-2782519D01*
X3659632Y-2791155D01*
X3661460Y-2798775D01*
X3664305Y-2805379D01*
X3668166Y-2810916D01*
X3672840Y-2815285D01*
X3678275Y-2818536D01*
X3684371Y-2820466D01*
X3691026Y-2821127D01*
X3697833Y-2820466D01*
X3703828Y-2818384D01*
X3709060Y-2815031D01*
X3713632Y-2810459D01*
X3709060Y-2805125D01*
X3705250Y-2808833D01*
X3701135Y-2811576D01*
X3696563Y-2813202D01*
X3691534Y-2813761D01*
X3686251Y-2813202D01*
X3681577Y-2811576D01*
X3677513Y-2808935D01*
X3674059Y-2805277D01*
X3671315Y-2800756D01*
X3669284Y-2795371D01*
X3668064Y-2789174D01*
X3667658Y-2782316D01*
X3668064Y-2775508D01*
X3669385Y-2769463D01*
X3671468Y-2764180D01*
X3674262Y-2759760D01*
X3677767Y-2756255D01*
X3681882Y-2753664D01*
X3686556Y-2752090D01*
X3691788Y-2751582D01*
X3696462Y-2752039D01*
X3700576Y-2753512D01*
X3704183Y-2755747D01*
X3707282Y-2758643D01*
X3711854Y-2753106D01*
X3708146Y-2749753D01*
X3703523Y-2746908D01*
X3698036Y-2744927D01*
G37*
G36*
X3745128Y-2745435D02*
G01*
X3742080Y-2747060D01*
X3738575Y-2748381D01*
X3734612Y-2749550D01*
X3730142Y-2750566D01*
X3730142Y-2755849D01*
X3743096Y-2755849D01*
X3743096Y-2812796D01*
X3726586Y-2812796D01*
X3726586Y-2819857D01*
X3766464Y-2819857D01*
X3766464Y-2812796D01*
X3751478Y-2812796D01*
X3751478Y-2745435D01*
G37*
G36*
X3670808Y-3544722D02*
G01*
X3664000Y-3545382D01*
X3657752Y-3547313D01*
X3652164Y-3550564D01*
X3647338Y-3554933D01*
X3643426Y-3560419D01*
X3640480Y-3566972D01*
X3638651Y-3574542D01*
X3638042Y-3583076D01*
X3638651Y-3591661D01*
X3640429Y-3599281D01*
X3643325Y-3605885D01*
X3647135Y-3611422D01*
X3651859Y-3615791D01*
X3657295Y-3619042D01*
X3663391Y-3620973D01*
X3669995Y-3621684D01*
X3676853Y-3620973D01*
X3682847Y-3618890D01*
X3688079Y-3615537D01*
X3692601Y-3611016D01*
X3688029Y-3605682D01*
X3684270Y-3609390D01*
X3680155Y-3612083D01*
X3675583Y-3613708D01*
X3670554Y-3614318D01*
X3665270Y-3613708D01*
X3660597Y-3612083D01*
X3656482Y-3609441D01*
X3653078Y-3605784D01*
X3650335Y-3601262D01*
X3648303Y-3595878D01*
X3647084Y-3589680D01*
X3646678Y-3582822D01*
X3647084Y-3576015D01*
X3648405Y-3569970D01*
X3650487Y-3564686D01*
X3653282Y-3560267D01*
X3656787Y-3556762D01*
X3660901Y-3554171D01*
X3665575Y-3552596D01*
X3670808Y-3552088D01*
X3675430Y-3552545D01*
X3679596Y-3554018D01*
X3683152Y-3556254D01*
X3686251Y-3559200D01*
X3690874Y-3553612D01*
X3687165Y-3550259D01*
X3682542Y-3547414D01*
X3677056Y-3545433D01*
G37*
G36*
X3722065Y-3544722D02*
G01*
X3715715Y-3545484D01*
X3710178Y-3547668D01*
X3705148Y-3551021D01*
X3700526Y-3555390D01*
X3705301Y-3560216D01*
X3708755Y-3556660D01*
X3712565Y-3553866D01*
X3716731Y-3551986D01*
X3721354Y-3551326D01*
X3727602Y-3552494D01*
X3731920Y-3555695D01*
X3734460Y-3560521D01*
X3735324Y-3566566D01*
X3734815Y-3571494D01*
X3733292Y-3576675D01*
X3730751Y-3582162D01*
X3727094Y-3587953D01*
X3722370Y-3594150D01*
X3716426Y-3600704D01*
X3709314Y-3607765D01*
X3700983Y-3615334D01*
X3700983Y-3620414D01*
X3747008Y-3620414D01*
X3747008Y-3613302D01*
X3719728Y-3613353D01*
X3713429Y-3613810D01*
X3719982Y-3607460D01*
X3725875Y-3601313D01*
X3730955Y-3595217D01*
X3735273Y-3589274D01*
X3738778Y-3583432D01*
X3741318Y-3577640D01*
X3742893Y-3571951D01*
X3743401Y-3566312D01*
X3741928Y-3557320D01*
X3737711Y-3550564D01*
X3731006Y-3546195D01*
G37*
G36*
X589635Y-1595882D02*
G01*
X583234Y-1596644D01*
X577697Y-1598879D01*
X572668Y-1602282D01*
X568045Y-1606804D01*
X572871Y-1611376D01*
X576275Y-1607820D01*
X580085Y-1605026D01*
X584301Y-1603146D01*
X588873Y-1602486D01*
X595122Y-1603654D01*
X599440Y-1606905D01*
X601980Y-1611782D01*
X602843Y-1617980D01*
X602335Y-1622856D01*
X600811Y-1627987D01*
X598271Y-1633474D01*
X594614Y-1639265D01*
X589889Y-1645462D01*
X583946Y-1652016D01*
X576884Y-1659026D01*
X568553Y-1666493D01*
X568553Y-1671574D01*
X614527Y-1671574D01*
X614527Y-1664462D01*
X590245Y-1664512D01*
X580999Y-1664970D01*
X587502Y-1658670D01*
X593394Y-1652524D01*
X598525Y-1646478D01*
X602843Y-1640535D01*
X606298Y-1634693D01*
X608838Y-1628901D01*
X610412Y-1623161D01*
X610971Y-1617472D01*
X609498Y-1608531D01*
X605231Y-1601724D01*
X598525Y-1597406D01*
G37*
G36*
X454761Y-1597152D02*
G01*
X454761Y-1604010D01*
X476351Y-1604010D01*
X484276Y-1604721D01*
X490067Y-1607058D01*
X493674Y-1611274D01*
X494893Y-1617726D01*
X493674Y-1624177D01*
X490067Y-1628800D01*
X484276Y-1631543D01*
X476351Y-1632457D01*
X463397Y-1632457D01*
X463397Y-1604010D01*
X454761Y-1604010D01*
X454761Y-1671574D01*
X463397Y-1671574D01*
X463397Y-1639316D01*
X477113Y-1639316D01*
X495909Y-1671574D01*
X505307Y-1671574D01*
X486003Y-1638554D01*
X493064Y-1635963D01*
X498551Y-1631645D01*
X502005Y-1625600D01*
X503275Y-1617726D01*
X502767Y-1612442D01*
X501396Y-1608074D01*
X499160Y-1604518D01*
X496163Y-1601724D01*
X492404Y-1599641D01*
X488035Y-1598218D01*
X483108Y-1597406D01*
X477621Y-1597152D01*
G37*
G36*
X535787Y-1597152D02*
G01*
X532739Y-1598777D01*
X529234Y-1600149D01*
X525272Y-1601317D01*
X520801Y-1602232D01*
X520801Y-1607566D01*
X534009Y-1607566D01*
X534009Y-1664716D01*
X517245Y-1664716D01*
X517245Y-1671574D01*
X557377Y-1671574D01*
X557377Y-1664716D01*
X542137Y-1664716D01*
X542137Y-1597152D01*
G37*
G36*
X3731920Y-3395675D02*
G01*
X3725824Y-3396386D01*
X3720490Y-3398215D01*
X3715664Y-3400958D01*
X3711295Y-3404311D01*
X3715918Y-3409899D01*
X3719322Y-3406952D01*
X3723081Y-3404615D01*
X3727196Y-3402990D01*
X3731615Y-3402329D01*
X3737000Y-3403346D01*
X3741064Y-3405835D01*
X3743655Y-3409746D01*
X3744620Y-3414725D01*
X3743502Y-3420567D01*
X3739997Y-3425240D01*
X3733546Y-3428339D01*
X3723741Y-3429457D01*
X3723741Y-3435807D01*
X3734714Y-3436975D01*
X3741928Y-3440125D01*
X3745890Y-3445052D01*
X3747109Y-3451301D01*
X3745992Y-3457346D01*
X3742791Y-3461918D01*
X3737914Y-3464814D01*
X3731615Y-3465829D01*
X3725570Y-3465118D01*
X3720541Y-3463188D01*
X3716375Y-3460445D01*
X3712870Y-3457143D01*
X3708552Y-3462477D01*
X3712667Y-3466337D01*
X3717848Y-3469589D01*
X3724300Y-3471824D01*
X3732174Y-3472687D01*
X3736848Y-3472281D01*
X3741267Y-3471214D01*
X3745229Y-3469487D01*
X3748684Y-3467100D01*
X3751529Y-3464051D01*
X3753662Y-3460445D01*
X3755034Y-3456279D01*
X3755491Y-3451606D01*
X3754272Y-3444595D01*
X3750868Y-3439007D01*
X3745890Y-3434943D01*
X3739743Y-3432556D01*
X3739743Y-3432251D01*
X3745179Y-3429457D01*
X3749344Y-3425494D01*
X3752037Y-3420364D01*
X3753002Y-3414014D01*
X3751376Y-3406190D01*
X3747008Y-3400450D01*
X3740353Y-3396894D01*
G37*
G36*
X3643020Y-3396996D02*
G01*
X3643020Y-3441141D01*
X3643528Y-3449320D01*
X3645052Y-3456076D01*
X3647440Y-3461512D01*
X3650640Y-3465779D01*
X3654501Y-3468928D01*
X3658971Y-3471062D01*
X3663899Y-3472281D01*
X3669131Y-3472687D01*
X3674516Y-3472281D01*
X3679494Y-3471062D01*
X3683965Y-3468928D01*
X3687876Y-3465779D01*
X3691077Y-3461512D01*
X3693515Y-3456076D01*
X3695039Y-3449320D01*
X3695547Y-3441141D01*
X3695547Y-3396996D01*
X3687470Y-3396996D01*
X3687470Y-3441446D01*
X3687064Y-3447694D01*
X3685997Y-3452876D01*
X3684320Y-3456990D01*
X3682136Y-3460191D01*
X3679393Y-3462578D01*
X3676294Y-3464153D01*
X3672840Y-3465017D01*
X3669131Y-3465322D01*
X3662222Y-3464153D01*
X3656533Y-3460242D01*
X3652774Y-3452876D01*
X3651402Y-3441446D01*
X3651402Y-3396996D01*
G37*
G36*
X2998266Y-5151882D02*
G01*
X2992221Y-5152542D01*
X2986836Y-5154371D01*
X2982061Y-5157114D01*
X2977692Y-5160518D01*
X2982264Y-5165852D01*
X2985719Y-5163007D01*
X2989478Y-5160670D01*
X2993593Y-5159044D01*
X2998012Y-5158486D01*
X3003397Y-5159400D01*
X3007461Y-5161889D01*
X3010052Y-5165750D01*
X3010966Y-5170678D01*
X3009900Y-5176520D01*
X3006394Y-5181193D01*
X2999943Y-5184292D01*
X2990138Y-5185410D01*
X2990138Y-5192014D01*
X3001111Y-5193131D01*
X3008325Y-5196179D01*
X3012287Y-5201005D01*
X3013506Y-5207254D01*
X3012389Y-5213400D01*
X3009188Y-5218023D01*
X3004312Y-5220970D01*
X2998012Y-5221986D01*
X2991967Y-5221224D01*
X2986938Y-5219293D01*
X2982722Y-5216499D01*
X2979216Y-5213350D01*
X2974898Y-5218684D01*
X2979013Y-5222392D01*
X2984246Y-5225643D01*
X2990697Y-5227980D01*
X2998520Y-5228844D01*
X3003245Y-5228488D01*
X3007664Y-5227421D01*
X3011627Y-5225643D01*
X3015081Y-5223256D01*
X3017926Y-5220258D01*
X3020060Y-5216652D01*
X3021431Y-5212435D01*
X3021888Y-5207762D01*
X3020669Y-5200700D01*
X3017266Y-5195112D01*
X3012287Y-5191099D01*
X3006140Y-5188712D01*
X3006140Y-5188204D01*
X3011525Y-5185511D01*
X3015691Y-5181549D01*
X3018434Y-5176469D01*
X3019348Y-5170170D01*
X3017774Y-5162397D01*
X3013405Y-5156657D01*
X3006699Y-5153101D01*
G37*
G36*
X2918764Y-5153152D02*
G01*
X2918764Y-5160010D01*
X2940100Y-5160010D01*
X2948076Y-5160721D01*
X2953867Y-5163058D01*
X2957423Y-5167274D01*
X2958642Y-5173726D01*
X2957423Y-5180228D01*
X2953867Y-5184800D01*
X2948076Y-5187543D01*
X2940100Y-5188458D01*
X2927146Y-5188458D01*
X2927146Y-5160010D01*
X2918764Y-5160010D01*
X2918764Y-5227574D01*
X2927146Y-5227574D01*
X2927146Y-5195316D01*
X2940862Y-5195316D01*
X2959658Y-5227574D01*
X2969056Y-5227574D01*
X2949752Y-5194554D01*
X2956864Y-5191963D01*
X2962300Y-5187645D01*
X2965805Y-5181600D01*
X2967024Y-5173726D01*
X2966567Y-5168442D01*
X2965196Y-5164074D01*
X2962960Y-5160518D01*
X2959912Y-5157724D01*
X2956204Y-5155641D01*
X2951835Y-5154218D01*
X2946857Y-5153406D01*
X2941370Y-5153152D01*
G37*
G36*
X5840780Y-3164078D02*
G01*
X5840780Y-3170936D01*
X5862116Y-3170936D01*
X5870092Y-3171647D01*
X5875883Y-3173984D01*
X5879439Y-3178251D01*
X5880658Y-3184652D01*
X5879439Y-3191256D01*
X5875883Y-3195828D01*
X5870092Y-3198520D01*
X5862116Y-3199384D01*
X5849162Y-3199384D01*
X5849162Y-3170936D01*
X5840780Y-3170936D01*
X5840780Y-3238500D01*
X5849162Y-3238500D01*
X5849162Y-3206496D01*
X5863132Y-3206496D01*
X5881674Y-3238500D01*
X5891072Y-3238500D01*
X5872022Y-3205480D01*
X5879134Y-3202889D01*
X5884570Y-3198571D01*
X5888075Y-3192526D01*
X5889294Y-3184652D01*
X5888837Y-3179419D01*
X5887415Y-3175000D01*
X5885129Y-3171444D01*
X5882081Y-3168650D01*
X5878322Y-3166567D01*
X5873902Y-3165144D01*
X5868873Y-3164332D01*
X5863386Y-3164078D01*
G37*
G36*
X5905296Y-3164078D02*
G01*
X5903010Y-3198622D01*
X5907582Y-3201416D01*
X5910529Y-3199587D01*
X5913424Y-3198215D01*
X5916523Y-3197402D01*
X5920028Y-3197098D01*
X5926632Y-3198317D01*
X5931662Y-3201771D01*
X5934913Y-3207258D01*
X5936030Y-3214624D01*
X5934760Y-3222193D01*
X5931255Y-3227984D01*
X5926074Y-3231642D01*
X5919774Y-3232912D01*
X5913729Y-3232200D01*
X5908700Y-3230321D01*
X5904484Y-3227679D01*
X5900978Y-3224530D01*
X5896914Y-3229864D01*
X5901131Y-3233572D01*
X5906262Y-3236722D01*
X5912561Y-3238957D01*
X5920282Y-3239770D01*
X5924905Y-3239363D01*
X5929325Y-3238093D01*
X5933389Y-3236010D01*
X5937046Y-3233166D01*
X5940094Y-3229559D01*
X5942431Y-3225190D01*
X5943904Y-3220110D01*
X5944412Y-3214370D01*
X5944006Y-3208629D01*
X5942685Y-3203702D01*
X5940653Y-3199638D01*
X5937910Y-3196386D01*
X5934608Y-3193897D01*
X5930849Y-3192119D01*
X5926632Y-3191103D01*
X5922060Y-3190748D01*
X5918809Y-3190951D01*
X5915914Y-3191510D01*
X5913170Y-3192475D01*
X5910630Y-3193796D01*
X5912662Y-3171190D01*
X5940856Y-3171190D01*
X5940856Y-3164078D01*
G37*
G36*
X5562600Y-3480308D02*
G01*
X5557367Y-3480815D01*
X5552338Y-3482492D01*
X5547766Y-3485286D01*
X5543702Y-3489451D01*
X5540248Y-3494938D01*
X5537657Y-3501948D01*
X5536031Y-3510483D01*
X5535422Y-3520694D01*
X5535709Y-3526028D01*
X5543550Y-3526028D01*
X5547461Y-3521456D01*
X5551474Y-3518408D01*
X5555386Y-3516680D01*
X5559044Y-3516122D01*
X5565343Y-3517341D01*
X5569762Y-3520795D01*
X5572404Y-3526180D01*
X5573268Y-3533140D01*
X5572252Y-3540251D01*
X5569407Y-3545789D01*
X5565241Y-3549396D01*
X5560060Y-3550665D01*
X5553456Y-3549040D01*
X5548477Y-3544265D01*
X5545175Y-3536492D01*
X5543550Y-3526028D01*
X5535709Y-3526028D01*
X5535879Y-3529177D01*
X5537250Y-3536594D01*
X5539486Y-3542842D01*
X5542381Y-3548024D01*
X5545988Y-3552037D01*
X5550204Y-3554933D01*
X5554929Y-3556660D01*
X5560060Y-3557270D01*
X5564174Y-3556812D01*
X5568035Y-3555542D01*
X5571540Y-3553460D01*
X5574639Y-3550615D01*
X5577230Y-3547110D01*
X5579211Y-3542995D01*
X5580430Y-3538321D01*
X5580888Y-3533140D01*
X5580532Y-3527755D01*
X5579465Y-3523081D01*
X5577738Y-3519119D01*
X5575401Y-3515868D01*
X5572455Y-3513328D01*
X5569000Y-3511499D01*
X5565038Y-3510381D01*
X5560568Y-3510026D01*
X5555945Y-3510635D01*
X5551373Y-3512362D01*
X5547055Y-3515156D01*
X5543296Y-3518915D01*
X5543854Y-3510737D01*
X5545124Y-3503980D01*
X5546953Y-3498494D01*
X5549392Y-3494176D01*
X5552287Y-3490976D01*
X5555589Y-3488791D01*
X5559196Y-3487572D01*
X5563108Y-3487165D01*
X5566359Y-3487572D01*
X5569559Y-3488740D01*
X5572506Y-3490569D01*
X5575046Y-3493008D01*
X5579618Y-3487674D01*
X5576316Y-3484676D01*
X5572455Y-3482340D01*
X5567883Y-3480866D01*
G37*
G36*
X5420614Y-3481578D02*
G01*
X5420614Y-3488436D01*
X5441950Y-3488436D01*
X5449874Y-3489147D01*
X5455716Y-3491484D01*
X5459272Y-3495700D01*
X5460492Y-3502151D01*
X5459272Y-3508756D01*
X5455716Y-3513328D01*
X5449874Y-3516020D01*
X5441950Y-3516884D01*
X5428996Y-3516884D01*
X5428996Y-3488436D01*
X5420614Y-3488436D01*
X5420614Y-3556000D01*
X5428996Y-3556000D01*
X5428996Y-3523996D01*
X5442966Y-3523996D01*
X5461508Y-3556000D01*
X5470906Y-3556000D01*
X5451856Y-3522979D01*
X5458968Y-3520389D01*
X5464403Y-3516071D01*
X5467908Y-3510026D01*
X5469128Y-3502151D01*
X5468620Y-3496868D01*
X5467197Y-3492500D01*
X5464962Y-3488944D01*
X5461863Y-3486150D01*
X5458104Y-3484067D01*
X5453684Y-3482644D01*
X5448706Y-3481832D01*
X5443220Y-3481578D01*
G37*
G36*
X5501640Y-3481578D02*
G01*
X5498490Y-3483203D01*
X5494985Y-3484575D01*
X5490972Y-3485743D01*
X5486400Y-3486658D01*
X5486400Y-3491992D01*
X5499608Y-3491992D01*
X5499608Y-3549142D01*
X5482844Y-3549142D01*
X5482844Y-3556000D01*
X5522976Y-3556000D01*
X5522976Y-3549142D01*
X5507736Y-3549142D01*
X5507736Y-3481578D01*
G37*
G36*
X5133441Y-2630779D02*
G01*
X5133441Y-2637637D01*
X5154777Y-2637637D01*
X5162702Y-2638348D01*
X5168544Y-2640685D01*
X5172100Y-2644902D01*
X5173319Y-2651353D01*
X5172100Y-2657957D01*
X5168544Y-2662529D01*
X5162702Y-2665222D01*
X5154777Y-2666085D01*
X5141823Y-2666085D01*
X5141823Y-2637637D01*
X5133441Y-2637637D01*
X5133441Y-2705201D01*
X5141823Y-2705201D01*
X5141823Y-2673197D01*
X5155793Y-2673197D01*
X5174335Y-2705201D01*
X5183733Y-2705201D01*
X5164683Y-2672181D01*
X5171795Y-2669590D01*
X5177231Y-2665272D01*
X5180736Y-2659227D01*
X5181955Y-2651353D01*
X5181447Y-2646070D01*
X5180076Y-2641701D01*
X5177790Y-2638145D01*
X5174742Y-2635351D01*
X5170932Y-2633268D01*
X5166512Y-2631846D01*
X5161534Y-2631033D01*
X5156047Y-2630779D01*
G37*
G36*
X5214467Y-2630779D02*
G01*
X5211318Y-2632405D01*
X5207812Y-2633776D01*
X5203799Y-2634945D01*
X5199227Y-2635859D01*
X5199227Y-2641193D01*
X5212435Y-2641193D01*
X5212435Y-2698343D01*
X5195671Y-2698343D01*
X5195671Y-2705201D01*
X5235803Y-2705201D01*
X5235803Y-2698343D01*
X5220563Y-2698343D01*
X5220563Y-2630779D01*
G37*
G36*
X5247487Y-2630779D02*
G01*
X5247487Y-2637891D01*
X5284063Y-2637891D01*
X5280558Y-2642920D01*
X5277459Y-2647950D01*
X5274716Y-2652928D01*
X5272278Y-2658008D01*
X5270144Y-2663139D01*
X5268366Y-2668422D01*
X5266842Y-2673858D01*
X5265572Y-2679496D01*
X5264505Y-2685440D01*
X5263134Y-2698242D01*
X5262727Y-2705201D01*
X5271363Y-2705201D01*
X5272227Y-2691587D01*
X5273751Y-2679395D01*
X5274868Y-2673654D01*
X5276342Y-2668168D01*
X5278069Y-2662783D01*
X5280202Y-2657449D01*
X5282793Y-2652166D01*
X5285841Y-2646832D01*
X5289346Y-2641396D01*
X5293461Y-2635859D01*
X5293461Y-2630779D01*
G37*
G36*
X5270855Y-3036163D02*
G01*
X5262880Y-3037535D01*
X5256530Y-3041396D01*
X5252313Y-3047288D01*
X5250789Y-3054959D01*
X5258409Y-3054959D01*
X5259374Y-3049930D01*
X5261965Y-3045968D01*
X5265928Y-3043428D01*
X5270855Y-3042513D01*
X5276291Y-3043580D01*
X5280406Y-3046526D01*
X5282946Y-3050895D01*
X5283809Y-3056229D01*
X5283301Y-3060344D01*
X5281726Y-3064306D01*
X5279186Y-3068066D01*
X5275681Y-3071469D01*
X5269230Y-3068777D01*
X5263692Y-3065424D01*
X5259882Y-3060954D01*
X5258409Y-3054959D01*
X5250789Y-3054959D01*
X5251602Y-3060446D01*
X5253888Y-3065068D01*
X5257088Y-3068929D01*
X5260949Y-3071977D01*
X5260949Y-3072485D01*
X5255869Y-3075787D01*
X5251399Y-3080410D01*
X5248198Y-3086150D01*
X5247069Y-3092551D01*
X5254599Y-3092551D01*
X5255412Y-3087268D01*
X5257647Y-3082544D01*
X5261051Y-3078429D01*
X5265267Y-3075025D01*
X5273040Y-3078276D01*
X5279542Y-3081985D01*
X5283962Y-3086862D01*
X5285587Y-3093567D01*
X5284520Y-3098850D01*
X5281574Y-3103016D01*
X5276900Y-3105759D01*
X5270855Y-3106775D01*
X5264353Y-3105708D01*
X5259222Y-3102711D01*
X5255818Y-3098190D01*
X5254599Y-3092551D01*
X5247069Y-3092551D01*
X5246979Y-3093059D01*
X5248757Y-3100984D01*
X5253736Y-3107232D01*
X5261254Y-3111398D01*
X5270601Y-3112871D01*
X5279999Y-3111398D01*
X5287314Y-3107334D01*
X5292039Y-3101289D01*
X5293715Y-3093821D01*
X5292648Y-3087014D01*
X5289854Y-3081680D01*
X5285790Y-3077514D01*
X5281015Y-3074263D01*
X5281015Y-3073755D01*
X5284419Y-3070656D01*
X5287721Y-3066440D01*
X5290210Y-3061411D01*
X5291175Y-3055721D01*
X5289804Y-3047847D01*
X5285790Y-3041650D01*
X5279390Y-3037636D01*
G37*
G36*
X5133441Y-3037179D02*
G01*
X5133441Y-3044037D01*
X5154777Y-3044037D01*
X5162702Y-3044748D01*
X5168544Y-3047085D01*
X5172100Y-3051302D01*
X5173319Y-3057753D01*
X5172100Y-3064357D01*
X5168544Y-3068929D01*
X5162702Y-3071622D01*
X5154777Y-3072485D01*
X5141823Y-3072485D01*
X5141823Y-3044037D01*
X5133441Y-3044037D01*
X5133441Y-3111601D01*
X5141823Y-3111601D01*
X5141823Y-3079597D01*
X5155793Y-3079597D01*
X5174335Y-3111601D01*
X5183733Y-3111601D01*
X5164683Y-3078581D01*
X5171795Y-3075990D01*
X5177231Y-3071672D01*
X5180736Y-3065627D01*
X5181955Y-3057753D01*
X5181447Y-3052470D01*
X5180076Y-3048101D01*
X5177790Y-3044545D01*
X5174742Y-3041751D01*
X5170932Y-3039668D01*
X5166512Y-3038246D01*
X5161534Y-3037433D01*
X5156047Y-3037179D01*
G37*
G36*
X5214467Y-3037179D02*
G01*
X5211318Y-3038805D01*
X5207812Y-3040176D01*
X5203799Y-3041345D01*
X5199227Y-3042259D01*
X5199227Y-3047593D01*
X5212435Y-3047593D01*
X5212435Y-3104743D01*
X5195671Y-3104743D01*
X5195671Y-3111601D01*
X5235803Y-3111601D01*
X5235803Y-3104743D01*
X5220563Y-3104743D01*
X5220563Y-3037179D01*
G37*
G36*
X4626864Y-3137408D02*
G01*
X4621885Y-3138017D01*
X4617415Y-3139744D01*
X4613503Y-3142691D01*
X4610201Y-3146856D01*
X4607560Y-3152190D01*
X4605629Y-3158744D01*
X4604410Y-3166516D01*
X4604004Y-3175508D01*
X4612132Y-3175508D01*
X4612386Y-3167938D01*
X4613198Y-3161487D01*
X4614468Y-3156051D01*
X4616145Y-3151682D01*
X4618278Y-3148279D01*
X4620818Y-3145891D01*
X4623663Y-3144469D01*
X4626864Y-3144012D01*
X4629962Y-3144469D01*
X4632807Y-3145891D01*
X4635296Y-3148279D01*
X4637481Y-3151682D01*
X4639208Y-3156051D01*
X4640529Y-3161487D01*
X4641342Y-3167938D01*
X4641596Y-3175508D01*
X4641342Y-3183331D01*
X4640529Y-3189986D01*
X4639208Y-3195523D01*
X4637481Y-3200044D01*
X4635296Y-3203448D01*
X4632807Y-3205886D01*
X4629962Y-3207308D01*
X4626864Y-3207766D01*
X4623663Y-3207308D01*
X4620818Y-3205886D01*
X4618278Y-3203448D01*
X4616145Y-3200044D01*
X4614468Y-3195523D01*
X4613198Y-3189986D01*
X4612386Y-3183331D01*
X4612132Y-3175508D01*
X4604004Y-3175508D01*
X4604410Y-3184702D01*
X4605629Y-3192627D01*
X4607560Y-3199282D01*
X4610201Y-3204768D01*
X4613503Y-3208985D01*
X4617415Y-3211982D01*
X4621885Y-3213760D01*
X4626864Y-3214370D01*
X4631842Y-3213760D01*
X4636312Y-3211982D01*
X4640173Y-3208985D01*
X4643424Y-3204768D01*
X4646015Y-3199282D01*
X4647895Y-3192627D01*
X4649063Y-3184702D01*
X4649470Y-3175508D01*
X4649063Y-3166516D01*
X4647895Y-3158744D01*
X4646015Y-3152190D01*
X4643424Y-3146856D01*
X4640173Y-3142691D01*
X4636312Y-3139744D01*
X4631842Y-3138017D01*
G37*
G36*
X4480560Y-3138678D02*
G01*
X4480560Y-3182874D01*
X4481068Y-3191002D01*
X4482592Y-3197758D01*
X4485030Y-3203244D01*
X4488230Y-3207461D01*
X4492091Y-3210610D01*
X4496511Y-3212795D01*
X4501438Y-3213963D01*
X4506722Y-3214370D01*
X4512106Y-3213963D01*
X4517085Y-3212795D01*
X4521555Y-3210610D01*
X4525467Y-3207461D01*
X4528667Y-3203244D01*
X4531106Y-3197758D01*
X4532630Y-3191002D01*
X4533138Y-3182874D01*
X4533138Y-3138678D01*
X4525010Y-3138678D01*
X4525010Y-3183128D01*
X4524654Y-3189427D01*
X4523587Y-3194558D01*
X4521911Y-3198723D01*
X4519676Y-3201924D01*
X4516983Y-3204260D01*
X4513884Y-3205835D01*
X4510430Y-3206750D01*
X4506722Y-3207004D01*
X4499762Y-3205835D01*
X4494123Y-3201924D01*
X4490313Y-3194558D01*
X4488942Y-3183128D01*
X4488942Y-3138678D01*
G37*
G36*
X4570730Y-3138678D02*
G01*
X4567682Y-3140303D01*
X4564176Y-3141675D01*
X4560214Y-3142843D01*
X4555744Y-3143758D01*
X4555744Y-3149092D01*
X4568952Y-3149092D01*
X4568952Y-3206242D01*
X4552188Y-3206242D01*
X4552188Y-3213100D01*
X4592320Y-3213100D01*
X4592320Y-3206242D01*
X4577080Y-3206242D01*
X4577080Y-3138678D01*
G37*
G36*
X5161584Y-3481578D02*
G01*
X5161584Y-3488436D01*
X5183174Y-3488436D01*
X5191099Y-3489147D01*
X5196941Y-3491484D01*
X5200497Y-3495700D01*
X5201716Y-3502151D01*
X5200497Y-3508756D01*
X5196941Y-3513328D01*
X5191099Y-3516020D01*
X5183174Y-3516884D01*
X5169966Y-3516884D01*
X5169966Y-3488436D01*
X5161584Y-3488436D01*
X5161584Y-3556000D01*
X5169966Y-3556000D01*
X5169966Y-3523996D01*
X5183936Y-3523996D01*
X5202478Y-3556000D01*
X5212130Y-3556000D01*
X5192826Y-3522979D01*
X5199938Y-3520389D01*
X5205374Y-3516071D01*
X5208879Y-3510026D01*
X5210098Y-3502151D01*
X5209641Y-3496868D01*
X5208219Y-3492500D01*
X5205933Y-3488944D01*
X5202885Y-3486150D01*
X5199176Y-3484067D01*
X5194808Y-3482644D01*
X5189880Y-3481832D01*
X5184444Y-3481578D01*
G37*
G36*
X5220004Y-3481578D02*
G01*
X5220004Y-3488690D01*
X5256326Y-3488690D01*
X5252923Y-3493719D01*
X5249824Y-3498748D01*
X5247132Y-3503726D01*
X5244744Y-3508806D01*
X5242661Y-3513937D01*
X5240832Y-3519220D01*
X5239308Y-3524656D01*
X5238089Y-3530295D01*
X5236260Y-3542436D01*
X5235244Y-3556000D01*
X5243880Y-3556000D01*
X5244744Y-3542385D01*
X5245404Y-3536137D01*
X5247436Y-3524453D01*
X5248859Y-3518966D01*
X5250637Y-3513582D01*
X5252770Y-3508248D01*
X5255310Y-3502964D01*
X5258358Y-3497630D01*
X5261914Y-3492195D01*
X5265978Y-3486658D01*
X5265978Y-3481578D01*
G37*
G36*
X4999024Y-2502662D02*
G01*
X4991252Y-2504033D01*
X4984953Y-2507894D01*
X4980736Y-2513838D01*
X4979212Y-2521458D01*
X4986832Y-2521458D01*
X4987747Y-2516428D01*
X4990287Y-2512466D01*
X4994148Y-2509926D01*
X4999024Y-2509012D01*
X5004663Y-2510078D01*
X5008778Y-2513025D01*
X5011369Y-2517394D01*
X5012232Y-2522728D01*
X5011674Y-2526893D01*
X5010099Y-2530856D01*
X5007508Y-2534564D01*
X5004104Y-2537968D01*
X4997653Y-2535275D01*
X4992166Y-2531922D01*
X4988306Y-2527452D01*
X4986832Y-2521458D01*
X4979212Y-2521458D01*
X4980025Y-2526944D01*
X4982159Y-2531618D01*
X4985359Y-2535428D01*
X4989118Y-2538476D01*
X4989118Y-2538984D01*
X4984089Y-2542336D01*
X4979720Y-2546908D01*
X4976622Y-2552700D01*
X4975493Y-2559050D01*
X4982768Y-2559050D01*
X4983581Y-2553766D01*
X4985867Y-2549042D01*
X4989322Y-2544978D01*
X4993690Y-2541524D01*
X5001361Y-2544775D01*
X5007864Y-2548534D01*
X5012334Y-2553411D01*
X5014010Y-2560066D01*
X5012944Y-2565349D01*
X5009845Y-2569514D01*
X5005120Y-2572308D01*
X4999024Y-2573274D01*
X4992624Y-2572207D01*
X4987493Y-2569210D01*
X4984038Y-2564688D01*
X4982768Y-2559050D01*
X4975493Y-2559050D01*
X4975402Y-2559558D01*
X4975860Y-2563723D01*
X4977180Y-2567482D01*
X4979263Y-2570886D01*
X4982108Y-2573782D01*
X4985562Y-2576118D01*
X4989576Y-2577896D01*
X4994097Y-2579014D01*
X4999024Y-2579370D01*
X5008422Y-2577896D01*
X5015636Y-2573883D01*
X5020259Y-2567787D01*
X5021884Y-2560320D01*
X5020868Y-2553512D01*
X5018024Y-2548178D01*
X5013960Y-2544013D01*
X5009184Y-2540762D01*
X5009184Y-2540254D01*
X5012740Y-2537155D01*
X5015992Y-2532989D01*
X5018430Y-2527909D01*
X5019344Y-2522220D01*
X5017973Y-2514346D01*
X5013960Y-2508148D01*
X5007559Y-2504135D01*
G37*
G36*
X4917490Y-2503678D02*
G01*
X4917490Y-2510536D01*
X4938826Y-2510536D01*
X4946751Y-2511247D01*
X4952593Y-2513584D01*
X4956149Y-2517851D01*
X4957368Y-2524252D01*
X4956149Y-2530856D01*
X4952593Y-2535428D01*
X4946751Y-2538120D01*
X4938826Y-2538984D01*
X4925872Y-2538984D01*
X4925872Y-2510536D01*
X4917490Y-2510536D01*
X4917490Y-2578100D01*
X4925872Y-2578100D01*
X4925872Y-2546096D01*
X4939842Y-2546096D01*
X4958384Y-2578100D01*
X4967782Y-2578100D01*
X4948732Y-2545080D01*
X4955844Y-2542540D01*
X4961280Y-2538222D01*
X4964785Y-2532126D01*
X4966004Y-2524252D01*
X4965547Y-2519019D01*
X4964125Y-2514600D01*
X4961839Y-2511044D01*
X4958791Y-2508250D01*
X4955032Y-2506167D01*
X4950612Y-2504744D01*
X4945583Y-2503932D01*
X4940096Y-2503678D01*
G37*
G36*
X5348478Y-2217166D02*
G01*
X5332425Y-2219604D01*
X5317236Y-2226818D01*
X5313680Y-2229612D01*
X5307126Y-2236012D01*
X5303266Y-2240788D01*
X5295849Y-2256028D01*
X5293360Y-2272538D01*
X5310378Y-2272538D01*
X5310733Y-2267407D01*
X5311698Y-2262428D01*
X5313375Y-2257653D01*
X5316474Y-2251659D01*
X5318607Y-2248611D01*
X5321604Y-2245258D01*
X5325110Y-2242058D01*
X5336540Y-2235962D01*
X5348986Y-2233930D01*
X5361432Y-2236012D01*
X5373725Y-2242921D01*
X5377942Y-2247138D01*
X5385155Y-2259177D01*
X5387594Y-2272538D01*
X5387238Y-2277668D01*
X5386273Y-2282698D01*
X5384596Y-2287574D01*
X5381498Y-2293569D01*
X5379212Y-2296617D01*
X5376316Y-2299868D01*
X5372862Y-2303018D01*
X5361432Y-2309317D01*
X5348986Y-2311400D01*
X5336387Y-2309317D01*
X5324195Y-2302357D01*
X5319776Y-2298192D01*
X5312714Y-2286050D01*
X5310378Y-2272538D01*
X5293360Y-2272538D01*
X5295392Y-2287625D01*
X5301488Y-2301748D01*
X5303570Y-2304897D01*
X5306314Y-2308352D01*
X5309311Y-2311603D01*
X5313172Y-2315210D01*
X5317540Y-2318461D01*
X5321554Y-2321052D01*
X5334762Y-2326386D01*
X5349240Y-2328164D01*
X5365445Y-2325674D01*
X5380482Y-2318258D01*
X5384088Y-2315464D01*
X5388356Y-2311654D01*
X5391912Y-2307844D01*
X5394452Y-2304542D01*
X5401868Y-2289302D01*
X5404358Y-2272284D01*
X5404104Y-2266848D01*
X5403291Y-2261412D01*
X5401919Y-2256028D01*
X5400040Y-2250694D01*
X5397500Y-2245563D01*
X5394452Y-2240788D01*
X5392166Y-2237689D01*
X5388356Y-2233422D01*
X5381752Y-2227834D01*
X5366156Y-2219807D01*
G37*
G36*
X5465826Y-2217166D02*
G01*
X5449620Y-2219604D01*
X5434584Y-2226818D01*
X5430977Y-2229612D01*
X5426710Y-2233422D01*
X5422392Y-2238248D01*
X5420614Y-2240788D01*
X5413197Y-2256028D01*
X5410708Y-2272538D01*
X5427472Y-2272538D01*
X5427827Y-2267407D01*
X5428894Y-2262428D01*
X5430621Y-2257653D01*
X5433822Y-2251659D01*
X5435955Y-2248611D01*
X5438952Y-2245258D01*
X5442458Y-2242058D01*
X5453837Y-2235962D01*
X5466080Y-2233930D01*
X5478678Y-2236012D01*
X5490870Y-2242921D01*
X5495290Y-2247138D01*
X5502554Y-2259177D01*
X5504942Y-2272538D01*
X5504586Y-2277668D01*
X5503519Y-2282698D01*
X5501792Y-2287574D01*
X5498592Y-2293569D01*
X5495036Y-2298446D01*
X5490210Y-2303018D01*
X5478780Y-2309317D01*
X5466334Y-2311400D01*
X5453786Y-2309317D01*
X5441543Y-2302357D01*
X5437124Y-2298192D01*
X5429910Y-2286050D01*
X5427472Y-2272538D01*
X5410708Y-2272538D01*
X5412740Y-2287625D01*
X5418836Y-2301748D01*
X5420918Y-2304897D01*
X5426557Y-2311603D01*
X5430266Y-2315210D01*
X5434634Y-2318461D01*
X5438648Y-2321052D01*
X5452059Y-2326386D01*
X5466588Y-2328164D01*
X5482793Y-2325674D01*
X5497830Y-2318258D01*
X5501436Y-2315464D01*
X5505704Y-2311654D01*
X5509209Y-2307844D01*
X5511546Y-2304542D01*
X5519166Y-2289302D01*
X5521706Y-2272284D01*
X5521452Y-2266848D01*
X5520639Y-2261412D01*
X5519267Y-2256028D01*
X5517388Y-2250694D01*
X5514848Y-2245563D01*
X5511800Y-2240788D01*
X5509514Y-2237689D01*
X5505704Y-2233422D01*
X5499100Y-2227834D01*
X5483352Y-2219807D01*
G37*
G36*
X5216398Y-2219452D02*
G01*
X5203494Y-2221433D01*
X5193284Y-2227326D01*
X5186781Y-2237028D01*
X5184648Y-2249424D01*
X5184648Y-2265426D01*
X5201158Y-2265426D01*
X5201158Y-2250440D01*
X5201513Y-2246274D01*
X5202580Y-2242718D01*
X5204307Y-2239670D01*
X5206746Y-2237232D01*
X5209082Y-2235911D01*
X5211419Y-2234946D01*
X5213908Y-2234387D01*
X5216398Y-2234184D01*
X5244236Y-2234336D01*
X5248554Y-2234692D01*
X5252110Y-2235352D01*
X5255006Y-2236216D01*
X5258765Y-2238400D01*
X5261457Y-2241346D01*
X5263083Y-2245106D01*
X5263642Y-2249678D01*
X5263286Y-2253488D01*
X5262219Y-2256739D01*
X5260492Y-2259431D01*
X5258054Y-2261616D01*
X5254904Y-2263292D01*
X5250840Y-2264460D01*
X5245760Y-2265172D01*
X5239766Y-2265426D01*
X5184648Y-2265426D01*
X5184648Y-2280158D01*
X5250027Y-2280259D01*
X5254498Y-2280615D01*
X5258206Y-2281174D01*
X5261102Y-2281936D01*
X5265318Y-2284069D01*
X5268315Y-2287066D01*
X5270144Y-2291029D01*
X5270754Y-2295906D01*
X5270652Y-2298242D01*
X5269636Y-2302408D01*
X5268722Y-2304288D01*
X5267248Y-2306015D01*
X5265928Y-2307082D01*
X5262778Y-2308961D01*
X5258409Y-2310333D01*
X5252872Y-2311146D01*
X5246116Y-2311400D01*
X5201158Y-2311400D01*
X5201158Y-2280158D01*
X5184648Y-2280158D01*
X5184648Y-2326386D01*
X5244592Y-2326386D01*
X5260238Y-2325268D01*
X5272024Y-2321814D01*
X5283454Y-2312111D01*
X5287264Y-2295652D01*
X5287162Y-2292807D01*
X5286248Y-2287473D01*
X5285486Y-2284984D01*
X5283301Y-2280564D01*
X5280406Y-2276754D01*
X5276697Y-2273452D01*
X5272278Y-2270760D01*
X5275630Y-2266696D01*
X5278018Y-2261870D01*
X5279440Y-2256282D01*
X5279898Y-2249932D01*
X5276697Y-2235657D01*
X5267198Y-2225802D01*
X5254040Y-2221026D01*
X5236972Y-2219452D01*
G37*
G36*
X5528056Y-2219452D02*
G01*
X5528056Y-2234692D01*
X5567680Y-2234692D01*
X5567680Y-2326386D01*
X5584190Y-2326386D01*
X5584190Y-2234692D01*
X5624068Y-2234692D01*
X5624068Y-2219452D01*
G37*
G36*
X4080764Y-2219198D02*
G01*
X4074668Y-2219401D01*
X4069079Y-2220010D01*
X4064000Y-2221077D01*
X4059428Y-2222500D01*
X4047439Y-2232507D01*
X4043426Y-2249932D01*
X4043527Y-2252929D01*
X4043934Y-2255774D01*
X4045458Y-2261108D01*
X4047540Y-2265629D01*
X4050436Y-2269540D01*
X4054144Y-2272893D01*
X4058665Y-2275586D01*
X4062272Y-2277110D01*
X4067708Y-2278735D01*
X4072178Y-2279497D01*
X4077462Y-2280005D01*
X4102862Y-2280158D01*
X4108246Y-2280513D01*
X4113276Y-2281682D01*
X4117695Y-2283917D01*
X4120896Y-2287016D01*
X4122775Y-2291029D01*
X4123436Y-2295906D01*
X4118254Y-2307539D01*
X4102608Y-2311400D01*
X4045458Y-2311400D01*
X4045458Y-2326386D01*
X4102354Y-2326386D01*
X4117390Y-2324608D01*
X4129024Y-2319274D01*
X4137050Y-2309418D01*
X4139692Y-2295652D01*
X4139437Y-2290775D01*
X4138676Y-2286304D01*
X4137406Y-2282291D01*
X4135628Y-2278634D01*
X4130649Y-2272842D01*
X4123486Y-2268728D01*
X4114241Y-2266238D01*
X4102862Y-2265426D01*
X4078528Y-2265324D01*
X4074871Y-2265070D01*
X4071772Y-2264562D01*
X4069334Y-2263902D01*
X4065219Y-2261666D01*
X4062272Y-2258568D01*
X4060545Y-2254554D01*
X4059936Y-2249678D01*
X4060291Y-2245664D01*
X4061460Y-2242312D01*
X4064304Y-2238654D01*
X4068419Y-2236012D01*
X4073956Y-2234438D01*
X4080764Y-2233930D01*
X4135628Y-2233930D01*
X4135628Y-2219198D01*
G37*
G36*
X3940048Y-2219452D02*
G01*
X3940048Y-2234184D01*
X3994658Y-2234184D01*
X4006240Y-2235301D01*
X4014470Y-2238552D01*
X4019397Y-2244039D01*
X4021074Y-2251710D01*
X4020870Y-2254605D01*
X4020210Y-2257298D01*
X4019092Y-2259736D01*
X4017518Y-2261870D01*
X4008678Y-2267407D01*
X3994912Y-2269236D01*
X3956558Y-2269236D01*
X3956558Y-2234184D01*
X3940048Y-2234184D01*
X3940048Y-2326386D01*
X3956558Y-2326386D01*
X3956558Y-2283968D01*
X3982465Y-2283968D01*
X3982974Y-2286254D01*
X3985056Y-2291842D01*
X3987292Y-2296414D01*
X3990187Y-2301443D01*
X3993896Y-2306320D01*
X3996994Y-2309876D01*
X4000246Y-2312924D01*
X4006087Y-2317242D01*
X4020718Y-2324100D01*
X4036568Y-2326386D01*
X4036568Y-2309368D01*
X4033012Y-2309215D01*
X4029506Y-2308707D01*
X4026052Y-2307945D01*
X4020921Y-2306167D01*
X4015486Y-2303221D01*
X4011676Y-2300427D01*
X4009390Y-2298446D01*
X4006138Y-2294839D01*
X4004056Y-2292096D01*
X4001719Y-2287778D01*
X4000246Y-2283968D01*
X4008831Y-2282952D01*
X4012590Y-2282240D01*
X4019042Y-2280158D01*
X4027017Y-2275636D01*
X4032758Y-2269439D01*
X4036161Y-2261514D01*
X4037329Y-2251456D01*
X4034485Y-2237841D01*
X4025900Y-2227580D01*
X4012031Y-2221484D01*
X3994404Y-2219452D01*
G37*
G36*
X4146042Y-2219452D02*
G01*
X4146042Y-2234692D01*
X4185665Y-2234692D01*
X4185665Y-2326386D01*
X4202176Y-2326386D01*
X4202176Y-2234692D01*
X4242054Y-2234692D01*
X4242054Y-2219452D01*
G37*
G36*
X6290564Y-3874008D02*
G01*
X6284163Y-3874770D01*
X6278524Y-3877005D01*
X6273546Y-3880459D01*
X6268974Y-3884929D01*
X6273800Y-3889501D01*
X6277203Y-3886098D01*
X6281013Y-3883253D01*
X6285128Y-3881323D01*
X6289548Y-3880612D01*
X6295847Y-3881780D01*
X6300266Y-3885031D01*
X6302908Y-3889959D01*
X6303772Y-3896106D01*
X6303264Y-3901084D01*
X6301740Y-3906265D01*
X6299149Y-3911701D01*
X6295491Y-3917492D01*
X6290716Y-3923639D01*
X6284823Y-3930192D01*
X6277762Y-3937152D01*
X6269482Y-3944620D01*
X6269482Y-3949700D01*
X6315456Y-3949700D01*
X6315456Y-3942587D01*
X6291173Y-3942638D01*
X6281928Y-3943096D01*
X6288481Y-3936796D01*
X6294323Y-3930650D01*
X6299454Y-3924604D01*
X6303772Y-3918712D01*
X6307226Y-3912920D01*
X6309766Y-3907180D01*
X6311341Y-3901490D01*
X6311900Y-3895851D01*
X6311544Y-3891127D01*
X6310426Y-3886860D01*
X6308648Y-3883151D01*
X6306159Y-3880002D01*
X6303111Y-3877462D01*
X6299454Y-3875582D01*
X6295288Y-3874414D01*
G37*
G36*
X6359144Y-3874008D02*
G01*
X6352336Y-3874668D01*
X6346139Y-3876700D01*
X6340602Y-3879951D01*
X6335826Y-3884371D01*
X6331966Y-3889908D01*
X6329070Y-3896512D01*
X6327241Y-3904081D01*
X6326632Y-3912615D01*
X6327241Y-3921099D01*
X6329070Y-3928668D01*
X6331915Y-3935222D01*
X6335776Y-3940759D01*
X6340449Y-3945128D01*
X6345936Y-3948328D01*
X6352032Y-3950309D01*
X6358636Y-3950970D01*
X6365443Y-3950258D01*
X6371386Y-3948226D01*
X6376619Y-3944874D01*
X6381242Y-3940301D01*
X6376670Y-3934968D01*
X6372910Y-3938676D01*
X6368745Y-3941368D01*
X6364224Y-3943045D01*
X6359144Y-3943604D01*
X6353911Y-3943045D01*
X6349187Y-3941419D01*
X6345123Y-3938727D01*
X6341668Y-3935120D01*
X6338925Y-3930599D01*
X6336944Y-3925265D01*
X6335674Y-3919169D01*
X6335268Y-3912362D01*
X6335725Y-3905554D01*
X6336995Y-3899509D01*
X6339078Y-3894175D01*
X6341922Y-3889705D01*
X6345377Y-3886149D01*
X6349542Y-3883558D01*
X6354216Y-3881932D01*
X6359398Y-3881374D01*
X6363919Y-3881882D01*
X6367983Y-3883304D01*
X6371640Y-3885539D01*
X6374892Y-3888486D01*
X6379464Y-3883151D01*
X6375755Y-3879697D01*
X6371132Y-3876751D01*
X6365544Y-3874770D01*
G37*
G36*
X6246114Y-3875278D02*
G01*
X6246114Y-3949700D01*
X6254496Y-3949700D01*
X6254496Y-3875278D01*
G37*
G36*
X4641596Y-4496308D02*
G01*
X4635500Y-4496968D01*
X4630166Y-4498797D01*
X4625390Y-4501540D01*
X4621022Y-4504944D01*
X4625594Y-4510532D01*
X4628997Y-4507534D01*
X4632807Y-4505198D01*
X4636922Y-4503623D01*
X4641342Y-4502912D01*
X4646676Y-4503928D01*
X4650790Y-4506468D01*
X4653381Y-4510328D01*
X4654296Y-4515358D01*
X4653229Y-4521200D01*
X4649673Y-4525873D01*
X4643272Y-4528972D01*
X4633468Y-4530090D01*
X4633468Y-4536440D01*
X4644390Y-4537557D01*
X4651654Y-4540758D01*
X4655616Y-4545634D01*
X4656836Y-4551934D01*
X4655718Y-4557928D01*
X4652518Y-4562500D01*
X4647641Y-4565396D01*
X4641342Y-4566412D01*
X4635246Y-4565700D01*
X4630216Y-4563821D01*
X4626051Y-4561078D01*
X4622546Y-4557776D01*
X4618228Y-4563110D01*
X4622342Y-4566970D01*
X4627575Y-4570171D01*
X4634026Y-4572457D01*
X4641850Y-4573270D01*
X4646574Y-4572914D01*
X4650943Y-4571847D01*
X4654956Y-4570069D01*
X4658410Y-4567682D01*
X4661255Y-4564684D01*
X4663389Y-4561078D01*
X4664760Y-4556861D01*
X4665218Y-4552188D01*
X4663948Y-4545228D01*
X4660595Y-4539640D01*
X4655566Y-4535525D01*
X4649470Y-4533138D01*
X4649470Y-4532884D01*
X4654854Y-4530039D01*
X4659020Y-4526127D01*
X4661712Y-4520996D01*
X4662678Y-4514596D01*
X4661103Y-4506823D01*
X4656734Y-4501083D01*
X4650028Y-4497527D01*
G37*
G36*
X4506214Y-4497578D02*
G01*
X4506214Y-4504436D01*
X4527550Y-4504436D01*
X4535474Y-4505147D01*
X4541316Y-4507484D01*
X4544872Y-4511700D01*
X4546092Y-4518152D01*
X4544872Y-4524756D01*
X4541316Y-4529328D01*
X4535474Y-4532020D01*
X4527550Y-4532884D01*
X4514596Y-4532884D01*
X4514596Y-4504436D01*
X4506214Y-4504436D01*
X4506214Y-4572000D01*
X4514596Y-4572000D01*
X4514596Y-4539996D01*
X4528566Y-4539996D01*
X4547108Y-4572000D01*
X4556506Y-4572000D01*
X4537456Y-4538980D01*
X4544568Y-4536389D01*
X4550003Y-4532071D01*
X4553508Y-4526026D01*
X4554728Y-4518152D01*
X4554220Y-4512868D01*
X4552797Y-4508500D01*
X4550562Y-4504944D01*
X4547463Y-4502150D01*
X4543704Y-4500067D01*
X4539284Y-4498644D01*
X4534306Y-4497832D01*
X4528820Y-4497578D01*
G37*
G36*
X4587240Y-4497578D02*
G01*
X4584090Y-4499203D01*
X4580585Y-4500575D01*
X4576572Y-4501743D01*
X4572000Y-4502658D01*
X4572000Y-4507992D01*
X4585208Y-4507992D01*
X4585208Y-4565142D01*
X4568444Y-4565142D01*
X4568444Y-4572000D01*
X4608576Y-4572000D01*
X4608576Y-4565142D01*
X4593336Y-4565142D01*
X4593336Y-4497578D01*
G37*
G36*
X4849114Y-4497578D02*
G01*
X4849114Y-4504436D01*
X4870450Y-4504436D01*
X4878374Y-4505147D01*
X4884216Y-4507484D01*
X4887772Y-4511700D01*
X4888992Y-4518152D01*
X4887772Y-4524756D01*
X4884216Y-4529328D01*
X4878374Y-4532020D01*
X4870450Y-4532884D01*
X4857496Y-4532884D01*
X4857496Y-4504436D01*
X4849114Y-4504436D01*
X4849114Y-4572000D01*
X4857496Y-4572000D01*
X4857496Y-4539996D01*
X4871466Y-4539996D01*
X4890008Y-4572000D01*
X4899406Y-4572000D01*
X4880356Y-4538980D01*
X4887468Y-4536389D01*
X4892903Y-4532071D01*
X4896408Y-4526026D01*
X4897628Y-4518152D01*
X4897120Y-4512868D01*
X4895697Y-4508500D01*
X4893462Y-4504944D01*
X4890363Y-4502150D01*
X4886604Y-4500067D01*
X4882184Y-4498644D01*
X4877206Y-4497832D01*
X4871720Y-4497578D01*
G37*
G36*
X4930140Y-4497578D02*
G01*
X4926990Y-4499203D01*
X4923485Y-4500575D01*
X4919472Y-4501743D01*
X4914900Y-4502658D01*
X4914900Y-4507992D01*
X4928108Y-4507992D01*
X4928108Y-4565142D01*
X4911344Y-4565142D01*
X4911344Y-4572000D01*
X4951476Y-4572000D01*
X4951476Y-4565142D01*
X4936236Y-4565142D01*
X4936236Y-4497578D01*
G37*
G36*
X4991608Y-4497578D02*
G01*
X4960940Y-4544568D01*
X4969002Y-4544568D01*
X4987036Y-4518152D01*
X4992878Y-4507230D01*
X4993386Y-4507230D01*
X4992624Y-4520438D01*
X4992624Y-4544568D01*
X4960940Y-4544568D01*
X4960112Y-4545838D01*
X4960112Y-4551172D01*
X4992624Y-4551172D01*
X4992624Y-4572000D01*
X5000498Y-4572000D01*
X5000498Y-4551172D01*
X5010658Y-4551172D01*
X5010658Y-4544568D01*
X5000498Y-4544568D01*
X5000498Y-4497578D01*
G37*
D10*
X5522722Y-2577084D02*
G01*
X5522722Y-2686050D01*
X5486400Y-2577084D02*
G01*
X5559043Y-2577084D01*
X5593334Y-2577084D02*
G01*
X5666231Y-2686050D01*
X5666231Y-2577084D02*
G01*
X5593334Y-2686050D01*
X5486400Y-2361184D02*
G01*
X5486400Y-2470150D01*
X5486400Y-2361184D02*
G01*
X5533136Y-2361184D01*
X5548629Y-2366263D01*
X5553963Y-2371597D01*
X5559043Y-2382012D01*
X5559043Y-2392426D01*
X5553963Y-2402839D01*
X5548629Y-2407920D01*
X5533136Y-2413000D01*
X5486400Y-2413000D01*
X5522722Y-2413000D02*
G01*
X5559043Y-2470150D01*
X5593334Y-2361184D02*
G01*
X5666231Y-2470150D01*
X5666231Y-2361184D02*
G01*
X5593334Y-2470150D01*
G36*
X5892088Y-2364333D02*
G01*
X5866130Y-2400300D01*
X5891123Y-2436317D01*
G37*
G36*
X5892088Y-2580233D02*
G01*
X5866130Y-2616200D01*
X5891123Y-2652217D01*
G37*
G36*
X5422900Y-4381500D02*
G01*
X5422900Y-4419600D01*
X5461000Y-4381500D01*
G37*
G36*
X4218076Y-3964482D02*
G01*
X4217111Y-4036466D01*
X4243070Y-4000500D01*
G37*
G36*
X4218076Y-4256582D02*
G01*
X4217111Y-4328566D01*
X4243070Y-4292600D01*
G37*
D11*
X-235920Y-4273522D02*
G01*
X-548297Y-4273522D01*
X-545909Y-3993527D02*
G01*
X-545909Y-4027291D01*
X-235920Y-2127290D02*
G01*
X-538307Y-2127290D01*
X-545909Y-2407297D02*
G01*
X-545909Y-2370543D01*
X-235920Y-2127290D02*
G01*
X-235920Y-2092911D01*
X-105918Y-2092911D02*
G01*
X-230357Y-2092911D01*
X-235920Y-2373508D02*
G01*
X-235920Y-4027299D01*
X-545909Y-3788529D02*
G01*
X-545909Y-3812298D01*
X-545909Y-3688529D02*
G01*
X-545909Y-3712296D01*
X-545909Y-3588527D02*
G01*
X-545909Y-3612296D01*
X-545909Y-3488527D02*
G01*
X-545909Y-3512296D01*
X-545909Y-3388527D02*
G01*
X-545909Y-3412296D01*
X-545909Y-3288522D02*
G01*
X-545909Y-3312297D01*
X-545909Y-3188528D02*
G01*
X-545909Y-3212297D01*
X-545909Y-3088528D02*
G01*
X-545909Y-3112297D01*
X-545909Y-2988528D02*
G01*
X-545909Y-3012297D01*
X-545909Y-2888528D02*
G01*
X-545909Y-2912295D01*
X-545909Y-2788526D02*
G01*
X-545909Y-2812295D01*
X-545909Y-2688526D02*
G01*
X-545909Y-2712295D01*
X-545909Y-2588526D02*
G01*
X-545909Y-2612296D01*
X-545909Y-2488526D02*
G01*
X-545909Y-2512296D01*
X-235920Y-4273522D02*
G01*
X-235920Y-4307908D01*
X-105918Y-4307908D02*
G01*
X-228409Y-4307908D01*
X-545909Y-3012297D02*
G01*
X-545909Y-2988528D01*
X-545909Y-3112297D02*
G01*
X-545909Y-3088528D01*
X-545909Y-3212297D02*
G01*
X-545909Y-3188528D01*
X-545909Y-3312297D02*
G01*
X-545909Y-3288522D01*
X-545909Y-3412296D02*
G01*
X-545909Y-3388527D01*
X-545909Y-3512296D02*
G01*
X-545909Y-3488527D01*
X-545909Y-3612296D02*
G01*
X-545909Y-3588527D01*
X-545909Y-3712296D02*
G01*
X-545909Y-3688529D01*
X-545909Y-3812298D02*
G01*
X-545909Y-3788529D01*
X-545909Y-3912298D02*
G01*
X-545909Y-3888529D01*
X-105918Y-2092911D02*
G01*
X-105918Y-4307908D01*
X5187086Y-5123200D02*
G01*
X5187086Y-5443199D01*
X5085890Y-5123200D02*
G01*
X5187086Y-5123200D01*
X5085890Y-5443199D02*
G01*
X5187086Y-5443199D01*
X4585891Y-5443199D02*
G01*
X4888283Y-5443199D01*
X4287088Y-5443199D02*
G01*
X4388284Y-5443199D01*
X4585891Y-5123200D02*
G01*
X4888283Y-5123200D01*
X4287088Y-5123200D02*
G01*
X4388284Y-5123200D01*
X4287088Y-5123200D02*
G01*
X4287088Y-5443199D01*
X163365Y-2120089D02*
G01*
X475742Y-2120089D01*
X473354Y-2400084D02*
G01*
X473354Y-2366319D01*
X163365Y-4266321D02*
G01*
X465752Y-4266321D01*
X473354Y-3986314D02*
G01*
X473354Y-4023067D01*
X163365Y-4266321D02*
G01*
X163365Y-4300700D01*
X33362Y-4300700D02*
G01*
X157802Y-4300700D01*
X163365Y-4020103D02*
G01*
X163365Y-2366312D01*
X473354Y-2605082D02*
G01*
X473354Y-2581313D01*
X473354Y-2705082D02*
G01*
X473354Y-2681315D01*
X473354Y-2805084D02*
G01*
X473354Y-2781315D01*
X473354Y-2905084D02*
G01*
X473354Y-2881315D01*
X473354Y-3005084D02*
G01*
X473354Y-2981314D01*
X473354Y-3105089D02*
G01*
X473354Y-3081314D01*
X473354Y-3205083D02*
G01*
X473354Y-3181314D01*
X473354Y-3305083D02*
G01*
X473354Y-3281314D01*
X473354Y-3405083D02*
G01*
X473354Y-3381314D01*
X473354Y-3505083D02*
G01*
X473354Y-3481316D01*
X473354Y-3605085D02*
G01*
X473354Y-3581316D01*
X473354Y-3705085D02*
G01*
X473354Y-3681315D01*
X473354Y-3805085D02*
G01*
X473354Y-3781315D01*
X473354Y-3905084D02*
G01*
X473354Y-3881315D01*
X163365Y-2120089D02*
G01*
X163365Y-2085703D01*
X33362Y-2085703D02*
G01*
X155854Y-2085703D01*
X473354Y-3381314D02*
G01*
X473354Y-3405083D01*
X473354Y-3281314D02*
G01*
X473354Y-3305083D01*
X473354Y-3181314D02*
G01*
X473354Y-3205083D01*
X473354Y-3081314D02*
G01*
X473354Y-3105089D01*
X473354Y-2981314D02*
G01*
X473354Y-3005084D01*
X473354Y-2881315D02*
G01*
X473354Y-2905084D01*
X473354Y-2781315D02*
G01*
X473354Y-2805084D01*
X473354Y-2681315D02*
G01*
X473354Y-2705082D01*
X473354Y-2581313D02*
G01*
X473354Y-2605082D01*
X473354Y-2481313D02*
G01*
X473354Y-2505082D01*
X33362Y-4300700D02*
G01*
X33362Y-2085703D01*
D12*
X5843099Y-2473299D02*
G01*
X5728101Y-2473299D01*
X5728101Y-2328301D01*
X5848101Y-2328301D01*
X5910099Y-2327300D02*
G01*
X6034100Y-2327300D01*
X6034100Y-2472298D01*
X5910099Y-2472298D01*
X5728101Y-2473299D02*
G01*
X5725099Y-2473299D01*
X5705099Y-2453299D01*
X5705099Y-2351300D01*
X5708101Y-2348301D01*
X5728101Y-2328301D01*
X5843099Y-2689199D02*
G01*
X5728101Y-2689199D01*
X5728101Y-2544201D01*
X5848101Y-2544201D01*
X5910099Y-2543200D02*
G01*
X6034100Y-2543200D01*
X6034100Y-2688198D01*
X5910099Y-2688198D01*
X5728101Y-2689199D02*
G01*
X5725099Y-2689199D01*
X5705099Y-2669199D01*
X5705099Y-2567200D01*
X5708101Y-2564201D01*
X5728101Y-2544201D01*
D11*
X6106104Y-2320297D02*
G01*
X6106104Y-2480302D01*
X6291165Y-2479791D02*
G01*
X6416161Y-2479791D01*
X6291165Y-2319787D02*
G01*
X6416161Y-2319787D01*
X6231107Y-2480302D02*
G01*
X6106104Y-2480302D01*
X6231107Y-2320297D02*
G01*
X6106104Y-2320297D01*
X6416161Y-2319787D02*
G01*
X6416161Y-2479791D01*
X6106104Y-2536197D02*
G01*
X6106104Y-2696202D01*
X6291165Y-2695691D02*
G01*
X6416161Y-2695691D01*
X6291165Y-2535687D02*
G01*
X6416161Y-2535687D01*
X6231107Y-2696202D02*
G01*
X6106104Y-2696202D01*
X6231107Y-2536197D02*
G01*
X6106104Y-2536197D01*
X6416161Y-2535687D02*
G01*
X6416161Y-2695691D01*
D13*
X5425930Y-3022820D02*
G01*
X5597669Y-3022820D01*
X5597669Y-2919658D01*
X5425930Y-2717579D02*
G01*
X5597669Y-2717579D01*
X5597669Y-2820741D01*
X5425930Y-2915739D02*
G01*
X5425930Y-2824660D01*
X5421866Y-3448016D02*
G01*
X5593605Y-3448016D01*
X5593605Y-3344854D01*
X5421866Y-3142775D02*
G01*
X5593605Y-3142775D01*
X5593605Y-3245937D01*
X5421866Y-3340935D02*
G01*
X5421866Y-3249856D01*
D14*
X704227Y-1714106D02*
G01*
X704227Y-1994268D01*
X1124343Y-1714106D02*
G01*
X1124343Y-1994268D01*
D11*
X6276418Y-4145442D02*
G01*
X6356416Y-4145442D01*
X6220373Y-4145396D02*
G01*
X6140376Y-4145396D01*
X6276418Y-4287410D02*
G01*
X6356416Y-4287410D01*
X6220373Y-4287362D02*
G01*
X6140376Y-4287362D01*
X6387391Y-4176425D02*
G01*
X6387391Y-4256430D01*
X6109398Y-4256377D02*
G01*
X6109398Y-4176374D01*
X5547281Y-4287357D02*
G01*
X5467283Y-4287357D01*
X5603326Y-4287403D02*
G01*
X5683323Y-4287403D01*
X5547281Y-4145389D02*
G01*
X5467283Y-4145389D01*
X5603326Y-4145437D02*
G01*
X5683323Y-4145437D01*
X5436308Y-4256374D02*
G01*
X5436308Y-4176369D01*
X5714301Y-4176422D02*
G01*
X5714301Y-4256425D01*
X5203197Y-4790495D02*
G01*
X5363202Y-4790495D01*
X5362691Y-4605434D02*
G01*
X5362691Y-4480438D01*
X5202687Y-4605434D02*
G01*
X5202687Y-4480438D01*
X5363202Y-4665492D02*
G01*
X5363202Y-4790495D01*
X5203197Y-4665492D02*
G01*
X5203197Y-4790495D01*
X5202687Y-4480438D02*
G01*
X5362691Y-4480438D01*
X6010902Y-4467804D02*
G01*
X5850897Y-4467804D01*
X5851408Y-4652865D02*
G01*
X5851408Y-4777861D01*
X6011412Y-4652865D02*
G01*
X6011412Y-4777861D01*
X5850897Y-4592807D02*
G01*
X5850897Y-4467804D01*
X6010902Y-4592807D02*
G01*
X6010902Y-4467804D01*
X6011412Y-4777861D02*
G01*
X5851408Y-4777861D01*
D14*
X5727700Y-4787912D02*
G01*
X5422900Y-4787912D01*
X5422900Y-4381512D01*
X5727700Y-4381512D01*
X5727700Y-4787912D01*
D15*
X6083300Y-4412302D02*
G01*
X6385712Y-4412302D01*
X6385712Y-4793302D01*
X6083300Y-4793302D01*
X6083300Y-4412302D01*
D11*
X3977695Y-4080502D02*
G01*
X3977695Y-3920497D01*
X3792634Y-3921008D02*
G01*
X3667638Y-3921008D01*
X3792634Y-4081012D02*
G01*
X3667638Y-4081012D01*
X3852692Y-3920497D02*
G01*
X3977695Y-3920497D01*
X3852692Y-4080502D02*
G01*
X3977695Y-4080502D01*
X3667638Y-4081012D02*
G01*
X3667638Y-3921008D01*
D12*
X4266100Y-3927500D02*
G01*
X4381098Y-3927500D01*
X4381098Y-4072498D01*
X4261098Y-4072498D01*
X4199100Y-4073499D02*
G01*
X4075099Y-4073499D01*
X4075099Y-3928501D01*
X4199100Y-3928501D01*
X4381098Y-3927500D02*
G01*
X4384100Y-3927500D01*
X4404100Y-3947500D01*
X4404100Y-4049499D01*
X4401098Y-4052498D01*
X4381098Y-4072498D01*
X4266100Y-4219600D02*
G01*
X4381098Y-4219600D01*
X4381098Y-4364598D01*
X4261098Y-4364598D01*
X4199100Y-4365599D02*
G01*
X4075099Y-4365599D01*
X4075099Y-4220601D01*
X4199100Y-4220601D01*
X4381098Y-4219600D02*
G01*
X4384100Y-4219600D01*
X4404100Y-4239600D01*
X4404100Y-4341599D01*
X4401098Y-4344598D01*
X4381098Y-4364598D01*
D11*
X3981495Y-4372602D02*
G01*
X3981495Y-4212597D01*
X3796433Y-4213108D02*
G01*
X3671437Y-4213108D01*
X3796433Y-4373112D02*
G01*
X3671437Y-4373112D01*
X3856492Y-4212597D02*
G01*
X3981495Y-4212597D01*
X3856492Y-4372602D02*
G01*
X3981495Y-4372602D01*
X3671437Y-4373112D02*
G01*
X3671437Y-4213108D01*
X2862216Y-4107304D02*
G01*
X3124301Y-4107304D01*
X3124301Y-4012819D01*
X1320901Y-4012819D02*
G01*
X1320901Y-4107304D01*
X1582986Y-4107304D01*
X1320901Y-2179403D02*
G01*
X1320901Y-2225588D01*
X3124301Y-2225588D02*
G01*
X3124301Y-2179403D01*
X1320901Y-2179403D01*
X1322603Y-1551693D02*
G01*
X3122599Y-1551693D01*
X3122599Y-2181689D01*
X1322603Y-2181689D01*
X1322603Y-1551693D01*
X4574621Y-2456342D02*
G01*
X4654618Y-2456342D01*
X4518576Y-2456296D02*
G01*
X4438578Y-2456296D01*
X4574621Y-2598310D02*
G01*
X4654618Y-2598310D01*
X4518576Y-2598262D02*
G01*
X4438578Y-2598262D01*
X4685593Y-2487325D02*
G01*
X4685593Y-2567330D01*
X4407601Y-2567277D02*
G01*
X4407601Y-2487274D01*
X2484399Y-5583186D02*
G01*
X1884400Y-5583186D01*
X1884400Y-4983187D01*
X2484399Y-4983187D01*
X2484399Y-5583186D01*
X3732771Y-2840997D02*
G01*
X3812768Y-2840997D01*
X3676726Y-2840951D02*
G01*
X3596728Y-2840951D01*
X3732771Y-2982965D02*
G01*
X3812768Y-2982965D01*
X3676726Y-2982917D02*
G01*
X3596728Y-2982917D01*
X3843743Y-2871980D02*
G01*
X3843743Y-2951985D01*
X3565751Y-2951932D02*
G01*
X3565751Y-2871929D01*
X3723718Y-3637442D02*
G01*
X3803716Y-3637442D01*
X3667673Y-3637396D02*
G01*
X3587676Y-3637396D01*
X3723718Y-3779410D02*
G01*
X3803716Y-3779410D01*
X3667673Y-3779362D02*
G01*
X3587676Y-3779362D01*
X3834691Y-3668425D02*
G01*
X3834691Y-3748430D01*
X3556698Y-3748377D02*
G01*
X3556698Y-3668374D01*
X453397Y-2021895D02*
G01*
X613402Y-2021895D01*
X612891Y-1836834D02*
G01*
X612891Y-1711838D01*
X452887Y-1836834D02*
G01*
X452887Y-1711838D01*
X613402Y-1896892D02*
G01*
X613402Y-2021895D01*
X453397Y-1896892D02*
G01*
X453397Y-2021895D01*
X452887Y-1711838D02*
G01*
X612891Y-1711838D01*
D13*
X3829448Y-3043969D02*
G01*
X3564211Y-3043969D01*
X3564211Y-3158850D01*
X3829448Y-3509205D02*
G01*
X3564211Y-3509205D01*
X3564211Y-3394323D01*
D11*
X2879097Y-5577895D02*
G01*
X3039102Y-5577895D01*
X3038591Y-5392834D02*
G01*
X3038591Y-5267838D01*
X2878587Y-5392834D02*
G01*
X2878587Y-5267838D01*
X3039102Y-5452892D02*
G01*
X3039102Y-5577895D01*
X2879097Y-5452892D02*
G01*
X2879097Y-5577895D01*
X2878587Y-5267838D02*
G01*
X3038591Y-5267838D01*
X5972802Y-2804104D02*
G01*
X5812797Y-2804104D01*
X5813308Y-2989165D02*
G01*
X5813308Y-3114161D01*
X5973312Y-2989165D02*
G01*
X5973312Y-3114161D01*
X5812797Y-2929107D02*
G01*
X5812797Y-2804104D01*
X5972802Y-2929107D02*
G01*
X5972802Y-2804104D01*
X5973312Y-3114161D02*
G01*
X5813308Y-3114161D01*
X5566402Y-3578804D02*
G01*
X5406397Y-3578804D01*
X5406908Y-3763865D02*
G01*
X5406908Y-3888861D01*
X5566912Y-3763865D02*
G01*
X5566912Y-3888861D01*
X5406397Y-3703807D02*
G01*
X5406397Y-3578804D01*
X5566402Y-3703807D02*
G01*
X5566402Y-3578804D01*
X5566912Y-3888861D02*
G01*
X5406908Y-3888861D01*
X5286745Y-2715204D02*
G01*
X5126741Y-2715204D01*
X5127251Y-2900265D02*
G01*
X5127251Y-3025261D01*
X5287256Y-2900265D02*
G01*
X5287256Y-3025261D01*
X5126741Y-2840207D02*
G01*
X5126741Y-2715204D01*
X5286745Y-2840207D02*
G01*
X5286745Y-2715204D01*
X5287256Y-3025261D02*
G01*
X5127251Y-3025261D01*
X5127254Y-3444295D02*
G01*
X5287258Y-3444295D01*
X5286748Y-3259234D02*
G01*
X5286748Y-3134238D01*
X5126743Y-3259234D02*
G01*
X5126743Y-3134238D01*
X5287258Y-3319292D02*
G01*
X5287258Y-3444295D01*
X5127254Y-3319292D02*
G01*
X5127254Y-3444295D01*
X5126743Y-3134238D02*
G01*
X5286748Y-3134238D01*
D13*
X4381563Y-2687883D02*
G01*
X4735842Y-2687883D01*
X4735842Y-3703121D01*
X4381563Y-3703121D01*
X4381563Y-2687883D01*
D11*
X5126997Y-3888795D02*
G01*
X5287002Y-3888795D01*
X5286491Y-3703734D02*
G01*
X5286491Y-3578738D01*
X5126487Y-3703734D02*
G01*
X5126487Y-3578738D01*
X5287002Y-3763792D02*
G01*
X5287002Y-3888795D01*
X5126997Y-3763792D02*
G01*
X5126997Y-3888795D01*
X5126487Y-3578738D02*
G01*
X5286491Y-3578738D01*
X5052004Y-2447297D02*
G01*
X5052004Y-2607302D01*
X5237065Y-2606791D02*
G01*
X5362061Y-2606791D01*
X5237065Y-2446787D02*
G01*
X5362061Y-2446787D01*
X5177007Y-2607302D02*
G01*
X5052004Y-2607302D01*
X5177007Y-2447297D02*
G01*
X5052004Y-2447297D01*
X5362061Y-2446787D02*
G01*
X5362061Y-2606791D01*
X5072100Y-1566913D02*
G01*
X5672099Y-1566913D01*
X5672099Y-2166912D01*
X5072100Y-2166912D01*
X5072100Y-1566913D01*
X3776700Y-1566913D02*
G01*
X4376699Y-1566913D01*
X4376699Y-2166912D01*
X3776700Y-2166912D01*
X3776700Y-1566913D01*
D10*
X6426200Y-3848100D02*
G01*
X6172200Y-3848100D01*
X6172200Y-2832100D01*
X6426200Y-2832100D01*
X6426200Y-3022600D01*
D16*
X6426200Y-3848100D02*
G01*
X6426200Y-3022600D01*
D11*
X1181100Y-5245112D02*
G01*
X1181100Y-5346712D01*
X1079500Y-5346712D01*
X1079500Y-5245112D01*
X1181100Y-5245112D01*
X1231900Y-5168912D02*
G01*
X1231900Y-5422912D01*
X622300Y-5422912D01*
X622300Y-5168912D01*
X1231900Y-5168912D01*
X1387096Y-5475914D02*
G01*
X1259657Y-5475914D01*
X1094541Y-5475914D02*
G01*
X1009655Y-5475914D01*
X844544Y-5475914D02*
G01*
X759655Y-5475914D01*
X594545Y-5475914D02*
G01*
X469900Y-5473700D01*
X469900Y-5118112D02*
G01*
X595155Y-5118112D01*
X759045Y-5118112D02*
G01*
X845154Y-5118112D01*
X1009045Y-5118112D02*
G01*
X1095154Y-5118112D01*
X1259044Y-5118112D02*
G01*
X1387096Y-5118112D01*
X1387096Y-5475914D02*
G01*
X1387096Y-5118100D01*
X469900Y-5118112D02*
G01*
X469900Y-5475914D01*
X4509698Y-4889797D02*
G01*
X4659701Y-4889797D01*
X4659701Y-4779792D02*
G01*
X4659701Y-4889898D01*
X4509698Y-4779794D02*
G01*
X4509698Y-4889898D01*
X4659190Y-4719734D02*
G01*
X4659190Y-4609701D01*
X4509188Y-4719734D02*
G01*
X4509188Y-4609701D01*
X4509698Y-4609701D02*
G01*
X4659701Y-4609736D01*
X4977201Y-4609802D02*
G01*
X4827198Y-4609802D01*
X4827198Y-4719807D02*
G01*
X4827198Y-4609701D01*
X4977201Y-4719805D02*
G01*
X4977201Y-4609701D01*
X4827709Y-4779865D02*
G01*
X4827709Y-4889898D01*
X4977711Y-4779865D02*
G01*
X4977711Y-4889898D01*
X4977201Y-4889898D02*
G01*
X4827198Y-4889863D01*
D14*
G75*
G01*
X1124285Y-1994200D02*
G02*
X703362Y-1992803I-209999J139998D01*
G75*
G01*
X704286Y-1714200D02*
G02*
X1125210Y-1715597I210000J-139998D01*
D11*
G75*
G01*
X6140381Y-4287363D02*
G02*
X6109399Y-4256377I0J30983D01*
G75*
G01*
X6109399Y-4176380D02*
G02*
X6140381Y-4145397I30982J0D01*
G75*
G01*
X6356411Y-4145443D02*
G02*
X6387391Y-4176425I-3J-30982D01*
G75*
G01*
X6387391Y-4256423D02*
G02*
X6356411Y-4287411I-30983J-5D01*
G75*
G01*
X5683319Y-4145437D02*
G02*
X5714301Y-4176423I0J-30983D01*
G75*
G01*
X5714301Y-4256420D02*
G02*
X5683319Y-4287403I-30982J0D01*
G75*
G01*
X5467289Y-4287357D02*
G02*
X5436309Y-4256375I3J30982D01*
G75*
G01*
X5436309Y-4176377D02*
G02*
X5467289Y-4145389I30983J5D01*
G75*
G01*
X4438584Y-2598263D02*
G02*
X4407601Y-2567277I0J30983D01*
G75*
G01*
X4407601Y-2487280D02*
G02*
X4438584Y-2456297I30983J0D01*
G75*
G01*
X4654613Y-2456343D02*
G02*
X4685594Y-2487325I-2J-30982D01*
G75*
G01*
X4685594Y-2567323D02*
G02*
X4654613Y-2598311I-30983J-5D01*
G75*
G01*
X3596734Y-2982918D02*
G02*
X3565751Y-2951932I0J30983D01*
G75*
G01*
X3565751Y-2871935D02*
G02*
X3596734Y-2840952I30983J0D01*
G75*
G01*
X3812764Y-2840998D02*
G02*
X3843744Y-2871981I-3J-30983D01*
G75*
G01*
X3843744Y-2951978D02*
G02*
X3812764Y-2982966I-30983J-5D01*
G75*
G01*
X3587681Y-3779363D02*
G02*
X3556699Y-3748377I0J30983D01*
G75*
G01*
X3556699Y-3668380D02*
G02*
X3587681Y-3637397I30982J0D01*
G75*
G01*
X3803711Y-3637443D02*
G02*
X3834691Y-3668425I-3J-30982D01*
G75*
G01*
X3834691Y-3748423D02*
G02*
X3803711Y-3779411I-30983J-5D01*
G75*
G01
X-596697Y-4021912D02*
G03X-596697Y-4021912I-12700J0D01*
G75*
G01
X549554Y-2371700D02*
G03X549554Y-2371700I-12700J0D01*
D17*
G75*
G01
X5579974Y-4624756D02*
G03X5579974Y-4624756I-5004J0D01*
D18*
G75*
G01
X6257722Y-4856810D02*
G03X6257722Y-4856810I-22022J0D01*
D11*
G75*
G01
X2337333Y-5283175D02*
G03X2337333Y-5283175I-152933J0D01*
G75*
G01
X2032000Y-5079975D02*
G03X2032000Y-5079975I-50800J0D01*
G75*
G01
X2438400Y-5079975D02*
G03X2438400Y-5079975I-50800J0D01*
G75*
G01
X2032000Y-5486375D02*
G03X2032000Y-5486375I-50800J0D01*
G75*
G01
X2438197Y-5486222D02*
G03X2438197Y-5486222I-50800J0D01*
D19*
G75*
G01
X4286453Y-2677795D02*
G03X4286453Y-2677795I-15011J0D01*
G75*
G01
X4471797Y-2751023D02*
G03X4471797Y-2751023I-15011J0D01*
D11*
G75*
G01
X5525059Y-1866925D02*
G03X5525059Y-1866925I-152933J0D01*
G75*
G01
X5626125Y-2070125D02*
G03X5626125Y-2070125I-50800J0D01*
G75*
G01
X5219725Y-2070125D02*
G03X5219725Y-2070125I-50800J0D01*
G75*
G01
X5626125Y-1663725D02*
G03X5626125Y-1663725I-50800J0D01*
G75*
G01
X5219929Y-1663878D02*
G03X5219929Y-1663878I-50800J0D01*
G75*
G01
X4229659Y-1866925D02*
G03X4229659Y-1866925I-152933J0D01*
G75*
G01
X4330725Y-2070125D02*
G03X4330725Y-2070125I-50800J0D01*
G75*
G01
X3924325Y-2070125D02*
G03X3924325Y-2070125I-50800J0D01*
G75*
G01
X4330725Y-1663725D02*
G03X4330725Y-1663725I-50800J0D01*
G75*
G01
X3924529Y-1663878D02*
G03X3924529Y-1663878I-50800J0D01*
M02*
