G04 Layer: TopPasteMaskLayer*
G04 EasyEDA v6.5.50, 2025-06-19 09:08:47*
G04 325562750588475293780cdaac5b2654,9a14cf9cccb343e4808d4fef6e5d14ac,10*
G04 Gerber Generator version 0.2*
G04 Scale: 100 percent, Rotated: No, Reflected: No *
G04 Dimensions in millimeters *
G04 leading zeros omitted , absolute positions ,4 integer and 5 decimal *
%FSLAX45Y45*%
%MOMM*%

%AMMACRO1*21,1,$1,$2,0,0,$3*%
%ADD10R,3.0000X2.0000*%
%ADD11R,1.4000X0.4000*%
%ADD12R,0.8999X1.0000*%
%ADD13R,1.0000X1.1000*%
%ADD14MACRO1,0.532X1.0375X-90.0000*%
%ADD15R,0.8000X0.9000*%
%ADD16R,1.1000X1.0000*%
%ADD17R,1.3000X0.3500*%
%ADD18R,0.3500X2.3000*%
%ADD19R,0.4500X0.9500*%
%ADD20R,0.7250X0.5220*%
%ADD21R,2.4000X0.9000*%
%ADD22R,0.9000X2.4000*%
%ADD23R,5.0000X5.0000*%
%ADD24R,2.3000X1.5000*%
%ADD25MACRO1,0.672X1.575X90.0000*%
%ADD26O,1.7450054X0.5599938*%
%ADD27R,1.1999X2.0000*%
%ADD28R,0.9000X0.8000*%
%ADD29R,0.0163X0.8000*%

%LPD*%
D10*
G01*
X-393471Y-4150410D03*
G01*
X-384657Y-2250389D03*
D11*
G01*
X-605942Y-2950413D03*
G01*
X-605942Y-3050412D03*
G01*
X-605942Y-3150412D03*
G01*
X-605942Y-3250412D03*
G01*
X-605942Y-3350412D03*
G01*
X-605942Y-3450412D03*
G01*
X-605942Y-3550412D03*
G01*
X-605942Y-3650411D03*
G01*
X-605942Y-3750411D03*
G01*
X-605942Y-3850411D03*
G01*
X-605942Y-3950411D03*
G01*
X-605942Y-2850413D03*
G01*
X-605942Y-2550413D03*
G01*
X-605942Y-2450414D03*
G01*
X-605942Y-2750413D03*
G01*
X-605942Y-2650413D03*
D10*
G01*
X320903Y-2243201D03*
G01*
X312089Y-4143222D03*
D11*
G01*
X533400Y-3443198D03*
G01*
X533400Y-3343198D03*
G01*
X533400Y-3243198D03*
G01*
X533400Y-3143199D03*
G01*
X533400Y-3043199D03*
G01*
X533400Y-2943199D03*
G01*
X533400Y-2843199D03*
G01*
X533400Y-2743200D03*
G01*
X533400Y-2643200D03*
G01*
X533400Y-2543200D03*
G01*
X533400Y-2443200D03*
G01*
X533400Y-3543198D03*
G01*
X533400Y-3843197D03*
G01*
X533400Y-3943197D03*
G01*
X533400Y-3643198D03*
G01*
X533400Y-3743197D03*
D12*
G01*
X5795111Y-2400300D03*
G01*
X5965113Y-2400300D03*
G01*
X5795111Y-2616200D03*
G01*
X5965113Y-2616200D03*
D13*
G01*
X6341109Y-2400300D03*
G01*
X6181115Y-2400300D03*
G01*
X6341109Y-2616200D03*
G01*
X6181115Y-2616200D03*
D14*
G01*
X5401674Y-2775200D03*
G01*
X5401674Y-2965199D03*
G01*
X5621925Y-2870200D03*
G01*
X5397610Y-3200396D03*
G01*
X5397610Y-3390395D03*
G01*
X5617861Y-3295396D03*
D15*
G01*
X6178397Y-4216400D03*
G01*
X6318402Y-4216400D03*
G01*
X5645302Y-4216400D03*
G01*
X5505297Y-4216400D03*
D16*
G01*
X5283200Y-4555489D03*
G01*
X5283200Y-4715484D03*
G01*
X5930900Y-4702810D03*
G01*
X5930900Y-4542815D03*
D17*
G01*
X5575300Y-4757191D03*
G01*
X5575300Y-4412208D03*
D18*
G01*
X5452795Y-4584700D03*
G01*
X5697804Y-4584700D03*
D19*
G01*
X5532805Y-4652213D03*
G01*
X5532805Y-4517212D03*
G01*
X5617794Y-4517212D03*
G01*
X5617794Y-4652213D03*
D20*
G01*
X6319494Y-4561103D03*
G01*
X6319494Y-4478909D03*
G01*
X6151905Y-4561103D03*
G01*
X6151905Y-4478909D03*
D13*
G01*
X3742690Y-4000500D03*
G01*
X3902684Y-4000500D03*
D12*
G01*
X4314088Y-4000500D03*
G01*
X4144086Y-4000500D03*
G01*
X4314088Y-4292600D03*
G01*
X4144086Y-4292600D03*
D13*
G01*
X3746500Y-4292600D03*
G01*
X3906494Y-4292600D03*
D21*
G01*
X1352626Y-2293696D03*
G01*
X1352626Y-2420696D03*
G01*
X1352626Y-2547696D03*
G01*
X1352626Y-2674696D03*
G01*
X1352626Y-2801696D03*
G01*
X1352626Y-2928696D03*
G01*
X1352626Y-3055696D03*
G01*
X1352626Y-3182696D03*
G01*
X1352626Y-3309696D03*
G01*
X1352626Y-3436696D03*
G01*
X1352626Y-3563696D03*
G01*
X1352626Y-3690696D03*
G01*
X1352626Y-3817696D03*
G01*
X1352626Y-3944696D03*
D22*
G01*
X1651101Y-4086732D03*
G01*
X1778101Y-4086732D03*
G01*
X1905101Y-4086732D03*
G01*
X2032101Y-4086732D03*
G01*
X2159101Y-4086732D03*
G01*
X2286101Y-4086707D03*
G01*
X2413101Y-4086707D03*
G01*
X2540101Y-4086707D03*
G01*
X2667101Y-4086707D03*
G01*
X2794101Y-4086707D03*
D21*
G01*
X3092577Y-3944696D03*
G01*
X3092577Y-3817696D03*
G01*
X3092577Y-3690696D03*
G01*
X3092577Y-3563696D03*
G01*
X3092577Y-3436696D03*
G01*
X3092577Y-3309696D03*
G01*
X3092577Y-3182696D03*
G01*
X3092577Y-3055696D03*
G01*
X3092577Y-2928696D03*
G01*
X3092577Y-2801696D03*
G01*
X3092577Y-2674696D03*
G01*
X3092577Y-2547696D03*
G01*
X3092577Y-2420696D03*
G01*
X3092577Y-2293696D03*
D23*
G01*
X2120900Y-3048000D03*
D15*
G01*
X4476597Y-2527300D03*
G01*
X4616602Y-2527300D03*
D24*
G01*
X2639390Y-5508218D03*
G01*
X1729409Y-5508193D03*
G01*
X2639390Y-5058206D03*
G01*
X1729409Y-5058206D03*
D15*
G01*
X3634765Y-2911957D03*
G01*
X3774744Y-2911957D03*
G01*
X3625697Y-3708400D03*
G01*
X3765702Y-3708400D03*
D16*
G01*
X533400Y-1786889D03*
G01*
X533400Y-1946884D03*
D25*
G01*
X3894830Y-3426586D03*
G01*
X3894830Y-3126587D03*
G36*
X3716299Y-3180717D02*
G01*
X3720752Y-3180824D01*
X3725194Y-3181136D01*
X3729619Y-3181657D01*
X3734013Y-3182383D01*
X3738369Y-3183318D01*
X3742674Y-3184453D01*
X3746924Y-3185789D01*
X3751105Y-3187324D01*
X3755209Y-3189053D01*
X3759230Y-3190971D01*
X3763154Y-3193077D01*
X3766977Y-3195365D01*
X3770688Y-3197829D01*
X3774279Y-3200463D01*
X3777741Y-3203262D01*
X3781071Y-3206224D01*
X3784257Y-3209335D01*
X3787294Y-3212594D01*
X3790175Y-3215990D01*
X3792893Y-3219518D01*
X3795443Y-3223171D01*
X3797818Y-3226937D01*
X3800015Y-3230813D01*
X3802029Y-3234786D01*
X3803853Y-3242716D01*
X3973586Y-3242716D01*
X3973586Y-3308715D01*
X3803853Y-3308715D01*
X3802029Y-3316650D01*
X3800015Y-3320623D01*
X3797818Y-3324499D01*
X3795443Y-3328266D01*
X3792893Y-3331918D01*
X3790175Y-3335446D01*
X3787294Y-3338842D01*
X3784257Y-3342101D01*
X3781071Y-3345213D01*
X3777741Y-3348174D01*
X3774279Y-3350973D01*
X3770688Y-3353607D01*
X3766977Y-3356071D01*
X3763154Y-3358360D01*
X3759230Y-3360465D01*
X3755209Y-3362383D01*
X3751105Y-3364113D01*
X3746924Y-3365647D01*
X3742674Y-3366983D01*
X3738369Y-3368118D01*
X3734013Y-3369053D01*
X3729619Y-3369779D01*
X3725194Y-3370300D01*
X3720752Y-3370613D01*
X3716299Y-3370719D01*
X3530879Y-3370719D01*
X3526426Y-3370613D01*
X3521984Y-3370300D01*
X3517559Y-3369779D01*
X3513165Y-3369053D01*
X3508809Y-3368118D01*
X3504504Y-3366983D01*
X3500254Y-3365647D01*
X3496073Y-3364113D01*
X3491969Y-3362383D01*
X3487948Y-3360465D01*
X3484024Y-3358360D01*
X3480201Y-3356071D01*
X3476490Y-3353607D01*
X3472898Y-3350973D01*
X3469436Y-3348174D01*
X3466106Y-3345213D01*
X3462921Y-3342101D01*
X3459883Y-3338842D01*
X3457003Y-3335446D01*
X3454285Y-3331918D01*
X3451735Y-3328266D01*
X3449360Y-3324499D01*
X3447163Y-3320623D01*
X3445149Y-3316650D01*
X3443325Y-3312586D01*
X3441692Y-3308443D01*
X3440257Y-3304227D01*
X3439020Y-3299947D01*
X3437986Y-3295614D01*
X3437155Y-3291240D01*
X3436531Y-3286828D01*
X3436114Y-3282393D01*
X3435906Y-3277946D01*
X3435906Y-3273491D01*
X3436114Y-3269043D01*
X3436531Y-3264608D01*
X3437155Y-3260196D01*
X3437986Y-3255822D01*
X3439020Y-3251489D01*
X3440257Y-3247209D01*
X3441692Y-3242993D01*
X3443325Y-3238850D01*
X3445149Y-3234786D01*
X3447163Y-3230813D01*
X3449360Y-3226937D01*
X3451735Y-3223171D01*
X3454285Y-3219518D01*
X3457003Y-3215990D01*
X3459883Y-3212594D01*
X3462921Y-3209335D01*
X3466106Y-3206224D01*
X3469436Y-3203262D01*
X3472898Y-3200463D01*
X3476490Y-3197829D01*
X3480201Y-3195365D01*
X3484024Y-3193077D01*
X3487948Y-3190971D01*
X3491969Y-3189053D01*
X3496073Y-3187324D01*
X3500254Y-3185789D01*
X3504504Y-3184453D01*
X3508809Y-3183318D01*
X3513165Y-3182383D01*
X3517559Y-3181657D01*
X3521984Y-3181136D01*
X3526426Y-3180824D01*
X3530879Y-3180717D01*
G37*
D16*
G01*
X2959100Y-5342889D03*
G01*
X2959100Y-5502884D03*
G01*
X5892800Y-3039110D03*
G01*
X5892800Y-2879115D03*
G01*
X5486400Y-3813810D03*
G01*
X5486400Y-3653815D03*
G01*
X5206745Y-2950210D03*
G01*
X5206745Y-2790215D03*
G01*
X5207254Y-3209289D03*
G01*
X5207254Y-3369284D03*
D26*
G01*
X4845938Y-3639997D03*
G01*
X4845938Y-3512997D03*
G01*
X4845938Y-3385997D03*
G01*
X4845938Y-3258997D03*
G01*
X4845938Y-3131997D03*
G01*
X4845938Y-3004997D03*
G01*
X4845938Y-2877997D03*
G01*
X4845938Y-2750997D03*
G01*
X4271441Y-3639997D03*
G01*
X4271441Y-3512997D03*
G01*
X4271441Y-3385997D03*
G01*
X4271441Y-3258997D03*
G01*
X4271441Y-3131997D03*
G01*
X4271441Y-3004997D03*
G01*
X4271441Y-2877997D03*
G01*
X4271441Y-2750997D03*
D16*
G01*
X5207000Y-3653789D03*
G01*
X5207000Y-3813784D03*
D13*
G01*
X5287009Y-2527300D03*
G01*
X5127015Y-2527300D03*
D24*
G01*
X4917109Y-1641906D03*
G01*
X5827090Y-1641932D03*
G01*
X4917109Y-2091918D03*
G01*
X5827090Y-2091918D03*
G01*
X3621709Y-1641906D03*
G01*
X4531690Y-1641932D03*
G01*
X3621709Y-2091918D03*
G01*
X4531690Y-2091918D03*
D27*
G01*
X927100Y-5010912D03*
G01*
X677113Y-5010912D03*
G01*
X1177086Y-5580913D03*
G01*
X927100Y-5580913D03*
G01*
X677113Y-5580913D03*
G01*
X1177086Y-5010912D03*
D28*
G01*
X4584700Y-4679797D03*
G01*
X4584700Y-4819802D03*
G01*
X4902200Y-4819802D03*
G01*
X4902200Y-4679797D03*
M02*
